<svg width="20" height="20" viewBox="0 0 20 20" fill="none" xmlns="http://www.w3.org/2000/svg">
<path d="M10 11.3216L13.5774 7.7442C13.9028 7.41876 14.4305 7.41876 14.7559 7.7442C15.0814 8.06964 15.0814 8.59727 14.7559 8.92271L10.5893 13.0894C10.2638 13.4148 9.73618 13.4148 9.41074 13.0894L5.24408 8.92271C4.91864 8.59727 4.91864 8.06964 5.24408 7.7442C5.56951 7.41876 6.09715 7.41876 6.42259 7.7442L10 11.3216Z" fill="#FE5000"/>
<mask id="mask0_2855_117581" style="mask-type:luminance" maskUnits="userSpaceOnUse" x="5" y="7" width="10" height="7">
<path d="M10 11.3216L13.5774 7.7442C13.9028 7.41876 14.4305 7.41876 14.7559 7.7442C15.0814 8.06964 15.0814 8.59727 14.7559 8.92271L10.5893 13.0894C10.2638 13.4148 9.73618 13.4148 9.41074 13.0894L5.24408 8.92271C4.91864 8.59727 4.91864 8.06964 5.24408 7.7442C5.56951 7.41876 6.09715 7.41876 6.42259 7.7442L10 11.3216Z" fill="white"/>
</mask>
<g mask="url(#mask0_2855_117581)">
</g>
</svg>
