<svg width="24" height="24" viewBox="0 0 24 24" fill="none" xmlns="http://www.w3.org/2000/svg">
<path fill-rule="evenodd" clip-rule="evenodd" d="M3.00114 11.952C3.01258 11.7123 3.10983 11.476 3.29289 11.2929L11.2929 3.29289C11.6834 2.90237 12.3166 2.90237 12.7071 3.29289C13.0976 3.68342 13.0976 4.31658 12.7071 4.70711L6.41421 11H20C20.5523 11 21 11.4477 21 12C21 12.5523 20.5523 13 20 13H6.41421L12.7071 19.2929C13.0976 19.6834 13.0976 20.3166 12.7071 20.7071C12.3166 21.0976 11.6834 21.0976 11.2929 20.7071L3.29289 12.7071C3.19702 12.6112 3.12468 12.5007 3.07588 12.3828C3.0281 12.2676 3.00124 12.1415 3.00004 12.0092M3 12C3 11.984 3.00038 11.968 3.00114 11.952L3 12Z" fill="#30303B"/>
<mask id="mask0_748_22387" style="mask-type:alpha" maskUnits="userSpaceOnUse" x="3" y="3" width="18" height="18">
<path fill-rule="evenodd" clip-rule="evenodd" d="M3.00114 11.952C3.01258 11.7123 3.10983 11.476 3.29289 11.2929L11.2929 3.29289C11.6834 2.90237 12.3166 2.90237 12.7071 3.29289C13.0976 3.68342 13.0976 4.31658 12.7071 4.70711L6.41421 11H20C20.5523 11 21 11.4477 21 12C21 12.5523 20.5523 13 20 13H6.41421L12.7071 19.2929C13.0976 19.6834 13.0976 20.3166 12.7071 20.7071C12.3166 21.0976 11.6834 21.0976 11.2929 20.7071L3.29289 12.7071C3.09998 12.5142 3.00236 12.2621 3.00004 12.0092M3 12C3 11.984 3.00038 11.968 3.00114 11.952L3 12Z" fill="white"/>
</mask>
<g mask="url(#mask0_748_22387)">
</g>
</svg>
