<svg width="16" height="16" viewBox="0 0 16 16" fill="none" xmlns="http://www.w3.org/2000/svg">
<mask id="mask0_2559_84432" style="mask-type:alpha" maskUnits="userSpaceOnUse" x="2" y="5" width="12" height="7">
<path fill-rule="evenodd" clip-rule="evenodd" d="M9.52859 5.19551C9.26825 5.45586 9.26825 5.87797 9.52859 6.13832L11.0572 7.66691H2.66667C2.29848 7.66691 2 7.96539 2 8.33358C2 8.70177 2.29848 9.00024 2.66667 9.00024H11.0572L9.52859 10.5288C9.26825 10.7892 9.26825 11.2113 9.52859 11.4716C9.78894 11.732 10.2111 11.732 10.4714 11.4716L13.1381 8.80498C13.3984 8.54463 13.3984 8.12252 13.1381 7.86217L10.4714 5.19551C10.2111 4.93516 9.78894 4.93516 9.52859 5.19551Z" fill="white"/>
</mask>
<g mask="url(#mask0_2559_84432)">
<rect width="16" height="16" fill="#30303B"/>
</g>
</svg>
