<svg width="12" height="12" viewBox="0 0 12 12" fill="none" xmlns="http://www.w3.org/2000/svg">
<path d="M2.80334 9.86217C2.61957 10.0459 2.32161 10.0459 2.13783 9.86217C1.95406 9.67839 1.95406 9.38043 2.13783 9.19666L5.33449 6L2.13783 2.80334C1.95406 2.61957 1.95406 2.32161 2.13783 2.13783C2.32161 1.95406 2.61957 1.95406 2.80334 2.13783L6 5.33449L9.19666 2.13783C9.38043 1.95406 9.67839 1.95406 9.86217 2.13783C10.0459 2.32161 10.0459 2.61957 9.86217 2.80334L6.66551 6L9.86217 9.19666C10.0459 9.38043 10.0459 9.67839 9.86217 9.86217C9.67839 10.0459 9.38043 10.0459 9.19666 9.86217L6 6.66551L2.80334 9.86217Z" fill="#C4180A"/>
</svg>
