<svg width="16" height="16" viewBox="0 0 16 16" fill="none" xmlns="http://www.w3.org/2000/svg">
<path fill-rule="evenodd" clip-rule="evenodd" d="M8.00002 15.3334C3.94993 15.3334 0.666687 12.0502 0.666687 8.00008C0.666687 3.94999 3.94993 0.666748 8.00002 0.666748C12.0501 0.666748 15.3334 3.94999 15.3334 8.00008C15.3334 12.0502 12.0501 15.3334 8.00002 15.3334ZM4.78155 11.2186C4.93469 11.3717 5.18299 11.3717 5.33614 11.2186L8.00002 8.55467L10.6639 11.2186C10.817 11.3717 11.0653 11.3717 11.2185 11.2186C11.3716 11.0654 11.3716 10.8171 11.2185 10.664L8.55461 8.00008L11.2185 5.3362C11.3716 5.18305 11.3716 4.93475 11.2185 4.78161C11.0653 4.62846 10.817 4.62846 10.6639 4.78161L8.00002 7.44549L5.33614 4.78161C5.18299 4.62846 4.93469 4.62846 4.78155 4.78161C4.6284 4.93475 4.6284 5.18305 4.78155 5.3362L7.44543 8.00008L4.78155 10.664C4.6284 10.8171 4.6284 11.0654 4.78155 11.2186Z" fill="#8A8DA6"/>
</svg>
