<svg width="16" height="16" viewBox="0 0 16 16" fill="none" xmlns="http://www.w3.org/2000/svg">
<g clip-path="url(#clip0_2868_124042)">
<g clip-path="url(#clip1_2868_124042)">
<path d="M9.19675 11.0964V9.77783H2.6665V14.2223H9.19675H11.5554V11.0964H9.19675Z" fill="#8A8DA6"/>
<path d="M4.56998 10.9531H3.64453V11.8786H4.56998V10.9531Z" fill="white"/>
<path d="M6.42423 10.9531H5.49878V11.8786H6.42423V10.9531Z" fill="white"/>
<path d="M5.49625 12.8176H4.5708V13.7431H5.49625V12.8176Z" fill="white"/>
<path d="M7.34952 12.8176H6.42407V13.7431H7.34952V12.8176Z" fill="white"/>
<path d="M8.28531 10.9531H7.35986V11.8786H8.28531V10.9531Z" fill="white"/>
<path d="M12.4448 7.99976H14.2226V10.3849L13.7683 10.8536V15.1109H12.8892L12.8988 10.8225L12.4448 10.3431V7.99976Z" fill="#8A8DA6"/>
<path d="M2.06591 6.0839L1.91131 5.53091L2.4643 5.36852L1.34229 3.38519L2.39112 3.09245L5.14656 4.68561L12.5312 2.71267C12.5312 2.71267 14.0798 2.44462 14.5665 3.20028C15.0532 3.95594 13.2496 4.78565 13.2496 4.78565L9.84809 5.67554L7.7015 8.00227L6.66524 8.20926L7.18964 6.40478L5.81994 6.74212C5.81994 6.74212 4.05746 7.15698 2.06591 6.0839Z" fill="#8A8DA6"/>
</g>
</g>
<defs>
<clipPath id="clip0_2868_124042">
<rect width="16" height="16" fill="white"/>
</clipPath>
<clipPath id="clip1_2868_124042">
<rect width="13.3195" height="13.3333" fill="white" transform="translate(1.33325 1.33325)"/>
</clipPath>
</defs>
</svg>
