<svg width="20" height="20" viewBox="0 0 20 20" fill="none" xmlns="http://www.w3.org/2000/svg">
<rect y="0.00012207" width="20" height="20" rx="10" fill="#C4180A"/>
<path d="M12.2224 5.55481H11.1113C10.5002 5.55481 10.0002 6.05481 10.0002 6.66592V9.4437C10.0002 10.0548 10.5002 10.5548 11.1113 10.5548H12.2224C12.8336 10.5548 13.3336 10.0548 13.3336 9.4437V6.66592C13.3336 6.05481 12.8336 5.55481 12.2224 5.55481ZM8.61133 12.2215H13.3336V13.3326H8.60577C8.11688 13.3326 7.68355 13.0104 7.53911 12.5381L6.11133 7.77703V5.55481H7.22244V7.77703L8.61133 12.2215ZM7.77799 13.8881H13.3336V14.9993H7.77799V13.8881Z" fill="white"/>
<rect x="9.6084" y="4.90198" width="3.92157" height="6.27451" rx="1" fill="white"/>
</svg>
