<svg width="24" height="24" viewBox="0 0 24 24" fill="none" xmlns="http://www.w3.org/2000/svg">
<path fill-rule="evenodd" clip-rule="evenodd" d="M19.9998 3.00015H3.99303C3.44454 3.00015 3 3.44469 3 3.99319V20C3 20.5484 3.44454 20.9931 3.99303 20.9931H12.6106V14.0253H10.2657V11.3097H12.6106V9.30716C12.6106 6.98321 14.03 5.71775 16.1031 5.71775C17.0962 5.71775 17.9497 5.79164 18.1984 5.82467V8.25339L16.7606 8.25406C15.6331 8.25406 15.4147 8.78982 15.4147 9.57602V11.3097H18.1038L17.7537 14.0253H15.4147V20.9931H19.9998C20.5482 20.9931 20.9929 20.5484 20.9929 20V3.99319C20.9929 3.44469 20.5482 3.00015 19.9998 3.00015Z" fill="white"/>
<mask id="mask0_2670_121903" style="mask-type:alpha" maskUnits="userSpaceOnUse" x="3" y="3" width="18" height="18">
<path fill-rule="evenodd" clip-rule="evenodd" d="M19.9998 3.00015H3.99303C3.44454 3.00015 3 3.44469 3 3.99319V20C3 20.5484 3.44454 20.9931 3.99303 20.9931H12.6106V14.0253H10.2657V11.3097H12.6106V9.30716C12.6106 6.98321 14.03 5.71775 16.1031 5.71775C17.0962 5.71775 17.9497 5.79164 18.1984 5.82467V8.25339L16.7606 8.25406C15.6331 8.25406 15.4147 8.78982 15.4147 9.57602V11.3097H18.1038L17.7537 14.0253H15.4147V20.9931H19.9998C20.5482 20.9931 20.9929 20.5484 20.9929 20V3.99319C20.9929 3.44469 20.5482 3.00015 19.9998 3.00015Z" fill="white"/>
</mask>
<g mask="url(#mask0_2670_121903)">
<rect y="0.00012207" width="24" height="24" fill="#EDEDF1"/>
</g>
</svg>
