<svg width="22" height="22" viewBox="0 0 22 22" fill="none" xmlns="http://www.w3.org/2000/svg">
<path d="M11.1001 12.1751C11.3334 12.1751 11.5293 12.0959 11.6876 11.9376C11.8459 11.7793 11.9251 11.5751 11.9251 11.3251V6.5751C11.9251 6.35843 11.8418 6.16676 11.6751 6.0001C11.5084 5.83343 11.3084 5.7501 11.0751 5.7501C10.8251 5.7501 10.6209 5.83343 10.4626 6.0001C10.3043 6.16676 10.2251 6.36676 10.2251 6.6001V11.3501C10.2251 11.5834 10.3084 11.7793 10.4751 11.9376C10.6418 12.0959 10.8501 12.1751 11.1001 12.1751ZM11.0001 16.1501C11.2668 16.1501 11.4918 16.0584 11.6751 15.8751C11.8584 15.6918 11.9501 15.4668 11.9501 15.2001C11.9501 14.9334 11.8626 14.7043 11.6876 14.5126C11.5126 14.3209 11.2834 14.2251 11.0001 14.2251C10.7334 14.2251 10.5084 14.3209 10.3251 14.5126C10.1418 14.7043 10.0501 14.9334 10.0501 15.2001C10.0501 15.4668 10.1376 15.6918 10.3126 15.8751C10.4876 16.0584 10.7168 16.1501 11.0001 16.1501ZM11.0001 21.1501C9.56676 21.1501 8.22926 20.8918 6.9876 20.3751C5.74593 19.8584 4.67093 19.1459 3.7626 18.2376C2.85426 17.3293 2.14176 16.2543 1.6251 15.0126C1.10843 13.7709 0.850098 12.4334 0.850098 11.0001C0.850098 9.58343 1.10843 8.25426 1.6251 7.0126C2.14176 5.77093 2.85426 4.69593 3.7626 3.7876C4.67093 2.87926 5.74593 2.1626 6.9876 1.6376C8.22926 1.1126 9.56676 0.850098 11.0001 0.850098C12.4168 0.850098 13.7459 1.1126 14.9876 1.6376C16.2293 2.1626 17.3043 2.87926 18.2126 3.7876C19.1209 4.69593 19.8376 5.76676 20.3626 7.0001C20.8876 8.23343 21.1501 9.56676 21.1501 11.0001C21.1501 12.4334 20.8876 13.7709 20.3626 15.0126C19.8376 16.2543 19.1209 17.3293 18.2126 18.2376C17.3043 19.1459 16.2293 19.8584 14.9876 20.3751C13.7459 20.8918 12.4168 21.1501 11.0001 21.1501ZM11.0001 19.4501C13.3168 19.4501 15.3043 18.6251 16.9626 16.9751C18.6209 15.3251 19.4501 13.3334 19.4501 11.0001C19.4501 8.68343 18.6209 6.69593 16.9626 5.0376C15.3043 3.37926 13.3168 2.5501 11.0001 2.5501C8.68343 2.5501 6.69593 3.37926 5.0376 5.0376C3.37926 6.69593 2.5501 8.68343 2.5501 11.0001C2.5501 13.3334 3.37926 15.3251 5.0376 16.9751C6.69593 18.6251 8.68343 19.4501 11.0001 19.4501Z" fill="white"/>
</svg>
