<svg width="24" height="24" viewBox="0 0 24 24" fill="none" xmlns="http://www.w3.org/2000/svg">
<path d="M22 6.17359C21.2642 6.50679 20.4733 6.73119 19.6433 6.83234C20.4908 6.31469 21.1417 5.49444 21.4475 4.51694C20.655 4.99634 19.7767 5.34484 18.8417 5.53269C18.0942 4.71924 17.0267 4.21094 15.8467 4.21094C13.1975 4.21094 11.2508 6.73204 11.8492 9.34919C8.44 9.17494 5.41667 7.50894 3.3925 4.97679C2.3175 6.85784 2.835 9.31859 4.66167 10.5647C3.99 10.5426 3.35667 10.3547 2.80417 10.0411C2.75917 11.9799 4.12167 13.7938 6.095 14.1976C5.5175 14.3574 4.885 14.3948 4.24167 14.269C4.76333 15.9316 6.27833 17.1411 8.075 17.1751C6.35 18.5547 4.17667 19.1709 2 18.9091C3.81583 20.0966 5.97333 20.7893 8.29 20.7893C15.9083 20.7893 20.2125 14.2265 19.9525 8.34024C20.7542 7.74949 21.45 7.01254 22 6.17359Z" fill="white"/>
<mask id="mask0_2670_121923" style="mask-type:alpha" maskUnits="userSpaceOnUse" x="2" y="4" width="20" height="17">
<path d="M22 6.17359C21.2642 6.50679 20.4733 6.73119 19.6433 6.83234C20.4908 6.31469 21.1417 5.49444 21.4475 4.51694C20.655 4.99634 19.7767 5.34484 18.8417 5.53269C18.0942 4.71924 17.0267 4.21094 15.8467 4.21094C13.1975 4.21094 11.2508 6.73204 11.8492 9.34919C8.44 9.17494 5.41667 7.50894 3.3925 4.97679C2.3175 6.85784 2.835 9.31859 4.66167 10.5647C3.99 10.5426 3.35667 10.3547 2.80417 10.0411C2.75917 11.9799 4.12167 13.7938 6.095 14.1976C5.5175 14.3574 4.885 14.3948 4.24167 14.269C4.76333 15.9316 6.27833 17.1411 8.075 17.1751C6.35 18.5547 4.17667 19.1709 2 18.9091C3.81583 20.0966 5.97333 20.7893 8.29 20.7893C15.9083 20.7893 20.2125 14.2265 19.9525 8.34024C20.7542 7.74949 21.45 7.01254 22 6.17359Z" fill="white"/>
</mask>
<g mask="url(#mask0_2670_121923)">
<rect y="0.00012207" width="24" height="24" fill="#EDEDF1"/>
</g>
</svg>
