<svg width="16" height="16" viewBox="0 0 16 16" fill="none" xmlns="http://www.w3.org/2000/svg">
<path fill-rule="evenodd" clip-rule="evenodd" d="M4.27614 6L5.80474 7.5286C6.06509 7.78895 6.06509 8.21106 5.80474 8.4714C5.54439 8.73175 5.12228 8.73175 4.86193 8.4714L2.19526 5.80474C1.93491 5.54439 1.93491 5.12228 2.19526 4.86193L4.86193 2.19526C5.12228 1.93491 5.54439 1.93491 5.80474 2.19526C6.06509 2.45561 6.06509 2.87772 5.80474 3.13807L4.27614 4.66667H12.6667C13.0349 4.66667 13.3333 4.96514 13.3333 5.33333C13.3333 5.70152 13.0349 6 12.6667 6H4.27614ZM10.1953 8.4714C9.93491 8.21106 9.93491 7.78895 10.1953 7.5286C10.4556 7.26825 10.8777 7.26825 11.1381 7.5286L13.8047 10.1953C14.0651 10.4556 14.0651 10.8777 13.8047 11.1381L11.1381 13.8047C10.8777 14.0651 10.4556 14.0651 10.1953 13.8047C9.93491 13.5444 9.93491 13.1223 10.1953 12.8619L11.7239 11.3333H3.33333C2.96514 11.3333 2.66667 11.0349 2.66667 10.6667C2.66667 10.2985 2.96514 10 3.33333 10H11.7239L10.1953 8.4714Z" fill="#30303B"/>
</svg>
