<svg width="24" height="24" viewBox="0 0 24 24" fill="none" xmlns="http://www.w3.org/2000/svg">
<path fill-rule="evenodd" clip-rule="evenodd" d="M12 2.00012C9.28417 2.00012 8.94417 2.01179 7.8775 2.06012C4.24583 2.22679 2.2275 4.24179 2.06083 7.87679C2.01167 8.94429 2 9.28429 2 12.0001C2 14.716 2.01167 15.0568 2.06 16.1235C2.22667 19.7551 4.24167 21.7735 7.87667 21.9401C8.94417 21.9885 9.28417 22.0001 12 22.0001C14.7158 22.0001 15.0567 21.9885 16.1233 21.9401C19.7517 21.7735 21.775 19.7585 21.9392 16.1235C21.9883 15.0568 22 14.716 22 12.0001C22 9.28429 21.9883 8.94429 21.94 7.87762C21.7767 4.24929 19.7592 2.22762 16.1242 2.06096C15.0567 2.01179 14.7158 2.00012 12 2.00012ZM12 3.80262C14.67 3.80262 14.9867 3.81262 16.0417 3.86096C18.7517 3.98429 20.0175 5.27012 20.1408 7.96012C20.1892 9.01429 20.1983 9.33096 20.1983 12.001C20.1983 14.6718 20.1883 14.9876 20.1408 16.0418C20.0167 18.7293 18.7542 20.0176 16.0417 20.141C14.9867 20.1893 14.6717 20.1993 12 20.1993C9.33 20.1993 9.01333 20.1893 7.95917 20.141C5.2425 20.0168 3.98333 18.7251 3.86 16.041C3.81167 14.9868 3.80167 14.671 3.80167 12.0001C3.80167 9.33012 3.8125 9.01429 3.86 7.95929C3.98417 5.27012 5.24667 3.98346 7.95917 3.86012C9.01417 3.81262 9.33 3.80262 12 3.80262ZM6.865 12.0001C6.865 9.16429 9.16417 6.86512 12 6.86512C14.8358 6.86512 17.135 9.16429 17.135 12.0001C17.135 14.8368 14.8358 17.136 12 17.136C9.16417 17.136 6.865 14.836 6.865 12.0001ZM12 15.3335C10.1592 15.3335 8.66667 13.8418 8.66667 12.0001C8.66667 10.1593 10.1592 8.66679 12 8.66679C13.8408 8.66679 15.3333 10.1593 15.3333 12.0001C15.3333 13.8418 13.8408 15.3335 12 15.3335ZM16.1375 6.66262C16.1375 6.00012 16.675 5.46262 17.3383 5.46262C18.0008 5.46262 18.5375 6.00012 18.5375 6.66262C18.5375 7.32512 18.0008 7.86262 17.3383 7.86262C16.675 7.86262 16.1375 7.32512 16.1375 6.66262Z" fill="#EDEDF1"/>
<mask id="mask0_2670_121908" style="mask-type:alpha" maskUnits="userSpaceOnUse" x="2" y="2" width="20" height="21">
<path fill-rule="evenodd" clip-rule="evenodd" d="M12 2.00012C9.28417 2.00012 8.94417 2.01179 7.8775 2.06012C4.24583 2.22679 2.2275 4.24179 2.06083 7.87679C2.01167 8.94429 2 9.28429 2 12.0001C2 14.716 2.01167 15.0568 2.06 16.1235C2.22667 19.7551 4.24167 21.7735 7.87667 21.9401C8.94417 21.9885 9.28417 22.0001 12 22.0001C14.7158 22.0001 15.0567 21.9885 16.1233 21.9401C19.7517 21.7735 21.775 19.7585 21.9392 16.1235C21.9883 15.0568 22 14.716 22 12.0001C22 9.28429 21.9883 8.94429 21.94 7.87762C21.7767 4.24929 19.7592 2.22762 16.1242 2.06096C15.0567 2.01179 14.7158 2.00012 12 2.00012ZM12 3.80262C14.67 3.80262 14.9867 3.81262 16.0417 3.86096C18.7517 3.98429 20.0175 5.27012 20.1408 7.96012C20.1892 9.01429 20.1983 9.33096 20.1983 12.001C20.1983 14.6718 20.1883 14.9876 20.1408 16.0418C20.0167 18.7293 18.7542 20.0176 16.0417 20.141C14.9867 20.1893 14.6717 20.1993 12 20.1993C9.33 20.1993 9.01333 20.1893 7.95917 20.141C5.2425 20.0168 3.98333 18.7251 3.86 16.041C3.81167 14.9868 3.80167 14.671 3.80167 12.0001C3.80167 9.33012 3.8125 9.01429 3.86 7.95929C3.98417 5.27012 5.24667 3.98346 7.95917 3.86012C9.01417 3.81262 9.33 3.80262 12 3.80262ZM6.865 12.0001C6.865 9.16429 9.16417 6.86512 12 6.86512C14.8358 6.86512 17.135 9.16429 17.135 12.0001C17.135 14.8368 14.8358 17.136 12 17.136C9.16417 17.136 6.865 14.836 6.865 12.0001ZM12 15.3335C10.1592 15.3335 8.66667 13.8418 8.66667 12.0001C8.66667 10.1593 10.1592 8.66679 12 8.66679C13.8408 8.66679 15.3333 10.1593 15.3333 12.0001C15.3333 13.8418 13.8408 15.3335 12 15.3335ZM16.1375 6.66262C16.1375 6.00012 16.675 5.46262 17.3383 5.46262C18.0008 5.46262 18.5375 6.00012 18.5375 6.66262C18.5375 7.32512 18.0008 7.86262 17.3383 7.86262C16.675 7.86262 16.1375 7.32512 16.1375 6.66262Z" fill="white"/>
</mask>
<g mask="url(#mask0_2670_121908)">
</g>
</svg>
