<svg width="86" height="16" viewBox="0 0 86 16" fill="none" xmlns="http://www.w3.org/2000/svg">
<path fill-rule="evenodd" clip-rule="evenodd" d="M0.169922 6.34971C0.169922 2.84271 3.01666 0.00012207 6.52736 0.00012207C10.0389 0.00012207 12.8853 2.84271 12.8853 6.34971C12.8853 9.01289 11.2431 11.2904 8.91542 12.2336L6.64967 9.97013C8.59728 9.90482 10.1557 8.30993 10.1557 6.34971C10.1557 4.3481 8.53152 2.72603 6.52736 2.72603C4.52376 2.72603 2.89931 4.3481 2.89931 6.34971C2.89931 7.34995 3.30593 8.25593 3.96229 8.9114L9.12755 14.0727L7.19743 16.0001L2.03211 10.8398C0.881696 9.68975 0.169922 8.10329 0.169922 6.34971ZM4.77638 8.07755C5.74345 9.04067 7.31141 9.04129 8.27739 8.07755C9.24529 7.11453 9.24529 5.55269 8.27791 4.58905C7.31141 3.62603 5.74345 3.62603 4.77638 4.58905C3.80931 5.55269 3.80931 7.11453 4.77638 8.07755Z" fill="white"/>
<path fill-rule="evenodd" clip-rule="evenodd" d="M49.692 1.0376V1.44228C49.692 1.73723 49.5962 1.98756 49.404 2.19152C49.2116 2.39685 48.977 2.49949 48.6973 2.49949C48.4181 2.49949 48.1799 2.39685 47.9808 2.19152C47.7835 1.98756 47.6843 1.73723 47.6843 1.44228V1.0376C47.6843 0.756244 47.7835 0.512586 47.9808 0.307517C48.1799 0.102919 48.4181 0.00012207 48.6973 0.00012207C48.977 0.00012207 49.2116 0.0986668 49.404 0.297751C49.5962 0.496416 49.692 0.743434 49.692 1.0376ZM22.7477 5.57353C22.2465 5.04466 21.6356 4.77925 20.9163 4.77925C20.1962 4.77925 19.5888 5.04715 19.0941 5.58385C18.6001 6.11975 18.3525 6.78836 18.3525 7.58899C18.3525 8.391 18.6034 9.01761 19.1039 9.4691C19.5926 10.0115 20.1937 10.2831 20.9063 10.2831C21.62 10.2831 22.2301 10.0115 22.7377 9.4691C23.2448 8.92605 23.4988 8.28389 23.4988 7.54059C23.4988 6.79809 23.2487 6.14228 22.7477 5.57353ZM18.0347 15.6801C17.822 15.8926 17.5719 16.0001 17.283 16.0001C16.9925 16.0001 16.7455 15.8926 16.5404 15.6801C16.3346 15.4669 16.2314 15.2244 16.2314 14.9534V3.69454C16.2314 3.41061 16.3318 3.16805 16.5308 2.96695C16.7299 2.76707 16.968 2.66679 17.244 2.66679C17.52 2.66679 17.7576 2.74433 17.9569 2.89988C18.1565 3.0547 18.2756 3.24194 18.314 3.4616C19.1237 2.93278 19.998 2.66679 20.9353 2.66679C22.2203 2.66679 23.3189 3.14493 24.2318 4.10128C25.1437 5.05752 25.6007 6.20136 25.6007 7.53166C25.6007 8.862 25.1437 9.99532 24.2318 10.9317C23.3189 11.8697 22.2203 12.3382 20.9353 12.3382C19.9455 12.3382 19.0858 12.0732 18.3525 11.5424V14.9534C18.3525 15.2244 18.246 15.4669 18.0347 15.6801ZM35.9738 7.25352C35.9738 7.53811 35.8791 7.76656 35.6927 7.94061C35.5059 8.11476 35.2581 8.20202 34.9496 8.20202H28.8064C28.9217 8.757 29.1413 9.18263 29.4627 9.47927C29.875 9.95703 30.4773 10.2431 31.2697 10.3402C32.0619 10.437 32.747 10.2785 33.3264 9.86629C33.519 9.66039 33.7771 9.55702 34.0992 9.55702C34.421 9.55702 34.6465 9.64074 34.7753 9.80866C35.1363 10.2076 35.1363 10.6279 34.7753 11.066C33.8484 11.9174 32.7112 12.34 31.3657 12.3334C30.0197 12.3273 28.8933 11.8539 27.9852 10.9116C27.0775 9.96987 26.6174 8.8346 26.6045 7.50621C26.6174 6.17698 27.0775 5.03812 27.9852 4.08946C28.8933 3.14154 29.9906 2.66679 31.2792 2.66679C32.5662 2.66679 33.6511 3.0902 34.5342 3.93501C35.4157 4.77972 35.8959 5.85308 35.9738 7.15707V7.25352ZM29.5213 5.20212C29.9717 4.77639 30.5706 4.54377 31.3183 4.50605C32.0907 4.57007 32.7303 4.8149 33.2398 5.241C33.7483 5.66658 34.061 6.10615 34.176 6.55739H28.7102C28.7997 6.07979 29.0704 5.62839 29.5213 5.20212ZM38.2959 10.652C37.4167 9.75637 36.9776 8.66496 36.9776 7.37716C36.9776 6.08991 37.4167 4.98312 38.2959 4.05719C39.1732 3.13029 40.2401 2.66679 41.4956 2.66679C42.4487 2.66679 43.289 2.92815 44.0168 3.45137C44.0675 3.22744 44.1868 3.04022 44.3751 2.89118C44.563 2.74143 44.7861 2.66679 45.0431 2.66679C45.3001 2.66679 45.526 2.76333 45.7198 2.95574C45.9145 3.14933 46.0122 3.38284 46.0122 3.65616V10.8561C46.0122 12.0881 45.5695 13.1426 44.6854 14.0195C43.801 14.8959 42.7373 15.3335 41.4956 15.3335C40.7796 15.3335 40.1214 15.1781 39.5188 14.8676C39.2675 14.7555 39.0984 14.5659 39.0105 14.2985C38.9226 14.032 38.942 13.7734 39.0669 13.5241C39.1927 13.2755 39.3838 13.1073 39.6413 13.0208C39.8979 12.9335 40.159 12.9463 40.4216 13.0585C40.7486 13.2322 41.1597 13.3193 41.6551 13.3193C42.1509 13.3193 42.6275 13.1301 43.0858 12.7514C43.5438 12.3713 43.8355 11.895 43.9608 11.3226C43.2329 11.8208 42.4111 12.0694 41.4956 12.0694C40.2401 12.0694 39.1732 11.5969 38.2959 10.652ZM39.7262 9.27077C39.2493 8.74862 39.0105 8.12142 39.0105 7.38698C39.0105 6.65301 39.2557 6.01517 39.7447 5.47493C40.2341 4.93383 40.8238 4.66392 41.5141 4.66392C42.2038 4.66392 42.7903 4.92757 43.2732 5.45635C43.7567 5.98502 43.9988 6.62821 43.9988 7.38698C43.9988 8.1456 43.7602 8.78049 43.2828 9.29017C42.806 9.79975 42.2137 10.0542 41.5043 10.0542C40.7955 10.0542 40.2025 9.79313 39.7262 9.27077ZM48.6876 3.0681C48.4024 3.0681 48.1637 3.16838 47.9719 3.36667C47.7795 3.56612 47.6843 3.81813 47.6843 4.12657V11.6278C47.6843 11.9104 47.7835 12.1541 47.9809 12.3586C48.1799 12.564 48.4181 12.6668 48.6973 12.6668C48.9771 12.6668 49.2116 12.5684 49.404 12.3689C49.5962 12.1701 49.692 11.9232 49.692 11.6278V4.12657C49.692 3.81813 49.5962 3.56612 49.404 3.36667C49.2116 3.16838 48.9731 3.0681 48.6876 3.0681Z" fill="white"/>
<path fill-rule="evenodd" clip-rule="evenodd" d="M85.8307 1.0376V1.44228C85.8307 1.73723 85.7348 1.98756 85.5427 2.19152C85.3503 2.39685 85.1157 2.49949 84.836 2.49949C84.5567 2.49949 84.3186 2.39685 84.1195 2.19152C83.9221 1.98756 83.823 1.73723 83.823 1.44228V1.0376C83.823 0.756244 83.9221 0.512586 84.1195 0.307517C84.3186 0.102919 84.5567 0.00012207 84.836 0.00012207C85.1157 0.00012207 85.3503 0.0986668 85.5427 0.297751C85.7348 0.496416 85.8307 0.743434 85.8307 1.0376ZM58.8864 5.57353C58.3851 5.04466 57.7743 4.77925 57.055 4.77925C56.3349 4.77925 55.7274 5.04715 55.2328 5.58385C54.7388 6.11975 54.4912 6.78836 54.4912 7.58899C54.4912 8.391 54.7421 9.01761 55.2426 9.4691C55.7313 10.0115 56.3324 10.2831 57.0449 10.2831C57.7586 10.2831 58.3687 10.0115 58.8764 9.4691C59.3835 8.92605 59.6374 8.28389 59.6374 7.54059C59.6374 6.79809 59.3874 6.14228 58.8864 5.57353ZM54.1734 15.6801C53.9606 15.8926 53.7105 16.0001 53.4217 16.0001C53.1312 16.0001 52.8842 15.8926 52.6791 15.6801C52.4732 15.4669 52.3701 15.2244 52.3701 14.9534V3.69454C52.3701 3.41061 52.4704 3.16805 52.6695 2.96695C52.8686 2.76707 53.1066 2.66679 53.3827 2.66679C53.6587 2.66679 53.8962 2.74433 54.0955 2.89988C54.2952 3.0547 54.4143 3.24194 54.4527 3.4616C55.2623 2.93278 56.1366 2.66679 57.0739 2.66679C58.3589 2.66679 59.4576 3.14493 60.3704 4.10128C61.2824 5.05752 61.7393 6.20136 61.7393 7.53166C61.7393 8.862 61.2824 9.99532 60.3704 10.9317C59.4576 11.8697 58.3589 12.3382 57.0739 12.3382C56.0842 12.3382 55.2244 12.0732 54.4912 11.5424V14.9534C54.4912 15.2244 54.3847 15.4669 54.1734 15.6801ZM72.1124 7.25352C72.1124 7.53811 72.0178 7.76656 71.8314 7.94061C71.6446 8.11476 71.3968 8.20202 71.0883 8.20202H64.945C65.0604 8.757 65.28 9.18263 65.6013 9.47927C66.0137 9.95703 66.6159 10.2431 67.4084 10.3402C68.2006 10.437 68.8857 10.2785 69.4651 9.86629C69.6577 9.66039 69.9157 9.55702 70.2379 9.55702C70.5597 9.55702 70.7852 9.64074 70.9139 9.80866C71.2749 10.2076 71.2749 10.6279 70.9139 11.066C69.9871 11.9174 68.8499 12.34 67.5044 12.3334C66.1584 12.3273 65.0319 11.8539 64.1239 10.9116C63.2162 9.96987 62.7561 8.8346 62.7432 7.50621C62.7561 6.17698 63.2162 5.03812 64.1239 4.08946C65.0319 3.14154 66.1293 2.66679 67.4178 2.66679C68.7049 2.66679 69.7898 3.0902 70.6729 3.93501C71.5544 4.77972 72.0346 5.85308 72.1124 7.15707V7.25352ZM65.66 5.20212C66.1103 4.77639 66.7093 4.54377 67.457 4.50605C68.2294 4.57007 68.8689 4.8149 69.3785 5.241C69.887 5.66658 70.1996 6.10615 70.3147 6.55739H64.8489C64.9384 6.07979 65.209 5.62839 65.66 5.20212ZM74.4346 10.652C73.5553 9.75637 73.1163 8.66496 73.1163 7.37716C73.1163 6.08991 73.5553 4.98312 74.4346 4.05719C75.3119 3.13029 76.3788 2.66679 77.6342 2.66679C78.5874 2.66679 79.4276 2.92815 80.1554 3.45137C80.2061 3.22744 80.3255 3.04022 80.5138 2.89118C80.7017 2.74143 80.9248 2.66679 81.1817 2.66679C81.4388 2.66679 81.6647 2.76333 81.8584 2.95574C82.0531 3.14933 82.1509 3.38284 82.1509 3.65616V10.8561C82.1509 12.0881 81.7082 13.1426 80.8241 14.0195C79.9397 14.8959 78.876 15.3335 77.6342 15.3335C76.9183 15.3335 76.2601 15.1781 75.6574 14.8676C75.4062 14.7555 75.2371 14.5659 75.1492 14.2985C75.0613 14.032 75.0806 13.7734 75.2056 13.5241C75.3313 13.2755 75.5224 13.1073 75.7799 13.0208C76.0366 12.9335 76.2977 12.9463 76.5603 13.0585C76.8873 13.2322 77.2984 13.3193 77.7937 13.3193C78.2896 13.3193 78.7661 13.1301 79.2245 12.7514C79.6825 12.3713 79.9742 11.895 80.0995 11.3226C79.3715 11.8208 78.5498 12.0694 77.6342 12.0694C76.3788 12.0694 75.3119 11.5969 74.4346 10.652ZM75.8649 9.27077C75.3879 8.74862 75.1492 8.12142 75.1492 7.38698C75.1492 6.65301 75.3944 6.01517 75.8834 5.47493C76.3728 4.93383 76.9624 4.66392 77.6528 4.66392C78.3425 4.66392 78.929 4.92757 79.4119 5.45635C79.8954 5.98502 80.1375 6.62821 80.1375 7.38698C80.1375 8.1456 79.8989 8.78049 79.4215 9.29017C78.9447 9.79975 78.3523 10.0542 77.643 10.0542C76.9341 10.0542 76.3412 9.79313 75.8649 9.27077ZM84.8263 3.0681C84.5411 3.0681 84.3024 3.16838 84.1106 3.36667C83.9181 3.56612 83.823 3.81813 83.823 4.12657V11.6278C83.823 11.9104 83.9221 12.1541 84.1195 12.3586C84.3186 12.564 84.5568 12.6668 84.836 12.6668C85.1157 12.6668 85.3503 12.5684 85.5427 12.3689C85.7349 12.1701 85.8307 11.9232 85.8307 11.6278V4.12657C85.8307 3.81813 85.7349 3.56612 85.5427 3.36667C85.3503 3.16838 85.1117 3.0681 84.8263 3.0681Z" fill="white"/>
</svg>
