<svg width="24" height="24" viewBox="0 0 24 24" fill="none" xmlns="http://www.w3.org/2000/svg">
<path d="M13.5858 12.0001L9.29289 7.70723C8.90237 7.3167 8.90237 6.68354 9.29289 6.29302C9.68342 5.90249 10.3166 5.90249 10.7071 6.29302L15.7071 11.293C16.0976 11.6835 16.0976 12.3167 15.7071 12.7072L10.7071 17.7072C10.3166 18.0978 9.68342 18.0978 9.29289 17.7072C8.90237 17.3167 8.90237 16.6835 9.29289 16.293L13.5858 12.0001Z" fill="white"/>
<mask id="mask0_2670_121871" style="mask-type:alpha" maskUnits="userSpaceOnUse" x="9" y="6" width="7" height="13">
<path d="M13.5858 12.0001L9.29289 7.70723C8.90237 7.3167 8.90237 6.68354 9.29289 6.29302C9.68342 5.90249 10.3166 5.90249 10.7071 6.29302L15.7071 11.293C16.0976 11.6835 16.0976 12.3167 15.7071 12.7072L10.7071 17.7072C10.3166 18.0978 9.68342 18.0978 9.29289 17.7072C8.90237 17.3167 8.90237 16.6835 9.29289 16.293L13.5858 12.0001Z" fill="white"/>
</mask>
<g mask="url(#mask0_2670_121871)">
</g>
</svg>
