<svg width="20" height="20" viewBox="0 0 20 20" fill="none" xmlns="http://www.w3.org/2000/svg">
<rect y="0.00012207" width="20" height="20" rx="10" fill="#E6BE0E"/>
<rect y="0.00012207" width="20" height="20" rx="10" fill="#27924C"/>
<path fill-rule="evenodd" clip-rule="evenodd" d="M7.81635 9.86236C9.0288 9.86236 10.0122 8.87898 10.0122 7.66653C10.0122 6.45384 9.0289 5.4707 7.81635 5.4707C6.60356 5.4707 5.62052 6.45375 5.62052 7.66653C5.62052 8.87908 6.60366 9.86236 7.81635 9.86236ZM4.44719 14.5294H11.1624C11.4096 14.5294 11.61 14.3283 11.61 14.0803C11.61 12.5984 10.2945 10.9362 8.61579 10.9362H6.99377C5.31534 10.9362 3.99951 12.5985 3.99951 14.0803C3.99951 14.3283 4.19994 14.5294 4.44719 14.5294ZM14.1553 8.51491C14.1553 9.42425 13.4178 10.1618 12.5085 10.1618C11.599 10.1618 10.8616 9.42432 10.8616 8.51491C10.8616 7.60532 11.5989 6.86804 12.5085 6.86804C13.4179 6.86804 14.1553 7.60539 14.1553 8.51491ZM15.5895 14.5293H11.535C11.7714 14.5171 11.9593 14.3209 11.9593 14.0808C11.9593 13.1461 11.4359 12.1398 10.6282 11.524C10.9728 11.3421 11.3568 11.2356 11.7641 11.2356H13.2526C14.7931 11.2356 16.0003 12.7592 16.0003 14.1176C16.0003 14.345 15.8164 14.5293 15.5895 14.5293Z" fill="white"/>
</svg>
