<svg width="24" height="24" viewBox="0 0 24 24" fill="none" xmlns="http://www.w3.org/2000/svg">
<path d="M4.83325 10.1433C4.83325 6.19791 8.04221 3 11.9996 3C15.958 3 19.1666 6.19791 19.1666 10.1433C19.1666 13.1394 17.3154 15.7016 14.6916 16.7626L12.1375 14.2163C14.3329 14.1428 16.0897 12.3485 16.0897 10.1433C16.0897 7.89148 14.2588 6.06665 11.9996 6.06665C9.74109 6.06665 7.90994 7.89148 7.90994 10.1433C7.90994 11.2686 8.36829 12.2878 9.10817 13.0252L14.9307 18.8316L12.755 21L6.9324 15.1946C5.63559 13.9008 4.83325 12.1161 4.83325 10.1433Z" fill="#30303B"/>
<path d="M10.0261 12.1095C11.1164 13.1961 12.8842 13.1968 13.9733 12.1095C15.0646 11.0231 15.0646 9.26111 13.9739 8.17398C12.8842 7.08755 11.1164 7.08755 10.0261 8.17398C8.93574 9.26111 8.93574 11.0231 10.0261 12.1095Z" fill="#30303B"/>
</svg>
