<svg width="16" height="16" viewBox="0 0 16 16" fill="none" xmlns="http://www.w3.org/2000/svg">
<path d="M15.3334 8.00008C15.3334 7.4478 15.3334 6.66675 14.3334 6.66675L9.33341 6.66675V1.66675C9.33341 0.666748 8.55237 0.666748 8.00008 0.666748C7.4478 0.666748 6.66675 0.666748 6.66675 1.66675V6.66675L1.66675 6.66675C0.666748 6.66675 0.666748 7.4478 0.666748 8.00008C0.666748 8.55237 0.666748 9.33341 1.66675 9.33341H6.66675V14.3334C6.66675 15.3334 7.4478 15.3334 8.00008 15.3334C8.55237 15.3334 9.33341 15.3334 9.33342 14.3334L9.33341 9.33341H14.3334C15.3334 9.33341 15.3334 8.33341 15.3334 8.00008Z" fill="#6E479A"/>
</svg>
