<svg width="20" height="21" viewBox="0 0 20 21" fill="none" xmlns="http://www.w3.org/2000/svg">
<path fill-rule="evenodd" clip-rule="evenodd" d="M5.68657 13.249L4.21725 14.0357C5.51316 16.4561 8.03705 18.0001 10.8331 18.0001C14.9752 18.0001 18.3331 14.6423 18.3331 10.5001C18.3331 6.35799 14.9752 3.00012 10.8331 3.00012C6.92773 3.00012 3.71954 5.98508 3.36553 9.79798L2.12868 8.97341C1.74574 8.71812 1.22835 8.8216 0.973054 9.20454C0.717761 9.58748 0.821239 10.1049 1.20418 10.3602L3.70418 12.0268C3.9841 12.2134 4.34876 12.2134 4.62868 12.0268L7.12868 10.3602C7.51162 10.1049 7.6151 9.58748 7.35981 9.20454C7.10451 8.8216 6.58712 8.71812 6.20418 8.97341L5.04832 9.74399C5.41907 6.87954 7.86768 4.66679 10.8331 4.66679C14.0548 4.66679 16.6664 7.27846 16.6664 10.5001C16.6664 13.7218 14.0548 16.3335 10.8331 16.3335C8.65772 16.3335 6.6952 15.1329 5.68657 13.249Z" fill="#FE5000"/>
<mask id="mask0_3072_109623" style="mask-type:luminance" maskUnits="userSpaceOnUse" x="0" y="3" width="19" height="16">
<path fill-rule="evenodd" clip-rule="evenodd" d="M5.68657 13.249L4.21725 14.0357C5.51316 16.4561 8.03705 18.0001 10.8331 18.0001C14.9752 18.0001 18.3331 14.6423 18.3331 10.5001C18.3331 6.35799 14.9752 3.00012 10.8331 3.00012C6.92773 3.00012 3.71954 5.98508 3.36553 9.79798L2.12868 8.97341C1.74574 8.71812 1.22835 8.8216 0.973054 9.20454C0.717761 9.58748 0.821239 10.1049 1.20418 10.3602L3.70418 12.0268C3.9841 12.2134 4.34876 12.2134 4.62868 12.0268L7.12868 10.3602C7.51162 10.1049 7.6151 9.58748 7.35981 9.20454C7.10451 8.8216 6.58712 8.71812 6.20418 8.97341L5.04832 9.74399C5.41907 6.87954 7.86768 4.66679 10.8331 4.66679C14.0548 4.66679 16.6664 7.27846 16.6664 10.5001C16.6664 13.7218 14.0548 16.3335 10.8331 16.3335C8.65772 16.3335 6.6952 15.1329 5.68657 13.249Z" fill="white"/>
</mask>
<g mask="url(#mask0_3072_109623)">
<rect y="0.500122" width="20" height="20" fill="#FE5000"/>
</g>
</svg>
