<svg width="128" height="128" viewBox="0 0 128 128" fill="none" xmlns="http://www.w3.org/2000/svg">
<path d="M8.13793 4H4V8.13793H8.13793V4Z" fill="black"/>
<path d="M12.2759 4H8.13793V8.13793H12.2759V4Z" fill="black"/>
<path d="M16.4138 4H12.2759V8.13793H16.4138V4Z" fill="black"/>
<path d="M20.5517 4H16.4138V8.13793H20.5517V4Z" fill="black"/>
<path d="M24.6897 4H20.5517V8.13793H24.6897V4Z" fill="black"/>
<path d="M28.8276 4H24.6897V8.13793H28.8276V4Z" fill="black"/>
<path d="M32.9655 4H28.8276V8.13793H32.9655V4Z" fill="black"/>
<path d="M41.2414 4H37.1035V8.13793H41.2414V4Z" fill="black"/>
<path d="M45.3793 4H41.2414V8.13793H45.3793V4Z" fill="black"/>
<path d="M49.5172 4H45.3793V8.13793H49.5172V4Z" fill="black"/>
<path d="M57.7931 4H53.6552V8.13793H57.7931V4Z" fill="black"/>
<path d="M61.931 4H57.7931V8.13793H61.931V4Z" fill="black"/>
<path d="M74.3448 4H70.2069V8.13793H74.3448V4Z" fill="black"/>
<path d="M78.4828 4H74.3448V8.13793H78.4828V4Z" fill="black"/>
<path d="M82.6207 4H78.4828V8.13793H82.6207V4Z" fill="black"/>
<path d="M86.7586 4H82.6207V8.13793H86.7586V4Z" fill="black"/>
<path d="M90.8966 4H86.7586V8.13793H90.8966V4Z" fill="black"/>
<path d="M99.1724 4H95.0345V8.13793H99.1724V4Z" fill="black"/>
<path d="M103.31 4H99.1724V8.13793H103.31V4Z" fill="black"/>
<path d="M107.448 4H103.31V8.13793H107.448V4Z" fill="black"/>
<path d="M111.586 4H107.448V8.13793H111.586V4Z" fill="black"/>
<path d="M115.724 4H111.586V8.13793H115.724V4Z" fill="black"/>
<path d="M119.862 4H115.724V8.13793H119.862V4Z" fill="black"/>
<path d="M124 4H119.862V8.13793H124V4Z" fill="black"/>
<path d="M8.13793 8.13793H4V12.2759H8.13793V8.13793Z" fill="black"/>
<path d="M32.9655 8.13793H28.8276V12.2759H32.9655V8.13793Z" fill="black"/>
<path d="M49.5172 8.13793H45.3793V12.2759H49.5172V8.13793Z" fill="black"/>
<path d="M57.7931 8.13793H53.6552V12.2759H57.7931V8.13793Z" fill="black"/>
<path d="M61.931 8.13793H57.7931V12.2759H61.931V8.13793Z" fill="black"/>
<path d="M66.069 8.13793H61.931V12.2759H66.069V8.13793Z" fill="black"/>
<path d="M74.3448 8.13793H70.2069V12.2759H74.3448V8.13793Z" fill="black"/>
<path d="M78.4828 8.13793H74.3448V12.2759H78.4828V8.13793Z" fill="black"/>
<path d="M82.6207 8.13793H78.4828V12.2759H82.6207V8.13793Z" fill="black"/>
<path d="M86.7586 8.13793H82.6207V12.2759H86.7586V8.13793Z" fill="black"/>
<path d="M90.8966 8.13793H86.7586V12.2759H90.8966V8.13793Z" fill="black"/>
<path d="M99.1724 8.13793H95.0345V12.2759H99.1724V8.13793Z" fill="black"/>
<path d="M124 8.13793H119.862V12.2759H124V8.13793Z" fill="black"/>
<path d="M8.13793 12.2759H4V16.4138H8.13793V12.2759Z" fill="black"/>
<path d="M16.4138 12.2759H12.2759V16.4138H16.4138V12.2759Z" fill="black"/>
<path d="M20.5517 12.2759H16.4138V16.4138H20.5517V12.2759Z" fill="black"/>
<path d="M24.6897 12.2759H20.5517V16.4138H24.6897V12.2759Z" fill="black"/>
<path d="M32.9655 12.2759H28.8276V16.4138H32.9655V12.2759Z" fill="black"/>
<path d="M45.3793 12.2759H41.2414V16.4138H45.3793V12.2759Z" fill="black"/>
<path d="M53.6552 12.2759H49.5172V16.4138H53.6552V12.2759Z" fill="black"/>
<path d="M57.7931 12.2759H53.6552V16.4138H57.7931V12.2759Z" fill="black"/>
<path d="M70.2069 12.2759H66.069V16.4138H70.2069V12.2759Z" fill="black"/>
<path d="M74.3448 12.2759H70.2069V16.4138H74.3448V12.2759Z" fill="black"/>
<path d="M78.4828 12.2759H74.3448V16.4138H78.4828V12.2759Z" fill="black"/>
<path d="M82.6207 12.2759H78.4828V16.4138H82.6207V12.2759Z" fill="black"/>
<path d="M99.1724 12.2759H95.0345V16.4138H99.1724V12.2759Z" fill="black"/>
<path d="M107.448 12.2759H103.31V16.4138H107.448V12.2759Z" fill="black"/>
<path d="M111.586 12.2759H107.448V16.4138H111.586V12.2759Z" fill="black"/>
<path d="M115.724 12.2759H111.586V16.4138H115.724V12.2759Z" fill="black"/>
<path d="M124 12.2759H119.862V16.4138H124V12.2759Z" fill="black"/>
<path d="M8.13793 16.4138H4V20.5517H8.13793V16.4138Z" fill="black"/>
<path d="M16.4138 16.4138H12.2759V20.5517H16.4138V16.4138Z" fill="black"/>
<path d="M20.5517 16.4138H16.4138V20.5517H20.5517V16.4138Z" fill="black"/>
<path d="M24.6897 16.4138H20.5517V20.5517H24.6897V16.4138Z" fill="black"/>
<path d="M32.9655 16.4138H28.8276V20.5517H32.9655V16.4138Z" fill="black"/>
<path d="M41.2414 16.4138H37.1035V20.5517H41.2414V16.4138Z" fill="black"/>
<path d="M45.3793 16.4138H41.2414V20.5517H45.3793V16.4138Z" fill="black"/>
<path d="M49.5172 16.4138H45.3793V20.5517H49.5172V16.4138Z" fill="black"/>
<path d="M61.931 16.4138H57.7931V20.5517H61.931V16.4138Z" fill="black"/>
<path d="M70.2069 16.4138H66.069V20.5517H70.2069V16.4138Z" fill="black"/>
<path d="M82.6207 16.4138H78.4828V20.5517H82.6207V16.4138Z" fill="black"/>
<path d="M86.7586 16.4138H82.6207V20.5517H86.7586V16.4138Z" fill="black"/>
<path d="M99.1724 16.4138H95.0345V20.5517H99.1724V16.4138Z" fill="black"/>
<path d="M107.448 16.4138H103.31V20.5517H107.448V16.4138Z" fill="black"/>
<path d="M111.586 16.4138H107.448V20.5517H111.586V16.4138Z" fill="black"/>
<path d="M115.724 16.4138H111.586V20.5517H115.724V16.4138Z" fill="black"/>
<path d="M124 16.4138H119.862V20.5517H124V16.4138Z" fill="black"/>
<path d="M8.13793 20.5517H4V24.6897H8.13793V20.5517Z" fill="black"/>
<path d="M16.4138 20.5517H12.2759V24.6897H16.4138V20.5517Z" fill="black"/>
<path d="M20.5517 20.5517H16.4138V24.6897H20.5517V20.5517Z" fill="black"/>
<path d="M24.6897 20.5517H20.5517V24.6897H24.6897V20.5517Z" fill="black"/>
<path d="M32.9655 20.5517H28.8276V24.6897H32.9655V20.5517Z" fill="black"/>
<path d="M41.2414 20.5517H37.1035V24.6897H41.2414V20.5517Z" fill="black"/>
<path d="M45.3793 20.5517H41.2414V24.6897H45.3793V20.5517Z" fill="black"/>
<path d="M49.5172 20.5517H45.3793V24.6897H49.5172V20.5517Z" fill="black"/>
<path d="M57.7931 20.5517H53.6552V24.6897H57.7931V20.5517Z" fill="black"/>
<path d="M70.2069 20.5517H66.069V24.6897H70.2069V20.5517Z" fill="black"/>
<path d="M78.4828 20.5517H74.3448V24.6897H78.4828V20.5517Z" fill="black"/>
<path d="M82.6207 20.5517H78.4828V24.6897H82.6207V20.5517Z" fill="black"/>
<path d="M99.1724 20.5517H95.0345V24.6897H99.1724V20.5517Z" fill="black"/>
<path d="M107.448 20.5517H103.31V24.6897H107.448V20.5517Z" fill="black"/>
<path d="M111.586 20.5517H107.448V24.6897H111.586V20.5517Z" fill="black"/>
<path d="M115.724 20.5517H111.586V24.6897H115.724V20.5517Z" fill="black"/>
<path d="M124 20.5517H119.862V24.6897H124V20.5517Z" fill="black"/>
<path d="M8.13793 24.6897H4V28.8276H8.13793V24.6897Z" fill="black"/>
<path d="M32.9655 24.6897H28.8276V28.8276H32.9655V24.6897Z" fill="black"/>
<path d="M41.2414 24.6897H37.1035V28.8276H41.2414V24.6897Z" fill="black"/>
<path d="M61.931 24.6897H57.7931V28.8276H61.931V24.6897Z" fill="black"/>
<path d="M78.4828 24.6897H74.3448V28.8276H78.4828V24.6897Z" fill="black"/>
<path d="M99.1724 24.6897H95.0345V28.8276H99.1724V24.6897Z" fill="black"/>
<path d="M124 24.6897H119.862V28.8276H124V24.6897Z" fill="black"/>
<path d="M8.13793 28.8276H4V32.9655H8.13793V28.8276Z" fill="black"/>
<path d="M12.2759 28.8276H8.13793V32.9655H12.2759V28.8276Z" fill="black"/>
<path d="M16.4138 28.8276H12.2759V32.9655H16.4138V28.8276Z" fill="black"/>
<path d="M20.5517 28.8276H16.4138V32.9655H20.5517V28.8276Z" fill="black"/>
<path d="M24.6897 28.8276H20.5517V32.9655H24.6897V28.8276Z" fill="black"/>
<path d="M28.8276 28.8276H24.6897V32.9655H28.8276V28.8276Z" fill="black"/>
<path d="M32.9655 28.8276H28.8276V32.9655H32.9655V28.8276Z" fill="black"/>
<path d="M41.2414 28.8276H37.1035V32.9655H41.2414V28.8276Z" fill="black"/>
<path d="M49.5172 28.8276H45.3793V32.9655H49.5172V28.8276Z" fill="black"/>
<path d="M57.7931 28.8276H53.6552V32.9655H57.7931V28.8276Z" fill="black"/>
<path d="M66.069 28.8276H61.931V32.9655H66.069V28.8276Z" fill="black"/>
<path d="M74.3448 28.8276H70.2069V32.9655H74.3448V28.8276Z" fill="black"/>
<path d="M82.6207 28.8276H78.4828V32.9655H82.6207V28.8276Z" fill="black"/>
<path d="M90.8966 28.8276H86.7586V32.9655H90.8966V28.8276Z" fill="black"/>
<path d="M99.1724 28.8276H95.0345V32.9655H99.1724V28.8276Z" fill="black"/>
<path d="M103.31 28.8276H99.1724V32.9655H103.31V28.8276Z" fill="black"/>
<path d="M107.448 28.8276H103.31V32.9655H107.448V28.8276Z" fill="black"/>
<path d="M111.586 28.8276H107.448V32.9655H111.586V28.8276Z" fill="black"/>
<path d="M115.724 28.8276H111.586V32.9655H115.724V28.8276Z" fill="black"/>
<path d="M119.862 28.8276H115.724V32.9655H119.862V28.8276Z" fill="black"/>
<path d="M124 28.8276H119.862V32.9655H124V28.8276Z" fill="black"/>
<path d="M41.2414 32.9655H37.1035V37.1035H41.2414V32.9655Z" fill="black"/>
<path d="M45.3793 32.9655H41.2414V37.1035H45.3793V32.9655Z" fill="black"/>
<path d="M53.6552 32.9655H49.5172V37.1035H53.6552V32.9655Z" fill="black"/>
<path d="M70.2069 32.9655H66.069V37.1035H70.2069V32.9655Z" fill="black"/>
<path d="M78.4828 32.9655H74.3448V37.1035H78.4828V32.9655Z" fill="black"/>
<path d="M8.13793 37.1035H4V41.2414H8.13793V37.1035Z" fill="black"/>
<path d="M12.2759 37.1035H8.13793V41.2414H12.2759V37.1035Z" fill="black"/>
<path d="M16.4138 37.1035H12.2759V41.2414H16.4138V37.1035Z" fill="black"/>
<path d="M24.6897 37.1035H20.5517V41.2414H24.6897V37.1035Z" fill="black"/>
<path d="M32.9655 37.1035H28.8276V41.2414H32.9655V37.1035Z" fill="black"/>
<path d="M41.2414 37.1035H37.1035V41.2414H41.2414V37.1035Z" fill="black"/>
<path d="M45.3793 37.1035H41.2414V41.2414H45.3793V37.1035Z" fill="black"/>
<path d="M53.6552 37.1035H49.5172V41.2414H53.6552V37.1035Z" fill="black"/>
<path d="M70.2069 37.1035H66.069V41.2414H70.2069V37.1035Z" fill="black"/>
<path d="M74.3448 37.1035H70.2069V41.2414H74.3448V37.1035Z" fill="black"/>
<path d="M82.6207 37.1035H78.4828V41.2414H82.6207V37.1035Z" fill="black"/>
<path d="M90.8966 37.1035H86.7586V41.2414H90.8966V37.1035Z" fill="black"/>
<path d="M95.0345 37.1035H90.8966V41.2414H95.0345V37.1035Z" fill="black"/>
<path d="M99.1724 37.1035H95.0345V41.2414H99.1724V37.1035Z" fill="black"/>
<path d="M103.31 37.1035H99.1724V41.2414H103.31V37.1035Z" fill="black"/>
<path d="M107.448 37.1035H103.31V41.2414H107.448V37.1035Z" fill="black"/>
<path d="M111.586 37.1035H107.448V41.2414H111.586V37.1035Z" fill="black"/>
<path d="M124 37.1035H119.862V41.2414H124V37.1035Z" fill="black"/>
<path d="M8.13793 41.2414H4V45.3793H8.13793V41.2414Z" fill="black"/>
<path d="M12.2759 41.2414H8.13793V45.3793H12.2759V41.2414Z" fill="black"/>
<path d="M20.5517 41.2414H16.4138V45.3793H20.5517V41.2414Z" fill="black"/>
<path d="M24.6897 41.2414H20.5517V45.3793H24.6897V41.2414Z" fill="black"/>
<path d="M37.1035 41.2414H32.9655V45.3793H37.1035V41.2414Z" fill="black"/>
<path d="M41.2414 41.2414H37.1035V45.3793H41.2414V41.2414Z" fill="black"/>
<path d="M45.3793 41.2414H41.2414V45.3793H45.3793V41.2414Z" fill="black"/>
<path d="M53.6552 41.2414H49.5172V45.3793H53.6552V41.2414Z" fill="black"/>
<path d="M61.931 41.2414H57.7931V45.3793H61.931V41.2414Z" fill="black"/>
<path d="M74.3448 41.2414H70.2069V45.3793H74.3448V41.2414Z" fill="black"/>
<path d="M82.6207 41.2414H78.4828V45.3793H82.6207V41.2414Z" fill="black"/>
<path d="M86.7586 41.2414H82.6207V45.3793H86.7586V41.2414Z" fill="black"/>
<path d="M95.0345 41.2414H90.8966V45.3793H95.0345V41.2414Z" fill="black"/>
<path d="M99.1724 41.2414H95.0345V45.3793H99.1724V41.2414Z" fill="black"/>
<path d="M103.31 41.2414H99.1724V45.3793H103.31V41.2414Z" fill="black"/>
<path d="M111.586 41.2414H107.448V45.3793H111.586V41.2414Z" fill="black"/>
<path d="M115.724 41.2414H111.586V45.3793H115.724V41.2414Z" fill="black"/>
<path d="M119.862 41.2414H115.724V45.3793H119.862V41.2414Z" fill="black"/>
<path d="M124 41.2414H119.862V45.3793H124V41.2414Z" fill="black"/>
<path d="M8.13793 45.3793H4V49.5172H8.13793V45.3793Z" fill="black"/>
<path d="M16.4138 45.3793H12.2759V49.5172H16.4138V45.3793Z" fill="black"/>
<path d="M24.6897 45.3793H20.5517V49.5172H24.6897V45.3793Z" fill="black"/>
<path d="M32.9655 45.3793H28.8276V49.5172H32.9655V45.3793Z" fill="black"/>
<path d="M37.1035 45.3793H32.9655V49.5172H37.1035V45.3793Z" fill="black"/>
<path d="M45.3793 45.3793H41.2414V49.5172H45.3793V45.3793Z" fill="black"/>
<path d="M57.7931 45.3793H53.6552V49.5172H57.7931V45.3793Z" fill="black"/>
<path d="M61.931 45.3793H57.7931V49.5172H61.931V45.3793Z" fill="black"/>
<path d="M70.2069 45.3793H66.069V49.5172H70.2069V45.3793Z" fill="black"/>
<path d="M74.3448 45.3793H70.2069V49.5172H74.3448V45.3793Z" fill="black"/>
<path d="M78.4828 45.3793H74.3448V49.5172H78.4828V45.3793Z" fill="black"/>
<path d="M82.6207 45.3793H78.4828V49.5172H82.6207V45.3793Z" fill="black"/>
<path d="M86.7586 45.3793H82.6207V49.5172H86.7586V45.3793Z" fill="black"/>
<path d="M90.8966 45.3793H86.7586V49.5172H90.8966V45.3793Z" fill="black"/>
<path d="M107.448 45.3793H103.31V49.5172H107.448V45.3793Z" fill="black"/>
<path d="M111.586 45.3793H107.448V49.5172H111.586V45.3793Z" fill="black"/>
<path d="M115.724 45.3793H111.586V49.5172H115.724V45.3793Z" fill="black"/>
<path d="M8.13793 49.5172H4V53.6552H8.13793V49.5172Z" fill="black"/>
<path d="M20.5517 49.5172H16.4138V53.6552H20.5517V49.5172Z" fill="black"/>
<path d="M41.2414 49.5172H37.1035V53.6552H41.2414V49.5172Z" fill="black"/>
<path d="M45.3793 49.5172H41.2414V53.6552H45.3793V49.5172Z" fill="black"/>
<path d="M49.5172 49.5172H45.3793V53.6552H49.5172V49.5172Z" fill="black"/>
<path d="M57.7931 49.5172H53.6552V53.6552H57.7931V49.5172Z" fill="black"/>
<path d="M66.069 49.5172H61.931V53.6552H66.069V49.5172Z" fill="black"/>
<path d="M78.4828 49.5172H74.3448V53.6552H78.4828V49.5172Z" fill="black"/>
<path d="M82.6207 49.5172H78.4828V53.6552H82.6207V49.5172Z" fill="black"/>
<path d="M86.7586 49.5172H82.6207V53.6552H86.7586V49.5172Z" fill="black"/>
<path d="M90.8966 49.5172H86.7586V53.6552H90.8966V49.5172Z" fill="black"/>
<path d="M99.1724 49.5172H95.0345V53.6552H99.1724V49.5172Z" fill="black"/>
<path d="M103.31 49.5172H99.1724V53.6552H103.31V49.5172Z" fill="black"/>
<path d="M111.586 49.5172H107.448V53.6552H111.586V49.5172Z" fill="black"/>
<path d="M115.724 49.5172H111.586V53.6552H115.724V49.5172Z" fill="black"/>
<path d="M119.862 49.5172H115.724V53.6552H119.862V49.5172Z" fill="black"/>
<path d="M20.5517 53.6552H16.4138V57.7931H20.5517V53.6552Z" fill="black"/>
<path d="M24.6897 53.6552H20.5517V57.7931H24.6897V53.6552Z" fill="black"/>
<path d="M28.8276 53.6552H24.6897V57.7931H28.8276V53.6552Z" fill="black"/>
<path d="M32.9655 53.6552H28.8276V57.7931H32.9655V53.6552Z" fill="black"/>
<path d="M41.2414 53.6552H37.1035V57.7931H41.2414V53.6552Z" fill="black"/>
<path d="M45.3793 53.6552H41.2414V57.7931H45.3793V53.6552Z" fill="black"/>
<path d="M49.5172 53.6552H45.3793V57.7931H49.5172V53.6552Z" fill="black"/>
<path d="M53.6552 53.6552H49.5172V57.7931H53.6552V53.6552Z" fill="black"/>
<path d="M66.069 53.6552H61.931V57.7931H66.069V53.6552Z" fill="black"/>
<path d="M70.2069 53.6552H66.069V57.7931H70.2069V53.6552Z" fill="black"/>
<path d="M74.3448 53.6552H70.2069V57.7931H74.3448V53.6552Z" fill="black"/>
<path d="M82.6207 53.6552H78.4828V57.7931H82.6207V53.6552Z" fill="black"/>
<path d="M86.7586 53.6552H82.6207V57.7931H86.7586V53.6552Z" fill="black"/>
<path d="M95.0345 53.6552H90.8966V57.7931H95.0345V53.6552Z" fill="black"/>
<path d="M111.586 53.6552H107.448V57.7931H111.586V53.6552Z" fill="black"/>
<path d="M115.724 53.6552H111.586V57.7931H115.724V53.6552Z" fill="black"/>
<path d="M8.13793 57.7931H4V61.931H8.13793V57.7931Z" fill="black"/>
<path d="M12.2759 57.7931H8.13793V61.931H12.2759V57.7931Z" fill="black"/>
<path d="M16.4138 57.7931H12.2759V61.931H16.4138V57.7931Z" fill="black"/>
<path d="M24.6897 57.7931H20.5517V61.931H24.6897V57.7931Z" fill="black"/>
<path d="M28.8276 57.7931H24.6897V61.931H28.8276V57.7931Z" fill="black"/>
<path d="M41.2414 57.7931H37.1035V61.931H41.2414V57.7931Z" fill="black"/>
<path d="M57.7931 57.7931H53.6552V61.931H57.7931V57.7931Z" fill="black"/>
<path d="M70.2069 57.7931H66.069V61.931H70.2069V57.7931Z" fill="black"/>
<path d="M82.6207 57.7931H78.4828V61.931H82.6207V57.7931Z" fill="black"/>
<path d="M86.7586 57.7931H82.6207V61.931H86.7586V57.7931Z" fill="black"/>
<path d="M90.8966 57.7931H86.7586V61.931H90.8966V57.7931Z" fill="black"/>
<path d="M95.0345 57.7931H90.8966V61.931H95.0345V57.7931Z" fill="black"/>
<path d="M99.1724 57.7931H95.0345V61.931H99.1724V57.7931Z" fill="black"/>
<path d="M103.31 57.7931H99.1724V61.931H103.31V57.7931Z" fill="black"/>
<path d="M107.448 57.7931H103.31V61.931H107.448V57.7931Z" fill="black"/>
<path d="M8.13793 61.931H4V66.069H8.13793V61.931Z" fill="black"/>
<path d="M12.2759 61.931H8.13793V66.069H12.2759V61.931Z" fill="black"/>
<path d="M16.4138 61.931H12.2759V66.069H16.4138V61.931Z" fill="black"/>
<path d="M20.5517 61.931H16.4138V66.069H20.5517V61.931Z" fill="black"/>
<path d="M28.8276 61.931H24.6897V66.069H28.8276V61.931Z" fill="black"/>
<path d="M32.9655 61.931H28.8276V66.069H32.9655V61.931Z" fill="black"/>
<path d="M37.1035 61.931H32.9655V66.069H37.1035V61.931Z" fill="black"/>
<path d="M41.2414 61.931H37.1035V66.069H41.2414V61.931Z" fill="black"/>
<path d="M45.3793 61.931H41.2414V66.069H45.3793V61.931Z" fill="black"/>
<path d="M49.5172 61.931H45.3793V66.069H49.5172V61.931Z" fill="black"/>
<path d="M53.6552 61.931H49.5172V66.069H53.6552V61.931Z" fill="black"/>
<path d="M57.7931 61.931H53.6552V66.069H57.7931V61.931Z" fill="black"/>
<path d="M66.069 61.931H61.931V66.069H66.069V61.931Z" fill="black"/>
<path d="M70.2069 61.931H66.069V66.069H70.2069V61.931Z" fill="black"/>
<path d="M82.6207 61.931H78.4828V66.069H82.6207V61.931Z" fill="black"/>
<path d="M111.586 61.931H107.448V66.069H111.586V61.931Z" fill="black"/>
<path d="M115.724 61.931H111.586V66.069H115.724V61.931Z" fill="black"/>
<path d="M124 61.931H119.862V66.069H124V61.931Z" fill="black"/>
<path d="M8.13793 66.069H4V70.2069H8.13793V66.069Z" fill="black"/>
<path d="M12.2759 66.069H8.13793V70.2069H12.2759V66.069Z" fill="black"/>
<path d="M20.5517 66.069H16.4138V70.2069H20.5517V66.069Z" fill="black"/>
<path d="M24.6897 66.069H20.5517V70.2069H24.6897V66.069Z" fill="black"/>
<path d="M41.2414 66.069H37.1035V70.2069H41.2414V66.069Z" fill="black"/>
<path d="M53.6552 66.069H49.5172V70.2069H53.6552V66.069Z" fill="black"/>
<path d="M66.069 66.069H61.931V70.2069H66.069V66.069Z" fill="black"/>
<path d="M74.3448 66.069H70.2069V70.2069H74.3448V66.069Z" fill="black"/>
<path d="M86.7586 66.069H82.6207V70.2069H86.7586V66.069Z" fill="black"/>
<path d="M99.1724 66.069H95.0345V70.2069H99.1724V66.069Z" fill="black"/>
<path d="M107.448 66.069H103.31V70.2069H107.448V66.069Z" fill="black"/>
<path d="M119.862 66.069H115.724V70.2069H119.862V66.069Z" fill="black"/>
<path d="M32.9655 70.2069H28.8276V74.3448H32.9655V70.2069Z" fill="black"/>
<path d="M41.2414 70.2069H37.1035V74.3448H41.2414V70.2069Z" fill="black"/>
<path d="M70.2069 70.2069H66.069V74.3448H70.2069V70.2069Z" fill="black"/>
<path d="M82.6207 70.2069H78.4828V74.3448H82.6207V70.2069Z" fill="black"/>
<path d="M86.7586 70.2069H82.6207V74.3448H86.7586V70.2069Z" fill="black"/>
<path d="M95.0345 70.2069H90.8966V74.3448H95.0345V70.2069Z" fill="black"/>
<path d="M99.1724 70.2069H95.0345V74.3448H99.1724V70.2069Z" fill="black"/>
<path d="M103.31 70.2069H99.1724V74.3448H103.31V70.2069Z" fill="black"/>
<path d="M107.448 70.2069H103.31V74.3448H107.448V70.2069Z" fill="black"/>
<path d="M111.586 70.2069H107.448V74.3448H111.586V70.2069Z" fill="black"/>
<path d="M115.724 70.2069H111.586V74.3448H115.724V70.2069Z" fill="black"/>
<path d="M124 70.2069H119.862V74.3448H124V70.2069Z" fill="black"/>
<path d="M12.2759 74.3448H8.13793V78.4828H12.2759V74.3448Z" fill="black"/>
<path d="M20.5517 74.3448H16.4138V78.4828H20.5517V74.3448Z" fill="black"/>
<path d="M28.8276 74.3448H24.6897V78.4828H28.8276V74.3448Z" fill="black"/>
<path d="M41.2414 74.3448H37.1035V78.4828H41.2414V74.3448Z" fill="black"/>
<path d="M45.3793 74.3448H41.2414V78.4828H45.3793V74.3448Z" fill="black"/>
<path d="M53.6552 74.3448H49.5172V78.4828H53.6552V74.3448Z" fill="black"/>
<path d="M57.7931 74.3448H53.6552V78.4828H57.7931V74.3448Z" fill="black"/>
<path d="M61.931 74.3448H57.7931V78.4828H61.931V74.3448Z" fill="black"/>
<path d="M66.069 74.3448H61.931V78.4828H66.069V74.3448Z" fill="black"/>
<path d="M70.2069 74.3448H66.069V78.4828H70.2069V74.3448Z" fill="black"/>
<path d="M74.3448 74.3448H70.2069V78.4828H74.3448V74.3448Z" fill="black"/>
<path d="M78.4828 74.3448H74.3448V78.4828H78.4828V74.3448Z" fill="black"/>
<path d="M82.6207 74.3448H78.4828V78.4828H82.6207V74.3448Z" fill="black"/>
<path d="M95.0345 74.3448H90.8966V78.4828H95.0345V74.3448Z" fill="black"/>
<path d="M107.448 74.3448H103.31V78.4828H107.448V74.3448Z" fill="black"/>
<path d="M124 74.3448H119.862V78.4828H124V74.3448Z" fill="black"/>
<path d="M8.13793 78.4828H4V82.6207H8.13793V78.4828Z" fill="black"/>
<path d="M24.6897 78.4828H20.5517V82.6207H24.6897V78.4828Z" fill="black"/>
<path d="M32.9655 78.4828H28.8276V82.6207H32.9655V78.4828Z" fill="black"/>
<path d="M41.2414 78.4828H37.1035V82.6207H41.2414V78.4828Z" fill="black"/>
<path d="M45.3793 78.4828H41.2414V82.6207H45.3793V78.4828Z" fill="black"/>
<path d="M57.7931 78.4828H53.6552V82.6207H57.7931V78.4828Z" fill="black"/>
<path d="M61.931 78.4828H57.7931V82.6207H61.931V78.4828Z" fill="black"/>
<path d="M70.2069 78.4828H66.069V82.6207H70.2069V78.4828Z" fill="black"/>
<path d="M78.4828 78.4828H74.3448V82.6207H78.4828V78.4828Z" fill="black"/>
<path d="M82.6207 78.4828H78.4828V82.6207H82.6207V78.4828Z" fill="black"/>
<path d="M90.8966 78.4828H86.7586V82.6207H90.8966V78.4828Z" fill="black"/>
<path d="M103.31 78.4828H99.1724V82.6207H103.31V78.4828Z" fill="black"/>
<path d="M111.586 78.4828H107.448V82.6207H111.586V78.4828Z" fill="black"/>
<path d="M115.724 78.4828H111.586V82.6207H115.724V78.4828Z" fill="black"/>
<path d="M124 78.4828H119.862V82.6207H124V78.4828Z" fill="black"/>
<path d="M12.2759 82.6207H8.13793V86.7586H12.2759V82.6207Z" fill="black"/>
<path d="M24.6897 82.6207H20.5517V86.7586H24.6897V82.6207Z" fill="black"/>
<path d="M45.3793 82.6207H41.2414V86.7586H45.3793V82.6207Z" fill="black"/>
<path d="M66.069 82.6207H61.931V86.7586H66.069V82.6207Z" fill="black"/>
<path d="M70.2069 82.6207H66.069V86.7586H70.2069V82.6207Z" fill="black"/>
<path d="M78.4828 82.6207H74.3448V86.7586H78.4828V82.6207Z" fill="black"/>
<path d="M82.6207 82.6207H78.4828V86.7586H82.6207V82.6207Z" fill="black"/>
<path d="M86.7586 82.6207H82.6207V86.7586H86.7586V82.6207Z" fill="black"/>
<path d="M90.8966 82.6207H86.7586V86.7586H90.8966V82.6207Z" fill="black"/>
<path d="M99.1724 82.6207H95.0345V86.7586H99.1724V82.6207Z" fill="black"/>
<path d="M103.31 82.6207H99.1724V86.7586H103.31V82.6207Z" fill="black"/>
<path d="M107.448 82.6207H103.31V86.7586H107.448V82.6207Z" fill="black"/>
<path d="M111.586 82.6207H107.448V86.7586H111.586V82.6207Z" fill="black"/>
<path d="M115.724 82.6207H111.586V86.7586H115.724V82.6207Z" fill="black"/>
<path d="M119.862 82.6207H115.724V86.7586H119.862V82.6207Z" fill="black"/>
<path d="M124 82.6207H119.862V86.7586H124V82.6207Z" fill="black"/>
<path d="M20.5517 86.7586H16.4138V90.8966H20.5517V86.7586Z" fill="black"/>
<path d="M32.9655 86.7586H28.8276V90.8966H32.9655V86.7586Z" fill="black"/>
<path d="M45.3793 86.7586H41.2414V90.8966H45.3793V86.7586Z" fill="black"/>
<path d="M57.7931 86.7586H53.6552V90.8966H57.7931V86.7586Z" fill="black"/>
<path d="M66.069 86.7586H61.931V90.8966H66.069V86.7586Z" fill="black"/>
<path d="M74.3448 86.7586H70.2069V90.8966H74.3448V86.7586Z" fill="black"/>
<path d="M78.4828 86.7586H74.3448V90.8966H78.4828V86.7586Z" fill="black"/>
<path d="M90.8966 86.7586H86.7586V90.8966H90.8966V86.7586Z" fill="black"/>
<path d="M95.0345 86.7586H90.8966V90.8966H95.0345V86.7586Z" fill="black"/>
<path d="M99.1724 86.7586H95.0345V90.8966H99.1724V86.7586Z" fill="black"/>
<path d="M103.31 86.7586H99.1724V90.8966H103.31V86.7586Z" fill="black"/>
<path d="M107.448 86.7586H103.31V90.8966H107.448V86.7586Z" fill="black"/>
<path d="M111.586 86.7586H107.448V90.8966H111.586V86.7586Z" fill="black"/>
<path d="M124 86.7586H119.862V90.8966H124V86.7586Z" fill="black"/>
<path d="M41.2414 90.8966H37.1035V95.0345H41.2414V90.8966Z" fill="black"/>
<path d="M45.3793 90.8966H41.2414V95.0345H45.3793V90.8966Z" fill="black"/>
<path d="M49.5172 90.8966H45.3793V95.0345H49.5172V90.8966Z" fill="black"/>
<path d="M70.2069 90.8966H66.069V95.0345H70.2069V90.8966Z" fill="black"/>
<path d="M86.7586 90.8966H82.6207V95.0345H86.7586V90.8966Z" fill="black"/>
<path d="M90.8966 90.8966H86.7586V95.0345H90.8966V90.8966Z" fill="black"/>
<path d="M107.448 90.8966H103.31V95.0345H107.448V90.8966Z" fill="black"/>
<path d="M111.586 90.8966H107.448V95.0345H111.586V90.8966Z" fill="black"/>
<path d="M115.724 90.8966H111.586V95.0345H115.724V90.8966Z" fill="black"/>
<path d="M8.13793 95.0345H4V99.1724H8.13793V95.0345Z" fill="black"/>
<path d="M12.2759 95.0345H8.13793V99.1724H12.2759V95.0345Z" fill="black"/>
<path d="M16.4138 95.0345H12.2759V99.1724H16.4138V95.0345Z" fill="black"/>
<path d="M20.5517 95.0345H16.4138V99.1724H20.5517V95.0345Z" fill="black"/>
<path d="M24.6897 95.0345H20.5517V99.1724H24.6897V95.0345Z" fill="black"/>
<path d="M28.8276 95.0345H24.6897V99.1724H28.8276V95.0345Z" fill="black"/>
<path d="M32.9655 95.0345H28.8276V99.1724H32.9655V95.0345Z" fill="black"/>
<path d="M53.6552 95.0345H49.5172V99.1724H53.6552V95.0345Z" fill="black"/>
<path d="M57.7931 95.0345H53.6552V99.1724H57.7931V95.0345Z" fill="black"/>
<path d="M61.931 95.0345H57.7931V99.1724H61.931V95.0345Z" fill="black"/>
<path d="M66.069 95.0345H61.931V99.1724H66.069V95.0345Z" fill="black"/>
<path d="M70.2069 95.0345H66.069V99.1724H70.2069V95.0345Z" fill="black"/>
<path d="M82.6207 95.0345H78.4828V99.1724H82.6207V95.0345Z" fill="black"/>
<path d="M86.7586 95.0345H82.6207V99.1724H86.7586V95.0345Z" fill="black"/>
<path d="M90.8966 95.0345H86.7586V99.1724H90.8966V95.0345Z" fill="black"/>
<path d="M99.1724 95.0345H95.0345V99.1724H99.1724V95.0345Z" fill="black"/>
<path d="M107.448 95.0345H103.31V99.1724H107.448V95.0345Z" fill="black"/>
<path d="M8.13793 99.1724H4V103.31H8.13793V99.1724Z" fill="black"/>
<path d="M32.9655 99.1724H28.8276V103.31H32.9655V99.1724Z" fill="black"/>
<path d="M45.3793 99.1724H41.2414V103.31H45.3793V99.1724Z" fill="black"/>
<path d="M49.5172 99.1724H45.3793V103.31H49.5172V99.1724Z" fill="black"/>
<path d="M57.7931 99.1724H53.6552V103.31H57.7931V99.1724Z" fill="black"/>
<path d="M66.069 99.1724H61.931V103.31H66.069V99.1724Z" fill="black"/>
<path d="M70.2069 99.1724H66.069V103.31H70.2069V99.1724Z" fill="black"/>
<path d="M86.7586 99.1724H82.6207V103.31H86.7586V99.1724Z" fill="black"/>
<path d="M90.8966 99.1724H86.7586V103.31H90.8966V99.1724Z" fill="black"/>
<path d="M107.448 99.1724H103.31V103.31H107.448V99.1724Z" fill="black"/>
<path d="M111.586 99.1724H107.448V103.31H111.586V99.1724Z" fill="black"/>
<path d="M115.724 99.1724H111.586V103.31H115.724V99.1724Z" fill="black"/>
<path d="M119.862 99.1724H115.724V103.31H119.862V99.1724Z" fill="black"/>
<path d="M8.13793 103.31H4V107.448H8.13793V103.31Z" fill="black"/>
<path d="M16.4138 103.31H12.2759V107.448H16.4138V103.31Z" fill="black"/>
<path d="M20.5517 103.31H16.4138V107.448H20.5517V103.31Z" fill="black"/>
<path d="M24.6897 103.31H20.5517V107.448H24.6897V103.31Z" fill="black"/>
<path d="M32.9655 103.31H28.8276V107.448H32.9655V103.31Z" fill="black"/>
<path d="M41.2414 103.31H37.1035V107.448H41.2414V103.31Z" fill="black"/>
<path d="M45.3793 103.31H41.2414V107.448H45.3793V103.31Z" fill="black"/>
<path d="M61.931 103.31H57.7931V107.448H61.931V103.31Z" fill="black"/>
<path d="M70.2069 103.31H66.069V107.448H70.2069V103.31Z" fill="black"/>
<path d="M78.4828 103.31H74.3448V107.448H78.4828V103.31Z" fill="black"/>
<path d="M86.7586 103.31H82.6207V107.448H86.7586V103.31Z" fill="black"/>
<path d="M90.8966 103.31H86.7586V107.448H90.8966V103.31Z" fill="black"/>
<path d="M95.0345 103.31H90.8966V107.448H95.0345V103.31Z" fill="black"/>
<path d="M99.1724 103.31H95.0345V107.448H99.1724V103.31Z" fill="black"/>
<path d="M103.31 103.31H99.1724V107.448H103.31V103.31Z" fill="black"/>
<path d="M107.448 103.31H103.31V107.448H107.448V103.31Z" fill="black"/>
<path d="M115.724 103.31H111.586V107.448H115.724V103.31Z" fill="black"/>
<path d="M124 103.31H119.862V107.448H124V103.31Z" fill="black"/>
<path d="M8.13793 107.448H4V111.586H8.13793V107.448Z" fill="black"/>
<path d="M16.4138 107.448H12.2759V111.586H16.4138V107.448Z" fill="black"/>
<path d="M20.5517 107.448H16.4138V111.586H20.5517V107.448Z" fill="black"/>
<path d="M24.6897 107.448H20.5517V111.586H24.6897V107.448Z" fill="black"/>
<path d="M32.9655 107.448H28.8276V111.586H32.9655V107.448Z" fill="black"/>
<path d="M53.6552 107.448H49.5172V111.586H53.6552V107.448Z" fill="black"/>
<path d="M61.931 107.448H57.7931V111.586H61.931V107.448Z" fill="black"/>
<path d="M74.3448 107.448H70.2069V111.586H74.3448V107.448Z" fill="black"/>
<path d="M82.6207 107.448H78.4828V111.586H82.6207V107.448Z" fill="black"/>
<path d="M86.7586 107.448H82.6207V111.586H86.7586V107.448Z" fill="black"/>
<path d="M90.8966 107.448H86.7586V111.586H90.8966V107.448Z" fill="black"/>
<path d="M95.0345 107.448H90.8966V111.586H95.0345V107.448Z" fill="black"/>
<path d="M99.1724 107.448H95.0345V111.586H99.1724V107.448Z" fill="black"/>
<path d="M107.448 107.448H103.31V111.586H107.448V107.448Z" fill="black"/>
<path d="M119.862 107.448H115.724V111.586H119.862V107.448Z" fill="black"/>
<path d="M124 107.448H119.862V111.586H124V107.448Z" fill="black"/>
<path d="M8.13793 111.586H4V115.724H8.13793V111.586Z" fill="black"/>
<path d="M16.4138 111.586H12.2759V115.724H16.4138V111.586Z" fill="black"/>
<path d="M20.5517 111.586H16.4138V115.724H20.5517V111.586Z" fill="black"/>
<path d="M24.6897 111.586H20.5517V115.724H24.6897V111.586Z" fill="black"/>
<path d="M32.9655 111.586H28.8276V115.724H32.9655V111.586Z" fill="black"/>
<path d="M41.2414 111.586H37.1035V115.724H41.2414V111.586Z" fill="black"/>
<path d="M45.3793 111.586H41.2414V115.724H45.3793V111.586Z" fill="black"/>
<path d="M49.5172 111.586H45.3793V115.724H49.5172V111.586Z" fill="black"/>
<path d="M61.931 111.586H57.7931V115.724H61.931V111.586Z" fill="black"/>
<path d="M66.069 111.586H61.931V115.724H66.069V111.586Z" fill="black"/>
<path d="M70.2069 111.586H66.069V115.724H70.2069V111.586Z" fill="black"/>
<path d="M78.4828 111.586H74.3448V115.724H78.4828V111.586Z" fill="black"/>
<path d="M86.7586 111.586H82.6207V115.724H86.7586V111.586Z" fill="black"/>
<path d="M90.8966 111.586H86.7586V115.724H90.8966V111.586Z" fill="black"/>
<path d="M115.724 111.586H111.586V115.724H115.724V111.586Z" fill="black"/>
<path d="M119.862 111.586H115.724V115.724H119.862V111.586Z" fill="black"/>
<path d="M8.13793 115.724H4V119.862H8.13793V115.724Z" fill="black"/>
<path d="M32.9655 115.724H28.8276V119.862H32.9655V115.724Z" fill="black"/>
<path d="M41.2414 115.724H37.1035V119.862H41.2414V115.724Z" fill="black"/>
<path d="M45.3793 115.724H41.2414V119.862H45.3793V115.724Z" fill="black"/>
<path d="M61.931 115.724H57.7931V119.862H61.931V115.724Z" fill="black"/>
<path d="M78.4828 115.724H74.3448V119.862H78.4828V115.724Z" fill="black"/>
<path d="M90.8966 115.724H86.7586V119.862H90.8966V115.724Z" fill="black"/>
<path d="M103.31 115.724H99.1724V119.862H103.31V115.724Z" fill="black"/>
<path d="M107.448 115.724H103.31V119.862H107.448V115.724Z" fill="black"/>
<path d="M111.586 115.724H107.448V119.862H111.586V115.724Z" fill="black"/>
<path d="M115.724 115.724H111.586V119.862H115.724V115.724Z" fill="black"/>
<path d="M8.13793 119.862H4V124H8.13793V119.862Z" fill="black"/>
<path d="M12.2759 119.862H8.13793V124H12.2759V119.862Z" fill="black"/>
<path d="M16.4138 119.862H12.2759V124H16.4138V119.862Z" fill="black"/>
<path d="M20.5517 119.862H16.4138V124H20.5517V119.862Z" fill="black"/>
<path d="M24.6897 119.862H20.5517V124H24.6897V119.862Z" fill="black"/>
<path d="M28.8276 119.862H24.6897V124H28.8276V119.862Z" fill="black"/>
<path d="M32.9655 119.862H28.8276V124H32.9655V119.862Z" fill="black"/>
<path d="M41.2414 119.862H37.1035V124H41.2414V119.862Z" fill="black"/>
<path d="M53.6552 119.862H49.5172V124H53.6552V119.862Z" fill="black"/>
<path d="M57.7931 119.862H53.6552V124H57.7931V119.862Z" fill="black"/>
<path d="M61.931 119.862H57.7931V124H61.931V119.862Z" fill="black"/>
<path d="M66.069 119.862H61.931V124H66.069V119.862Z" fill="black"/>
<path d="M70.2069 119.862H66.069V124H70.2069V119.862Z" fill="black"/>
<path d="M82.6207 119.862H78.4828V124H82.6207V119.862Z" fill="black"/>
<path d="M103.31 119.862H99.1724V124H103.31V119.862Z" fill="black"/>
<path d="M115.724 119.862H111.586V124H115.724V119.862Z" fill="black"/>
<path d="M119.862 119.862H115.724V124H119.862V119.862Z" fill="black"/>
</svg>
