<svg width="21" height="20" viewBox="0 0 21 20" fill="none" xmlns="http://www.w3.org/2000/svg">
<mask id="mask0_4338_121778" style="mask-type:alpha" maskUnits="userSpaceOnUse" x="0" y="0" width="25" height="24">
<path d="M0.5 0H24.5V24H0.5V0Z" fill="#D9D9D9"/>
</mask>
<g mask="url(#mask0_4338_121778)">
<path d="M9.51286 5.55562L12.3742 6.69343C12.5843 6.77694 12.7218 6.97765 12.7218 7.20069V13.3334H13.8329V5.55562H9.51286Z" fill="#35BBCA"/>
<path fill-rule="evenodd" clip-rule="evenodd" d="M6.6 19.212C7.81667 19.7373 9.11667 20 10.5 20C11.8833 20 13.1833 19.7373 14.4 19.212C15.6167 18.6873 16.675 17.975 17.575 17.075C18.475 16.175 19.1873 15.1167 19.712 13.9C20.2373 12.6833 20.5 11.3833 20.5 10C20.5 8.61667 20.2373 7.31667 19.712 6.1C19.1873 4.88333 18.475 3.825 17.575 2.925C16.675 2.025 15.6167 1.31233 14.4 0.787C13.1833 0.262333 11.8833 0 10.5 0C9.11667 0 7.81667 0.262333 6.6 0.787C5.38333 1.31233 4.325 2.025 3.425 2.925C2.525 3.825 1.81267 4.88333 1.288 6.1C0.762667 7.31667 0.5 8.61667 0.5 10C0.5 11.3833 0.762667 12.6833 1.288 13.9C1.81267 15.1167 2.525 16.175 3.425 17.075C4.325 17.975 5.38333 18.6873 6.6 19.212ZM6.55473 4.44735C6.57309 4.44552 6.59172 4.44458 6.61057 4.44458H13.8698C14.4571 4.44458 14.9439 4.90818 14.9439 5.49396V13.3952C14.9439 13.981 14.4571 14.4446 13.8698 14.4446H12.7217V15.5642C12.7217 15.8663 12.4729 16.1112 12.1661 16.1112C12.0948 16.1112 12.0242 16.0977 11.9581 16.0714L6.40255 13.8623C6.19252 13.7788 6.05501 13.5781 6.05501 13.3551V4.99164C6.05501 4.70807 6.27413 4.47493 6.55473 4.44735Z" fill="#35BBCA"/>
<path fill-rule="evenodd" clip-rule="evenodd" d="M11.6111 14.7532L7.16667 12.9859V5.80241L11.6111 7.5697V14.7532ZM9.64144 10.7069C9.64144 11.1253 9.98062 11.4645 10.399 11.4645C10.8174 11.4645 11.1566 11.1253 11.1566 10.7069C11.1566 10.2885 10.8174 9.94934 10.399 9.94934C9.98062 9.94934 9.64144 10.2885 9.64144 10.7069Z" fill="#35BBCA"/>
</g>
</svg>
