<svg width="32" height="32" viewBox="0 0 32 32" fill="none" xmlns="http://www.w3.org/2000/svg">
<g clip-path="url(#clip0_4111_241144)">
<path d="M12.6667 11.0005C13.9928 11.0005 15.2646 11.5273 16.2023 12.465C17.14 13.4026 17.6667 14.6744 17.6667 16.0005C17.6667 17.3266 17.14 18.5983 16.2023 19.536C15.2646 20.4737 13.9928 21.0005 12.6667 21.0005C11.3407 21.0005 10.0689 20.4737 9.13121 19.536C8.19353 18.5983 7.66675 17.3266 7.66675 16.0005C7.66675 14.6744 8.19353 13.4026 9.13121 12.465C10.0689 11.5273 11.3407 11.0005 12.6667 11.0005ZM20.1667 11.8338C21.4167 11.8338 22.2501 13.6997 22.2501 16.0005C22.2501 18.3013 21.4167 20.1672 20.1667 20.1672C18.9167 20.1672 18.0834 18.3013 18.0834 16.0005C18.0834 13.6997 18.9167 11.8338 20.1667 11.8338ZM23.5001 12.2505C23.8167 12.2505 24.0934 12.9397 24.2334 14.1222L24.2726 14.4913L24.2884 14.6872L24.3134 15.0988L24.3217 15.3147L24.3317 15.7655L24.3334 16.0005L24.3317 16.2355L24.3217 16.6863L24.3134 16.903L24.2884 17.3138L24.2717 17.5097L24.2342 17.8788C24.0934 19.0622 23.8176 19.7505 23.5001 19.7505C23.1834 19.7505 22.9067 19.0613 22.7667 17.8788L22.7276 17.5097C22.7218 17.4444 22.7166 17.3791 22.7117 17.3138L22.6867 16.9022C22.6835 16.8302 22.6807 16.7583 22.6784 16.6863L22.6684 16.2355V15.7655L22.6784 15.3147L22.6867 15.098L22.7117 14.6872L22.7284 14.4913L22.7659 14.1222C22.9067 12.9388 23.1826 12.2505 23.5001 12.2505Z" fill="#8A8DA6"/>
</g>
<rect x="0.5" y="0.500488" width="31" height="31" rx="15.5" stroke="#6C708B"/>
<defs>
<clipPath id="clip0_4111_241144">
<rect width="20" height="20" fill="white" transform="translate(6 6.00049)"/>
</clipPath>
</defs>
</svg>
