<svg width="16" height="16" viewBox="0 0 16 16" fill="none" xmlns="http://www.w3.org/2000/svg">
<g clip-path="url(#clip0_4306_234401)">
<g clip-path="url(#clip1_4306_234401)">
<path d="M12.59 4.01172H7.90241C7.50326 4.01172 7.17969 4.33529 7.17969 4.73444V6.99216C7.17969 7.39131 7.50326 7.71488 7.90241 7.71488H12.59C12.9891 7.71488 13.3127 7.39131 13.3127 6.99216V4.73444C13.3127 4.33529 12.9891 4.01172 12.59 4.01172Z" fill="#8A8DA6"/>
<path d="M2.6391 9.36523H3.15871C3.25695 9.36523 3.35116 9.40426 3.42063 9.47372C3.49009 9.54319 3.52912 9.6374 3.52912 9.73564V14.0128H2.20117V9.8031C2.20117 9.68697 2.2473 9.5756 2.32942 9.49348C2.41154 9.41137 2.52291 9.36523 2.63904 9.36523H2.6391Z" fill="#8A8DA6"/>
<path d="M3.1454 4.87988H2.61426V9.52729H3.1454V4.87988Z" fill="#8A8DA6"/>
<path d="M2.89435 5.02789C3.86398 5.02789 4.65002 4.24186 4.65002 3.27225C4.65002 2.30263 3.86398 1.5166 2.89435 1.5166C1.92471 1.5166 1.13867 2.30263 1.13867 3.27225C1.13867 4.24186 1.92471 5.02789 2.89435 5.02789Z" fill="#8A8DA6"/>
<path d="M14.7473 14.0127H1.2527C1.11314 14.0127 1 14.1258 1 14.2654C1 14.405 1.11314 14.5181 1.2527 14.5181H14.7473C14.8869 14.5181 15 14.405 15 14.2654C15 14.1258 14.8869 14.0127 14.7473 14.0127Z" fill="#8A8DA6"/>
<path d="M7.08105 12.8506H8.01947V13.7714C8.01947 13.8353 7.99407 13.8967 7.94885 13.9419C7.90364 13.9871 7.84231 14.0125 7.77837 14.0125H7.28921C7.23401 14.0125 7.18106 13.9906 7.14202 13.9515C7.10299 13.9125 7.08105 13.8595 7.08105 13.8043V12.8506Z" fill="#8A8DA6"/>
<path d="M12.459 12.8506H13.3974V13.7714C13.3974 13.8353 13.372 13.8967 13.3268 13.9419C13.2816 13.9871 13.2202 14.0125 13.1563 14.0125H12.6671C12.6119 14.0125 12.559 13.9906 12.52 13.9515C12.4809 13.9125 12.459 13.8595 12.459 13.8043V12.8506Z" fill="#8A8DA6"/>
<path d="M6.4261 12.3966L6.01855 11.457H14.4172L14.0322 12.3966H6.4261Z" fill="#8A8DA6"/>
<path fill-rule="evenodd" clip-rule="evenodd" d="M14.0395 1H6.47807C6.31217 1 6.15306 1.0659 6.03575 1.18321C5.91844 1.30052 5.85254 1.45962 5.85254 1.62552V11.003H14.5943V1.55472C14.5943 1.4076 14.5358 1.2665 14.4318 1.16247C14.3277 1.05844 14.1867 1 14.0395 1ZM14.1181 7.47871C14.1181 7.67038 14.042 7.85421 13.9064 7.98975C13.7709 8.12529 13.5871 8.20143 13.3954 8.20143H7.09548C6.9038 8.20143 6.71997 8.12529 6.58443 7.98975C6.44889 7.85421 6.37275 7.67038 6.37275 7.47871V4.24728C6.37272 4.15235 6.39139 4.05835 6.4277 3.97064C6.46401 3.88294 6.51724 3.80324 6.58436 3.73611C6.65147 3.66898 6.73116 3.61572 6.81886 3.57939C6.90655 3.54306 7.00055 3.52436 7.09548 3.52436H13.3957C13.5874 3.52436 13.7712 3.6005 13.9068 3.73604C14.0423 3.87158 14.1185 4.0554 14.1185 4.24708L14.1181 7.47871ZM6.79136 8.80304C6.94602 8.69969 7.12786 8.64453 7.31387 8.64453C7.56331 8.64453 7.80253 8.74362 7.9789 8.92C8.15528 9.09638 8.25437 9.33561 8.25437 9.58504C8.25437 9.77106 8.19921 9.9529 8.09587 10.1076C7.99252 10.2622 7.84564 10.3828 7.67378 10.454C7.50193 10.5252 7.31283 10.5438 7.13039 10.5075C6.94795 10.4712 6.78037 10.3816 6.64884 10.2501C6.51731 10.1186 6.42773 9.95097 6.39144 9.76853C6.35516 9.58609 6.37378 9.39698 6.44496 9.22513C6.51615 9.05327 6.63669 8.90638 6.79136 8.80304ZM7.31387 10.1117C7.20969 10.1117 7.10785 10.0808 7.02123 10.023C6.93461 9.96507 6.86709 9.88281 6.82722 9.78656C6.78736 9.69031 6.77693 9.58439 6.79725 9.48221C6.81757 9.38004 6.86774 9.28618 6.94141 9.21251C7.01507 9.13884 7.10893 9.08868 7.21111 9.06835C7.31329 9.04803 7.4192 9.05846 7.51545 9.09832C7.6117 9.13819 7.69396 9.20571 7.75184 9.29233C7.80972 9.37896 7.84061 9.4808 7.84061 9.58498C7.84061 9.72469 7.78512 9.85868 7.68634 9.95747C7.58756 10.0563 7.45358 10.1117 7.31387 10.1117ZM12.6553 8.80304C12.81 8.69969 12.9918 8.64453 13.1778 8.64453C13.4273 8.64453 13.6665 8.74362 13.8429 8.92C14.0193 9.09638 14.1184 9.33561 14.1184 9.58504C14.1184 9.77106 14.0632 9.9529 13.9599 10.1076C13.8565 10.2622 13.7096 10.3828 13.5378 10.454C13.3659 10.5252 13.1768 10.5438 12.9944 10.5075C12.8119 10.4712 12.6443 10.3816 12.5128 10.2501C12.3812 10.1186 12.2917 9.95097 12.2554 9.76853C12.2191 9.58609 12.2377 9.39698 12.3089 9.22513C12.3801 9.05327 12.5006 8.90638 12.6553 8.80304ZM13.1778 10.1117C13.0737 10.1117 12.9718 10.0808 12.8852 10.023C12.7986 9.96507 12.731 9.88281 12.6912 9.78656C12.6513 9.69031 12.6409 9.58439 12.6612 9.48221C12.6815 9.38004 12.7317 9.28618 12.8054 9.21251C12.879 9.13884 12.9729 9.08868 13.0751 9.06835C13.1773 9.04803 13.2832 9.05846 13.3794 9.09832C13.4757 9.13819 13.558 9.20571 13.6158 9.29233C13.6737 9.37896 13.7046 9.4808 13.7046 9.58498C13.7046 9.72469 13.6491 9.85868 13.5503 9.95747C13.4515 10.0563 13.3176 10.1117 13.1778 10.1117ZM7.21944 1.34375H13.273C13.7402 1.34375 14.119 1.72253 14.119 2.18977C14.119 2.65702 13.7402 3.0358 13.273 3.0358H7.21944C6.75217 3.0358 6.37337 2.65702 6.37337 2.18977C6.37337 1.72253 6.75217 1.34375 7.21944 1.34375Z" fill="#8A8DA6"/>
</g>
</g>
<defs>
<clipPath id="clip0_4306_234401">
<rect width="16" height="16" fill="white"/>
</clipPath>
<clipPath id="clip1_4306_234401">
<rect width="14" height="13.5182" fill="white" transform="translate(1 1)"/>
</clipPath>
</defs>
</svg>
