<svg width="16" height="17" viewBox="0 0 16 17" fill="none" xmlns="http://www.w3.org/2000/svg">
<g clip-path="url(#clip0_2064_266214)">
<mask id="mask0_2064_266214" style="mask-type:alpha" maskUnits="userSpaceOnUse" x="0" y="0" width="16" height="17">
<rect y="0.97998" width="16" height="16" fill="#D9D9D9"/>
</mask>
<g mask="url(#mask0_2064_266214)">
<path d="M8 10.3133C7.81111 10.3133 7.65289 10.2493 7.52533 10.1213C7.39733 9.99377 7.33333 9.83555 7.33333 9.64666C7.33333 9.45777 7.39733 9.29932 7.52533 9.17132C7.65289 9.04377 7.81111 8.97999 8 8.97999C8.18889 8.97999 8.34733 9.04377 8.47533 9.17132C8.60289 9.29932 8.66667 9.45777 8.66667 9.64666C8.66667 9.83555 8.60289 9.99377 8.47533 10.1213C8.34733 10.2493 8.18889 10.3133 8 10.3133ZM5.33333 10.3133C5.14444 10.3133 4.986 10.2493 4.858 10.1213C4.73044 9.99377 4.66667 9.83555 4.66667 9.64666C4.66667 9.45777 4.73044 9.29932 4.858 9.17132C4.986 9.04377 5.14444 8.97999 5.33333 8.97999C5.52222 8.97999 5.68067 9.04377 5.80867 9.17132C5.93622 9.29932 6 9.45777 6 9.64666C6 9.83555 5.93622 9.99377 5.80867 10.1213C5.68067 10.2493 5.52222 10.3133 5.33333 10.3133ZM10.6667 10.3133C10.4778 10.3133 10.3196 10.2493 10.192 10.1213C10.064 9.99377 10 9.83555 10 9.64666C10 9.45777 10.064 9.29932 10.192 9.17132C10.3196 9.04377 10.4778 8.97999 10.6667 8.97999C10.8556 8.97999 11.0138 9.04377 11.1413 9.17132C11.2693 9.29932 11.3333 9.45777 11.3333 9.64666C11.3333 9.83555 11.2693 9.99377 11.1413 10.1213C11.0138 10.2493 10.8556 10.3133 10.6667 10.3133ZM8 12.98C7.81111 12.98 7.65289 12.916 7.52533 12.788C7.39733 12.6604 7.33333 12.5022 7.33333 12.3133C7.33333 12.1244 7.39733 11.9662 7.52533 11.8387C7.65289 11.7107 7.81111 11.6467 8 11.6467C8.18889 11.6467 8.34733 11.7107 8.47533 11.8387C8.60289 11.9662 8.66667 12.1244 8.66667 12.3133C8.66667 12.5022 8.60289 12.6604 8.47533 12.788C8.34733 12.916 8.18889 12.98 8 12.98ZM5.33333 12.98C5.14444 12.98 4.986 12.916 4.858 12.788C4.73044 12.6604 4.66667 12.5022 4.66667 12.3133C4.66667 12.1244 4.73044 11.9662 4.858 11.8387C4.986 11.7107 5.14444 11.6467 5.33333 11.6467C5.52222 11.6467 5.68067 11.7107 5.80867 11.8387C5.93622 11.9662 6 12.1244 6 12.3133C6 12.5022 5.93622 12.6604 5.80867 12.788C5.68067 12.916 5.52222 12.98 5.33333 12.98ZM10.6667 12.98C10.4778 12.98 10.3196 12.916 10.192 12.788C10.064 12.6604 10 12.5022 10 12.3133C10 12.1244 10.064 11.9662 10.192 11.8387C10.3196 11.7107 10.4778 11.6467 10.6667 11.6467C10.8556 11.6467 11.0138 11.7107 11.1413 11.8387C11.2693 11.9662 11.3333 12.1244 11.3333 12.3133C11.3333 12.5022 11.2693 12.6604 11.1413 12.788C11.0138 12.916 10.8556 12.98 10.6667 12.98ZM3.33333 15.6467C2.96667 15.6467 2.65267 15.5162 2.39133 15.2553C2.13044 14.994 2 14.68 2 14.3133V4.97999C2 4.61332 2.13044 4.29955 2.39133 4.03866C2.65267 3.77732 2.96667 3.64666 3.33333 3.64666H4V2.31332H5.33333V3.64666H10.6667V2.31332H12V3.64666H12.6667C13.0333 3.64666 13.3473 3.77732 13.6087 4.03866C13.8696 4.29955 14 4.61332 14 4.97999V14.3133C14 14.68 13.8696 14.994 13.6087 15.2553C13.3473 15.5162 13.0333 15.6467 12.6667 15.6467H3.33333ZM3.33333 14.3133H12.6667V7.64666H3.33333V14.3133Z" fill="#8A8DA6"/>
</g>
</g>
<defs>
<clipPath id="clip0_2064_266214">
<rect width="16" height="16" fill="white" transform="translate(0 0.97998)"/>
</clipPath>
</defs>
</svg>
