<svg width="20" height="20" viewBox="0 0 20 20" fill="none" xmlns="http://www.w3.org/2000/svg">
<g clip-path="url(#clip0_4328_190019)">
<mask id="mask0_4328_190019" style="mask-type:alpha" maskUnits="userSpaceOnUse" x="0" y="0" width="21" height="20">
<path d="M0.000488281 0H20.0005V20H0.000488281V0Z" fill="#D9D9D9"/>
</mask>
<g mask="url(#mask0_4328_190019)">
<path d="M12.3332 6.66671L13.3332 7.66671L7.6665 13.3334L6.6665 12.3334L12.3332 6.66671ZM3.33317 3.33337H16.6665C17.5915 3.33337 18.3332 4.07504 18.3332 5.00004V8.33337C17.8911 8.33337 17.4672 8.50897 17.1547 8.82153C16.8421 9.13409 16.6665 9.55801 16.6665 10C16.6665 10.4421 16.8421 10.866 17.1547 11.1786C17.4672 11.4911 17.8911 11.6667 18.3332 11.6667V15C18.3332 15.925 17.5915 16.6667 16.6665 16.6667H3.33317C2.89114 16.6667 2.46722 16.4911 2.15466 16.1786C1.8421 15.866 1.6665 15.4421 1.6665 15V11.6667C2.5915 11.6667 3.33317 10.925 3.33317 10C3.33317 9.55801 3.15758 9.13409 2.84502 8.82153C2.53245 8.50897 2.10853 8.33337 1.6665 8.33337V5.00004C1.6665 4.55801 1.8421 4.13409 2.15466 3.82153C2.46722 3.50897 2.89114 3.33337 3.33317 3.33337ZM3.33317 5.00004V7.11671C3.83957 7.40871 4.26013 7.82893 4.55255 8.33508C4.84497 8.84124 4.99892 9.41549 4.99892 10C4.99892 10.5846 4.84497 11.1588 4.55255 11.665C4.26013 12.1712 3.83957 12.5914 3.33317 12.8834V15H16.6665V12.8834C16.1601 12.5914 15.7395 12.1712 15.4471 11.665C15.1547 11.1588 15.0008 10.5846 15.0008 10C15.0008 9.41549 15.1547 8.84124 15.4471 8.33508C15.7395 7.82893 16.1601 7.40871 16.6665 7.11671V5.00004H3.33317ZM7.9165 6.66671C8.60817 6.66671 9.1665 7.22504 9.1665 7.91671C9.1665 8.60837 8.60817 9.16671 7.9165 9.16671C7.22484 9.16671 6.6665 8.60837 6.6665 7.91671C6.6665 7.22504 7.22484 6.66671 7.9165 6.66671ZM12.0832 10.8334C12.7748 10.8334 13.3332 11.3917 13.3332 12.0834C13.3332 12.775 12.7748 13.3334 12.0832 13.3334C11.3915 13.3334 10.8332 12.775 10.8332 12.0834C10.8332 11.3917 11.3915 10.8334 12.0832 10.8334Z" fill="white"/>
</g>
</g>
<defs>
<clipPath id="clip0_4328_190019">
<rect width="20" height="20" fill="white"/>
</clipPath>
</defs>
</svg>
