<svg width="24" height="24" viewBox="0 0 24 24" fill="none" xmlns="http://www.w3.org/2000/svg">
<g clip-path="url(#clip0_4658_261983)">
<mask id="mask0_4658_261983" style="mask-type:alpha" maskUnits="userSpaceOnUse" x="0" y="0" width="24" height="25">
<rect y="0.00012207" width="24" height="24" fill="#D9D9D9"/>
</mask>
<g mask="url(#mask0_4658_261983)">
<path d="M15.325 16.2751C15.1417 16.0585 15.05 15.8125 15.05 15.5371C15.05 15.2625 15.1417 15.0335 15.325 14.8501L17.175 13.0001H10C9.71667 13.0001 9.47933 12.9041 9.288 12.7121C9.096 12.5208 9 12.2835 9 12.0001C9 11.7168 9.096 11.4791 9.288 11.2871C9.47933 11.0958 9.71667 11.0001 10 11.0001H17.175L15.325 9.15012C15.125 8.95012 15.025 8.71279 15.025 8.43812C15.025 8.16279 15.125 7.92512 15.325 7.72512C15.5083 7.52512 15.7377 7.42512 16.013 7.42512C16.2877 7.42512 16.5167 7.51679 16.7 7.70012L20.3 11.3001C20.4 11.4001 20.471 11.5085 20.513 11.6251C20.5543 11.7418 20.575 11.8668 20.575 12.0001C20.575 12.1335 20.5543 12.2585 20.513 12.3751C20.471 12.4918 20.4 12.6001 20.3 12.7001L16.7 16.3001C16.4833 16.5168 16.246 16.6125 15.988 16.5871C15.7293 16.5625 15.5083 16.4585 15.325 16.2751ZM5 21.0001C4.45 21.0001 3.979 20.8045 3.587 20.4131C3.19567 20.0211 3 19.5501 3 19.0001V5.00012C3 4.45012 3.19567 3.97912 3.587 3.58712C3.979 3.19579 4.45 3.00012 5 3.00012H11C11.2833 3.00012 11.521 3.09579 11.713 3.28712C11.9043 3.47912 12 3.71679 12 4.00012C12 4.28346 11.9043 4.52079 11.713 4.71212C11.521 4.90412 11.2833 5.00012 11 5.00012H5V19.0001H11C11.2833 19.0001 11.521 19.0961 11.713 19.2881C11.9043 19.4795 12 19.7168 12 20.0001C12 20.2835 11.9043 20.5208 11.713 20.7121C11.521 20.9041 11.2833 21.0001 11 21.0001H5Z" fill="#30303B"/>
</g>
</g>
<defs>
<clipPath id="clip0_4658_261983">
<rect width="24" height="24" fill="white"/>
</clipPath>
</defs>
</svg>
