<svg width="21" height="21" viewBox="0 0 21 21" fill="none" xmlns="http://www.w3.org/2000/svg">
<g clip-path="url(#clip0_5053_35329)">
<mask id="mask0_5053_35329" style="mask-type:alpha" maskUnits="userSpaceOnUse" x="0" y="0" width="21" height="21">
<rect x="0.25" y="0.280396" width="20" height="20" fill="#D9D9D9"/>
</mask>
<g mask="url(#mask0_5053_35329)">
<path fill-rule="evenodd" clip-rule="evenodd" d="M2.41856 13.742C2.43911 13.7553 2.45967 13.7625 2.48742 13.7764L4.5199 14.6175L4.29224 15.162C4.22389 15.3343 4.25832 15.5343 4.38937 15.6648L4.87808 16.1543C5.00913 16.2854 5.20904 16.3265 5.38171 16.251L5.92541 16.0232L6.76615 18.0505C6.96606 18.5188 7.5036 18.7399 7.96509 18.5399C7.98564 18.5327 8.01339 18.5188 8.03395 18.5055L8.57817 18.2227C8.90912 18.0505 9.10235 17.6988 9.0746 17.3332L8.8197 14.1486L8.84745 14.1281C9.66661 13.4869 10.2391 13.0391 11.1276 12.2185L14.1113 16.6787C14.5312 17.3127 15.3858 17.4782 16.02 17.0577C16.0955 17.0093 16.1644 16.9471 16.2266 16.8854L16.4265 16.6854C16.7846 16.3265 16.9157 15.7959 16.7708 15.3065L14.9377 9.42007L14.7244 8.69616L14.7522 8.6684L15.0831 8.35786C16.1233 7.36556 16.8813 6.64833 17.4394 5.91105C18.1629 4.94601 18.5828 3.9532 18.5828 3.19484C18.59 2.92594 18.5211 2.66425 18.3762 2.437C18.3351 2.38147 18.294 2.32645 18.2385 2.27813C18.1902 2.2298 18.1424 2.18815 18.0869 2.15422C17.8597 2.00923 17.5976 1.94033 17.3222 1.94753C16.5642 1.94753 15.5785 2.36759 14.6139 3.0915C13.8698 3.64266 13.1534 4.40153 12.1611 5.45604L11.824 5.80103L5.22291 3.7604C4.73368 3.60873 4.21001 3.73932 3.84463 4.10487L3.64524 4.30487C3.1077 4.84215 3.1077 5.71105 3.64524 6.24885C3.70691 6.31106 3.77628 6.37275 3.85183 6.42108L8.31659 9.40568C7.48973 10.3023 7.03492 10.8813 6.38741 11.7013L3.18324 11.4669C2.81169 11.4391 2.46686 11.6324 2.29471 11.9635L2.01206 12.508C1.7916 12.9491 1.96375 13.5075 2.41856 13.742Z" fill="#8A8DA6"/>
</g>
</g>
<defs>
<clipPath id="clip0_5053_35329">
<rect width="20" height="20" fill="white" transform="translate(0.25 0.280396)"/>
</clipPath>
</defs>
</svg>
