<svg width="16" height="16" viewBox="0 0 16 16" fill="none" xmlns="http://www.w3.org/2000/svg">
<g clip-path="url(#clip0_5020_132372)">
<mask id="mask0_5020_132372" style="mask-type:alpha" maskUnits="userSpaceOnUse" x="0" y="0" width="16" height="16">
<rect width="16" height="16" fill="#D9D9D9"/>
</mask>
<g mask="url(#mask0_5020_132372)">
<path d="M7.96732 12C8.20065 12 8.39798 11.9194 8.55932 11.758C8.72021 11.5972 8.80065 11.4 8.80065 11.1667C8.80065 10.9334 8.72021 10.7363 8.55932 10.5754C8.39798 10.414 8.20065 10.3334 7.96732 10.3334C7.73398 10.3334 7.53665 10.414 7.37532 10.5754C7.21443 10.7363 7.13398 10.9334 7.13398 11.1667C7.13398 11.4 7.21443 11.5972 7.37532 11.758C7.53665 11.9194 7.73398 12 7.96732 12ZM8.06732 5.13337C8.37843 5.13337 8.62843 5.21937 8.81732 5.39137C9.00621 5.56382 9.10065 5.78893 9.10065 6.06671C9.10065 6.2556 9.03687 6.44715 8.90932 6.64137C8.78132 6.83604 8.60065 7.03893 8.36732 7.25004C8.03398 7.53893 7.78954 7.81671 7.63398 8.08337C7.47843 8.35004 7.40065 8.61671 7.40065 8.88337C7.40065 9.03893 7.4591 9.16937 7.57598 9.27471C7.69243 9.38049 7.82843 9.43337 7.98398 9.43337C8.13954 9.43337 8.27843 9.37782 8.40065 9.26671C8.52287 9.1556 8.60065 9.01671 8.63398 8.85004C8.66732 8.66115 8.74243 8.48626 8.85932 8.32537C8.97576 8.16404 9.16732 7.9556 9.43398 7.70004C9.77843 7.37782 10.0202 7.08337 10.1593 6.81671C10.298 6.55004 10.3673 6.2556 10.3673 5.93337C10.3673 5.36671 10.1535 4.90271 9.72598 4.54137C9.29798 4.18049 8.7451 4.00004 8.06732 4.00004C7.60065 4.00004 7.18687 4.08893 6.82598 4.26671C6.46465 4.44449 6.18398 4.71671 5.98398 5.08337C5.90621 5.22782 5.87843 5.36937 5.90065 5.50804C5.92287 5.64715 6.00065 5.76115 6.13398 5.85004C6.27843 5.93893 6.43687 5.96671 6.60932 5.93337C6.78132 5.90004 6.92287 5.8056 7.03398 5.65004C7.15621 5.48337 7.30354 5.3556 7.47598 5.26671C7.64798 5.17782 7.8451 5.13337 8.06732 5.13337ZM8.00065 14.6667C7.08954 14.6667 6.22843 14.4916 5.41732 14.1414C4.60621 13.7916 3.89798 13.3167 3.29265 12.7167C2.68687 12.1167 2.2091 11.4112 1.85932 10.6C1.5091 9.78893 1.33398 8.92226 1.33398 8.00004C1.33398 7.07782 1.5091 6.21115 1.85932 5.40004C2.2091 4.58893 2.68687 3.88337 3.29265 3.28337C3.89798 2.68337 4.60621 2.20826 5.41732 1.85804C6.22843 1.50826 7.08954 1.33337 8.00065 1.33337C8.93398 1.33337 9.80621 1.50826 10.6173 1.85804C11.4284 2.20826 12.134 2.68337 12.734 3.28337C13.334 3.88337 13.8062 4.58893 14.1507 5.40004C14.4951 6.21115 14.6673 7.07782 14.6673 8.00004C14.6673 8.92226 14.4951 9.78893 14.1507 10.6C13.8062 11.4112 13.334 12.1167 12.734 12.7167C12.134 13.3167 11.4284 13.7916 10.6173 14.1414C9.80621 14.4916 8.93398 14.6667 8.00065 14.6667ZM8.00065 13.3334C9.48954 13.3334 10.7507 12.814 11.784 11.7754C12.8173 10.7363 13.334 9.47782 13.334 8.00004C13.334 6.52226 12.8173 5.26382 11.784 4.22471C10.7507 3.18604 9.48954 2.66671 8.00065 2.66671C6.5451 2.66671 5.29221 3.18604 4.24198 4.22471C3.19221 5.26382 2.66732 6.52226 2.66732 8.00004C2.66732 9.47782 3.19221 10.7363 4.24198 11.7754C5.29221 12.814 6.5451 13.3334 8.00065 13.3334Z" fill="#8A8DA6"/>
</g>
</g>
<defs>
<clipPath id="clip0_5020_132372">
<rect width="16" height="16" fill="white"/>
</clipPath>
</defs>
</svg>
