<svg width="20" height="20" viewBox="0 0 20 20" fill="none" xmlns="http://www.w3.org/2000/svg">
<g clip-path="url(#clip0_4705_113049)">
<mask id="mask0_4705_113049" style="mask-type:alpha" maskUnits="userSpaceOnUse" x="0" y="0" width="20" height="21">
<rect y="0.000488281" width="20" height="20" fill="#D9D9D9"/>
</mask>
<g mask="url(#mask0_4705_113049)">
<path d="M9.99995 12.4588C9.88884 12.4588 9.78467 12.4413 9.68745 12.4063C9.59023 12.3719 9.49995 12.313 9.41662 12.2297L5.56245 8.37551C5.40967 8.22273 5.33689 8.03162 5.34412 7.80218C5.35078 7.57329 5.43051 7.38245 5.58328 7.22968C5.73606 7.0769 5.93051 7.00051 6.16662 7.00051C6.40273 7.00051 6.59717 7.0769 6.74995 7.22968L9.99995 10.4797L13.2708 7.20884C13.4236 7.05606 13.6147 6.98301 13.8441 6.98968C14.073 6.9969 14.2638 7.0769 14.4166 7.22968C14.5694 7.38245 14.6458 7.5769 14.6458 7.81301C14.6458 8.04912 14.5694 8.24356 14.4166 8.39634L10.5833 12.2297C10.5 12.313 10.4097 12.3719 10.3125 12.4063C10.2152 12.4413 10.1111 12.4588 9.99995 12.4588Z" fill="#FE5000"/>
</g>
</g>
<defs>
<clipPath id="clip0_4705_113049">
<rect width="20" height="20" fill="white" transform="translate(0 0.000488281)"/>
</clipPath>
</defs>
</svg>
