<svg width="24" height="24" viewBox="0 0 24 24" fill="none" xmlns="http://www.w3.org/2000/svg">
<path d="M12 2C11.35 2 9.57417 2.94417 9.57417 2.94417C9.57417 2.94417 7.56417 3.01417 7 3.34C6.43667 3.665 5.37083 5.37167 5.37083 5.37167C5.37083 5.37167 3.66667 6.43583 3.34 6.99917C3.01417 7.56417 2.945 9.57417 2.945 9.57417C2.945 9.57417 2 11.3492 2 12C2 12.65 2.945 14.4267 2.945 14.4267C2.945 14.4267 3.01417 16.4358 3.34 17.0008C3.66667 17.5642 5.37167 18.63 5.37167 18.63C5.37167 18.63 6.4375 20.335 7 20.66C7.56333 20.9867 9.57333 21.055 9.57333 21.055C9.57333 21.055 11.3492 22 12 22C12.65 22 14.4267 21.055 14.4267 21.055C14.4267 21.055 16.4375 20.9867 16.9992 20.66C17.5625 20.335 18.6283 18.63 18.6283 18.63C18.6283 18.63 20.3358 17.5633 20.6617 17.0008C20.9867 16.4358 21.0558 14.4267 21.0558 14.4267C21.0558 14.4267 22 12.65 22 12C22 11.35 21.0558 9.57417 21.0558 9.57417C21.0558 9.57417 20.9858 7.56417 20.6617 6.99917C20.3358 6.43583 18.6283 5.37167 18.6283 5.37167C18.6283 5.37167 17.5625 3.665 17 3.34C16.4383 3.01417 14.4275 2.94417 14.4275 2.94417C14.4275 2.94417 12.65 2 12 2Z" fill="#30303B"/>
<path d="M15.8759 11.3421L14.1298 13.1267L14.5439 15.6467C14.5479 15.6814 14.5479 15.7128 14.5479 15.7482C14.5479 15.8795 14.4902 16 14.3508 16C14.2826 15.9982 14.2162 15.9774 14.1586 15.9397L12.0008 14.7495L9.84141 15.9397C9.78337 15.9764 9.7172 15.9971 9.64918 16C9.50981 16 9.44654 15.8795 9.44654 15.7482C9.44654 15.7128 9.45214 15.6822 9.45775 15.6467L9.87024 13.1267L8.12014 11.3421C8.06328 11.2761 8 11.1903 8 11.1003C8 10.9484 8.14898 10.8882 8.26992 10.8683L10.684 10.501L11.7653 8.20636C11.8078 8.11143 11.8895 8 12.0008 8C12.1113 8 12.193 8.11143 12.2355 8.20636L13.3168 10.501L15.7301 10.8683C15.8462 10.8882 16 10.9484 16 11.0995C16 11.1903 15.9391 11.2761 15.8759 11.3421Z" fill="white"/>
<path fill-rule="evenodd" clip-rule="evenodd" d="M5.25434 11.9992L5.25517 12.0325H4.42434L4.4235 12C4.4235 7.85749 7.72517 4.48749 11.791 4.46666V5.31249C8.1835 5.33249 5.25434 8.32333 5.25434 11.9992ZM14.4958 5.89V4.97917C17.265 6.07167 19.235 8.80417 19.235 12C19.235 16.1558 15.9125 19.5358 11.8291 19.5358C8.71081 19.5358 6.04414 17.5642 4.95247 14.785H5.85747C6.89747 17.0867 9.17997 18.6917 11.8291 18.6917C15.455 18.6917 18.4041 15.6908 18.4041 12C18.4113 9.37342 16.8834 6.98479 14.4958 5.89Z" fill="white"/>
</svg>
