<svg width="40" height="40" viewBox="0 0 40 40" fill="none" xmlns="http://www.w3.org/2000/svg">
<rect width="40" height="40" rx="20" fill="#27924C"/>
<g clip-path="url(#clip0_3771_240848)">
<mask id="mask0_3771_240848" style="mask-type:alpha" maskUnits="userSpaceOnUse" x="8" y="8" width="25" height="24">
<path d="M8.00024 8H32.0002V32H8.00024V8Z" fill="#D9D9D9"/>
</mask>
<g mask="url(#mask0_3771_240848)">
<path d="M22.8 16L24 17.2L17.2 24L16 22.8L22.8 16ZM12 12H28C29.11 12 30 12.89 30 14V18C29.4696 18 28.9609 18.2107 28.5858 18.5858C28.2107 18.9609 28 19.4696 28 20C28 20.5304 28.2107 21.0391 28.5858 21.4142C28.9609 21.7893 29.4696 22 30 22V26C30 27.11 29.11 28 28 28H12C11.4696 28 10.9609 27.7893 10.5858 27.4142C10.2107 27.0391 10 26.5304 10 26V22C11.11 22 12 21.11 12 20C12 19.4696 11.7893 18.9609 11.4142 18.5858C11.0391 18.2107 10.5304 18 10 18V14C10 13.4696 10.2107 12.9609 10.5858 12.5858C10.9609 12.2107 11.4696 12 12 12ZM12 14V16.54C12.6077 16.8904 13.1124 17.3947 13.4633 18.0021C13.8142 18.6094 13.9989 19.2985 13.9989 20C13.9989 20.7015 13.8142 21.3906 13.4633 21.9979C13.1124 22.6053 12.6077 23.1096 12 23.46V26H28V23.46C27.3923 23.1096 26.8876 22.6053 26.5367 21.9979C26.1858 21.3906 26.0011 20.7015 26.0011 20C26.0011 19.2985 26.1858 18.6094 26.5367 18.0021C26.8876 17.3947 27.3923 16.8904 28 16.54V14H12ZM17.5 16C18.33 16 19 16.67 19 17.5C19 18.33 18.33 19 17.5 19C16.67 19 16 18.33 16 17.5C16 16.67 16.67 16 17.5 16ZM22.5 21C23.33 21 24 21.67 24 22.5C24 23.33 23.33 24 22.5 24C21.67 24 21 23.33 21 22.5C21 21.67 21.67 21 22.5 21Z" fill="white"/>
</g>
</g>
<defs>
<clipPath id="clip0_3771_240848">
<rect width="24" height="24" fill="white" transform="translate(8 8)"/>
</clipPath>
</defs>
</svg>
