<svg width="20" height="20" viewBox="0 0 20 20" fill="none" xmlns="http://www.w3.org/2000/svg">
<g clip-path="url(#clip0_4328_195048)">
<mask id="mask0_4328_195048" style="mask-type:alpha" maskUnits="userSpaceOnUse" x="0" y="0" width="20" height="20">
<path d="M0 0H20V20H0V0Z" fill="#D9D9D9"/>
</mask>
<g mask="url(#mask0_4328_195048)">
<path d="M12.3337 6.66671L13.3337 7.66671L7.66699 13.3334L6.66699 12.3334L12.3337 6.66671ZM3.33366 3.33337H16.667C17.592 3.33337 18.3337 4.07504 18.3337 5.00004V8.33337C17.8916 8.33337 17.4677 8.50897 17.1551 8.82153C16.8426 9.13409 16.667 9.55801 16.667 10C16.667 10.4421 16.8426 10.866 17.1551 11.1786C17.4677 11.4911 17.8916 11.6667 18.3337 11.6667V15C18.3337 15.925 17.592 16.6667 16.667 16.6667H3.33366C2.89163 16.6667 2.46771 16.4911 2.15515 16.1786C1.84259 15.866 1.66699 15.4421 1.66699 15V11.6667C2.59199 11.6667 3.33366 10.925 3.33366 10C3.33366 9.55801 3.15806 9.13409 2.8455 8.82153C2.53294 8.50897 2.10902 8.33337 1.66699 8.33337V5.00004C1.66699 4.55801 1.84259 4.13409 2.15515 3.82153C2.46771 3.50897 2.89163 3.33337 3.33366 3.33337ZM3.33366 5.00004V7.11671C3.84006 7.40871 4.26062 7.82893 4.55304 8.33508C4.84545 8.84124 4.99941 9.41549 4.99941 10C4.99941 10.5846 4.84545 11.1588 4.55304 11.665C4.26062 12.1712 3.84006 12.5914 3.33366 12.8834V15H16.667V12.8834C16.1606 12.5914 15.74 12.1712 15.4476 11.665C15.1552 11.1588 15.0012 10.5846 15.0012 10C15.0012 9.41549 15.1552 8.84124 15.4476 8.33508C15.74 7.82893 16.1606 7.40871 16.667 7.11671V5.00004H3.33366ZM7.91699 6.66671C8.60866 6.66671 9.16699 7.22504 9.16699 7.91671C9.16699 8.60837 8.60866 9.16671 7.91699 9.16671C7.22533 9.16671 6.66699 8.60837 6.66699 7.91671C6.66699 7.22504 7.22533 6.66671 7.91699 6.66671ZM12.0837 10.8334C12.7753 10.8334 13.3337 11.3917 13.3337 12.0834C13.3337 12.775 12.7753 13.3334 12.0837 13.3334C11.392 13.3334 10.8337 12.775 10.8337 12.0834C10.8337 11.3917 11.392 10.8334 12.0837 10.8334Z" fill="#FE5000"/>
</g>
</g>
<defs>
<clipPath id="clip0_4328_195048">
<rect width="20" height="20" fill="white"/>
</clipPath>
</defs>
</svg>
