<svg width="20" height="20" viewBox="0 0 20 20" fill="none" xmlns="http://www.w3.org/2000/svg">
<mask id="mask0_4338_121761" style="mask-type:alpha" maskUnits="userSpaceOnUse" x="0" y="0" width="24" height="24">
<path d="M0 0H24V24H0V0Z" fill="#D9D9D9"/>
</mask>
<g mask="url(#mask0_4338_121761)">
<path fill-rule="evenodd" clip-rule="evenodd" d="M6.1 19.212C7.31667 19.7373 8.61667 20 10 20C11.3833 20 12.6833 19.7373 13.9 19.212C15.1167 18.6873 16.175 17.975 17.075 17.075C17.975 16.175 18.6873 15.1167 19.212 13.9C19.7373 12.6833 20 11.3833 20 10C20 8.61667 19.7373 7.31667 19.212 6.1C18.6873 4.88333 17.975 3.825 17.075 2.925C16.175 2.025 15.1167 1.31233 13.9 0.787C12.6833 0.262333 11.3833 0 10 0C8.61667 0 7.31667 0.262333 6.1 0.787C4.88333 1.31233 3.825 2.025 2.925 2.925C2.025 3.825 1.31267 4.88333 0.788 6.1C0.262667 7.31667 0 8.61667 0 10C0 11.3833 0.262667 12.6833 0.788 13.9C1.31267 15.1167 2.025 16.175 2.925 17.075C3.825 17.975 4.88333 18.6873 6.1 19.212ZM7.77751 5.83333H12.222V4.72222C12.222 4.4154 12.4707 4.16667 12.7775 4.16667C13.0843 4.16667 13.3331 4.4154 13.3331 4.72222V5.83333H14.9997C15.3066 5.83333 15.5553 6.08206 15.5553 6.38889V15.2778C15.5553 15.5846 15.3066 15.8333 14.9997 15.8333H4.99973C4.6929 15.8333 4.44417 15.5846 4.44417 15.2778V6.38889C4.44417 6.08206 4.6929 5.83333 4.99973 5.83333H6.6664V4.72222C6.6664 4.4154 6.91513 4.16667 7.22195 4.16667C7.52878 4.16667 7.77751 4.4154 7.77751 4.72222V5.83333ZM5.55528 6.94444H14.4442V8.05556H5.55528V6.94444ZM5.55528 9.16667H14.4442V14.7222H5.55528V9.16667ZM7.77724 12.5001C8.08406 12.5001 8.33279 12.2513 8.33279 11.9445C8.33279 11.6377 8.08406 11.389 7.77724 11.389C7.47041 11.389 7.22168 11.6377 7.22168 11.9445C7.22168 12.2513 7.47041 12.5001 7.77724 12.5001ZM12.2217 12.5001C12.5285 12.5001 12.7772 12.2513 12.7772 11.9445C12.7772 11.6377 12.5285 11.389 12.2217 11.389C11.9149 11.389 11.6661 11.6377 11.6661 11.9445C11.6661 12.2513 11.9149 12.5001 12.2217 12.5001ZM10.555 11.9445C10.555 11.6377 10.3063 11.389 9.99946 11.389C9.69263 11.389 9.4439 11.6377 9.4439 11.9445C9.4439 12.2513 9.69263 12.5001 9.99946 12.5001C10.3063 12.5001 10.555 12.2513 10.555 11.9445Z" fill="#6E479A"/>
</g>
</svg>
