<svg width="20" height="20" viewBox="0 0 20 20" fill="none" xmlns="http://www.w3.org/2000/svg">
<mask id="mask0_3852_120821" style="mask-type:alpha" maskUnits="userSpaceOnUse" x="0" y="0" width="20" height="20">
<path d="M0 0H20V20H0V0Z" fill="#D9D9D9"/>
</mask>
<g mask="url(#mask0_3852_120821)">
<path fill-rule="evenodd" clip-rule="evenodd" d="M10 20C8.61667 20 7.31667 19.7373 6.1 19.212C4.88333 18.6873 3.825 17.975 2.925 17.075C2.025 16.175 1.31267 15.1167 0.788 13.9C0.262667 12.6833 0 11.3833 0 10C0 8.61667 0.262667 7.31667 0.788 6.1C1.31267 4.88333 2.025 3.825 2.925 2.925C3.825 2.025 4.88333 1.31233 6.1 0.787C7.31667 0.262333 8.61667 0 10 0C11.3833 0 12.6833 0.262333 13.9 0.787C15.1167 1.31233 16.175 2.025 17.075 2.925C17.975 3.825 18.6873 4.88333 19.212 6.1C19.7373 7.31667 20 8.61667 20 10C20 11.3833 19.7373 12.6833 19.212 13.9C18.6873 15.1167 17.975 16.175 17.075 17.075C16.175 17.975 15.1167 18.6873 13.9 19.212C12.6833 19.7373 11.3833 20 10 20ZM6.66048 5.83333C6.2577 5.83333 5.93117 6.14642 5.93117 6.53263V11.6105C5.93117 11.9967 6.2577 12.3098 6.66049 12.3098H14.2707C14.6735 12.3098 15 11.9967 15 11.6105V9.65378C15 8.74313 14.5073 7.89768 13.6984 7.42041L11.4483 6.09267C11.1609 5.92311 10.8301 5.83333 10.4927 5.83333H6.66048ZM10.4656 7.05039C10.4656 6.97854 10.5263 6.92029 10.6013 6.92029H11.0061C11.3782 6.92029 11.7428 7.0207 12.0582 7.21004L13.8633 8.29368C14.1297 8.4536 14.2915 8.73375 14.2915 9.03511C14.2915 9.05524 14.2745 9.07156 14.2535 9.07156H11.0733C10.7377 9.07156 10.4656 8.81065 10.4656 8.48881V7.05039ZM7.67254 6.92029C7.33688 6.92029 7.06478 7.1812 7.06478 7.50304V8.48881C7.06478 8.81065 7.33688 9.07156 7.67254 9.07156H8.72423C9.05988 9.07156 9.33199 8.81065 9.33199 8.48881V7.50304C9.33199 7.1812 9.05988 6.92029 8.72423 6.92029H7.67254ZM7.06478 10.5208C7.06478 10.3207 7.23396 10.1585 7.44265 10.1585H8.95412C9.16281 10.1585 9.33199 10.3207 9.33199 10.5208C9.33199 10.7209 9.16281 10.8832 8.95412 10.8832H7.44265C7.23396 10.8832 7.06478 10.7209 7.06478 10.5208ZM3.33333 13.51C3.33333 13.1473 3.63997 12.8533 4.01822 12.8533H4.67949C5.05774 12.8533 5.36437 13.1473 5.36437 13.51C5.36437 13.8727 5.05774 14.1667 4.67949 14.1667H4.01822C3.63997 14.1667 3.33333 13.8727 3.33333 13.51ZM6.61606 12.8533C6.23781 12.8533 5.93117 13.1473 5.93117 13.51C5.93117 13.8727 6.23781 14.1667 6.61606 14.1667H14.3151C14.6934 14.1667 15 13.8727 15 13.51C15 13.1473 14.6934 12.8533 14.3151 12.8533H6.61606Z" fill="#1868DD"/>
</g>
</svg>
