<svg width="32" height="32" viewBox="0 0 32 32" fill="none" xmlns="http://www.w3.org/2000/svg">
<path d="M24.175 11.1896C24.2233 11.123 24.1516 11.0355 24.075 11.0655C23.5256 11.2786 22.9517 11.4222 22.3666 11.493C23.0165 11.1048 23.5203 10.5131 23.8 9.80963C23.8283 9.73796 23.75 9.67379 23.6833 9.71129C23.0775 10.0455 22.425 10.2863 21.7458 10.4255C21.7318 10.4283 21.7174 10.4274 21.7038 10.4231C21.6902 10.4187 21.678 10.4109 21.6683 10.4005C21.1572 9.86119 20.4842 9.50322 19.7514 9.38081C19.0186 9.25839 18.2658 9.37819 17.6072 9.72206C16.9485 10.0659 16.42 10.6151 16.1015 11.2864C15.7831 11.9577 15.6921 12.7145 15.8425 13.4421C15.8452 13.4548 15.8449 13.4679 15.8417 13.4805C15.8386 13.493 15.8326 13.5047 15.8242 13.5146C15.8159 13.5245 15.8053 13.5323 15.7935 13.5375C15.7816 13.5427 15.7687 13.5452 15.7558 13.5446C14.437 13.4627 13.1489 13.1122 11.9704 12.5147C10.7919 11.9171 9.7479 11.0851 8.90247 10.0696C8.89403 10.0591 8.8831 10.0508 8.87066 10.0455C8.85822 10.0402 8.84466 10.038 8.83119 10.0393C8.81772 10.0405 8.80478 10.0451 8.79351 10.0526C8.78225 10.06 8.77301 10.0702 8.76664 10.0821C8.50353 10.5813 8.36622 11.1371 8.36664 11.7013C8.36557 12.2633 8.50349 12.8168 8.7681 13.3126C9.03272 13.8084 9.41582 14.2311 9.88331 14.543C9.38804 14.5295 8.90181 14.4072 8.45914 14.1846C8.40247 14.1555 8.33414 14.1963 8.33664 14.2596C8.3699 15.0105 8.64233 15.7312 9.11414 16.3163C9.61544 16.9234 10.311 17.3388 11.0833 17.4921C10.786 17.5826 10.4774 17.6303 10.1666 17.6338C9.99769 17.6318 9.82904 17.6192 9.66164 17.5963C9.59914 17.588 9.54831 17.6463 9.56997 17.7046C9.80866 18.3507 10.2366 18.9099 10.798 19.309C11.3593 19.7082 12.028 19.9288 12.7166 19.9421C11.3869 20.988 9.71719 21.5048 8.02914 21.393C7.94081 21.3871 7.89997 21.5046 7.97581 21.5496C9.46849 22.4354 11.1726 22.9018 12.9083 22.8996C14.1913 22.913 15.4641 22.6705 16.6524 22.1864C17.8406 21.7024 18.9205 20.9864 19.829 20.0803C20.7375 19.1743 21.4563 18.0963 21.9435 16.9093C22.4307 15.7223 22.6766 14.4502 22.6666 13.1671V12.7671C22.6666 12.7542 22.6697 12.7414 22.6754 12.7299C22.6812 12.7183 22.6896 12.7082 22.7 12.7005C23.2649 12.274 23.7622 11.7646 24.175 11.1896Z" fill="#8A8DA6"/>
<rect x="0.5" y="0.500488" width="31" height="31" rx="15.5" stroke="#6C708B"/>
</svg>
