<svg width="32" height="32" viewBox="0 0 32 32" fill="none" xmlns="http://www.w3.org/2000/svg">
<path d="M16.0001 13.2921C15.2818 13.2921 14.5929 13.5775 14.085 14.0854C13.5771 14.5933 13.2917 15.2822 13.2917 16.0004C13.2917 16.7187 13.5771 17.4076 14.085 17.9155C14.5929 18.4234 15.2818 18.7088 16.0001 18.7088C16.7184 18.7088 17.4073 18.4234 17.9152 17.9155C18.4231 17.4076 18.7084 16.7187 18.7084 16.0004C18.7084 15.2822 18.4231 14.5933 17.9152 14.0854C17.4073 13.5775 16.7184 13.2921 16.0001 13.2921Z" fill="#8A8DA6"/>
<path fill-rule="evenodd" clip-rule="evenodd" d="M11.6417 8.56882C14.5384 8.24773 17.4617 8.24773 20.3583 8.56882C21.9408 8.74548 23.2167 9.99132 23.4025 11.5796C23.746 14.5169 23.746 17.4841 23.4025 20.4213C23.2167 22.0096 21.9408 23.2555 20.3592 23.433C17.4622 23.7542 14.5386 23.7542 11.6417 23.433C10.0592 23.2555 8.78335 22.0096 8.59751 20.4221C8.25395 17.4847 8.25395 14.5171 8.59751 11.5796C8.78335 9.99132 10.0592 8.74548 11.6417 8.56882ZM20.1667 11.0005C19.9457 11.0005 19.7337 11.0883 19.5774 11.2446C19.4211 11.4008 19.3333 11.6128 19.3333 11.8338C19.3333 12.0548 19.4211 12.2668 19.5774 12.4231C19.7337 12.5794 19.9457 12.6671 20.1667 12.6671C20.3877 12.6671 20.5997 12.5794 20.7559 12.4231C20.9122 12.2668 21 12.0548 21 11.8338C21 11.6128 20.9122 11.4008 20.7559 11.2446C20.5997 11.0883 20.3877 11.0005 20.1667 11.0005ZM12.0417 16.0005C12.0417 14.9507 12.4587 13.9438 13.201 13.2015C13.9434 12.4592 14.9502 12.0421 16 12.0421C17.0498 12.0421 18.0566 12.4592 18.799 13.2015C19.5413 13.9438 19.9583 14.9507 19.9583 16.0005C19.9583 17.0503 19.5413 18.0571 18.799 18.7994C18.0566 19.5418 17.0498 19.9588 16 19.9588C14.9502 19.9588 13.9434 19.5418 13.201 18.7994C12.4587 18.0571 12.0417 17.0503 12.0417 16.0005Z" fill="#8A8DA6"/>
<rect x="0.5" y="0.500488" width="31" height="31" rx="15.5" stroke="#6C708B"/>
</svg>
