<svg width="24" height="24" viewBox="0 0 24 24" fill="none" xmlns="http://www.w3.org/2000/svg">
<rect width="24" height="24" rx="12" fill="#FE5000"/>
<g clip-path="url(#clip0_4207_183037)">
<mask id="mask0_4207_183037" style="mask-type:alpha" maskUnits="userSpaceOnUse" x="4" y="4" width="16" height="16">
<rect x="4" y="4" width="16" height="16" fill="#D9D9D9"/>
</mask>
<g mask="url(#mask0_4207_183037)">
<path fill-rule="evenodd" clip-rule="evenodd" d="M16.3929 5.33337H7.60839C7.45752 5.33337 7.33398 5.45571 7.33398 5.61137V18.3889C7.33398 18.5416 7.45752 18.6666 7.60839 18.6666H10.6281V16.536C10.6281 15.7723 11.2428 15.1473 12.0008 15.1473C12.7585 15.1473 13.3732 15.7723 13.3732 16.536V18.6666H16.3929C16.5438 18.6666 16.6673 18.5416 16.6673 18.3889V5.61137C16.6673 5.45571 16.5438 5.33337 16.3929 5.33337ZM14.5867 8.1973H14.0375V7.12797H14.5867V8.1973ZM14.5867 10.5196H14.0375V9.45024H14.5867V10.5196ZM14.5867 12.8416H14.0375V11.7749H14.5867V12.8416ZM12.2749 8.1973H11.7258V7.12797H12.2749V8.1973ZM12.2749 10.5196H11.7258V9.45024H12.2749V10.5196ZM12.2749 12.8416H11.7258V11.7749H12.2749V12.8416ZM9.96322 8.1973H9.41408V7.12797H9.96322V8.1973ZM9.96322 10.5196H9.41408V9.45024H9.96322V10.5196ZM9.96322 12.8416H9.41408V11.7749H9.96322V12.8416Z" fill="white"/>
</g>
</g>
<defs>
<clipPath id="clip0_4207_183037">
<rect width="16" height="16" fill="white" transform="translate(4 4)"/>
</clipPath>
</defs>
</svg>
