<svg width="20" height="20" viewBox="0 0 20 20" fill="none" xmlns="http://www.w3.org/2000/svg">
<g clip-path="url(#clip0_3858_122619)">
<mask id="mask0_3858_122619" style="mask-type:alpha" maskUnits="userSpaceOnUse" x="0" y="0" width="20" height="20">
<path d="M0 0H20V20H0V0Z" fill="#D9D9D9"/>
</mask>
<g mask="url(#mask0_3858_122619)">
<path fill-rule="evenodd" clip-rule="evenodd" d="M10 20C8.61667 20 7.31667 19.7373 6.1 19.212C4.88333 18.6873 3.825 17.975 2.925 17.075C2.025 16.175 1.31267 15.1167 0.788 13.9C0.262667 12.6833 0 11.3833 0 10C0 8.61667 0.262667 7.31667 0.788 6.1C1.31267 4.88333 2.025 3.825 2.925 2.925C3.825 2.025 4.88333 1.31233 6.1 0.787C7.31667 0.262333 8.61667 0 10 0C11.3833 0 12.6833 0.262333 13.9 0.787C15.1167 1.31233 16.175 2.025 17.075 2.925C17.975 3.825 18.6873 4.88333 19.212 6.1C19.7373 7.31667 20 8.61667 20 10C20 11.3833 19.7373 12.6833 19.212 13.9C18.6873 15.1167 17.975 16.175 17.075 17.075C16.175 17.975 15.1167 18.6873 13.9 19.212C12.6833 19.7373 11.3833 20 10 20ZM15 6.68791C15 6.13791 14.55 5.68791 14 5.68791H13.5V4.84791C13.5 4.75954 13.4284 4.68791 13.34 4.68791H12.66C12.5716 4.68791 12.5 4.75954 12.5 4.84791V5.68791H7.5V4.84791C7.5 4.75954 7.42837 4.68791 7.34 4.68791H6.66C6.57163 4.68791 6.5 4.75954 6.5 4.84791V5.68791H6C5.45 5.68791 5 6.13791 5 6.68791V14.6879C5 15.2379 5.45 15.6879 6 15.6879H14C14.55 15.6879 15 15.2379 15 14.6879V6.68791ZM6.16 14.6879H13.84C13.9284 14.6879 14 14.6163 14 14.5279V8.34791C14 8.25954 13.9284 8.18791 13.84 8.18791H6.16C6.07163 8.18791 6 8.25954 6 8.34791V14.5279C6 14.6163 6.07163 14.6879 6.16 14.6879ZM7.60594 12.5845C7.42921 12.5845 7.28594 12.4412 7.28594 12.2645V10.6823C7.28594 10.5055 7.42921 10.3623 7.60594 10.3623H9.82562V9.63272C9.82562 9.36554 10.1337 9.21602 10.3436 9.38132L12.681 11.222C12.8437 11.3501 12.8437 11.5967 12.681 11.7248L10.3436 13.5655C10.1337 13.7308 9.82562 13.5813 9.82562 13.3141V12.5845H7.60594Z" fill="#27924C"/>
</g>
</g>
<defs>
<clipPath id="clip0_3858_122619">
<rect width="20" height="20" rx="10" fill="white"/>
</clipPath>
</defs>
</svg>
