<svg width="32" height="32" viewBox="0 0 32 32" fill="none" xmlns="http://www.w3.org/2000/svg">
<path d="M20.9167 15.0838C18.2501 13.5004 13.7917 13.3338 11.2501 14.1254C10.8334 14.2504 10.4167 14.0004 10.2917 13.6254C10.1667 13.2088 10.4167 12.7921 10.7917 12.6671C13.7501 11.7921 18.6251 11.9588 21.7084 13.7921C22.0834 14.0004 22.2084 14.5004 22.0001 14.8754C21.7917 15.1671 21.2917 15.2921 20.9167 15.0838ZM20.8334 17.4171C20.6251 17.7088 20.2501 17.8338 19.9584 17.6254C17.7084 16.2504 14.2917 15.8338 11.6667 16.6671C11.3334 16.7504 10.9584 16.5838 10.8751 16.2504C10.7917 15.9171 10.9584 15.5421 11.2917 15.4588C14.3334 14.5421 18.0834 15.0004 20.6667 16.5838C20.9167 16.7088 21.0417 17.1254 20.8334 17.4171ZM19.8334 19.7088C19.6667 19.9588 19.3751 20.0421 19.1251 19.8754C17.1667 18.6671 14.7084 18.4171 11.7917 19.0838C11.5001 19.1671 11.2501 18.9588 11.1667 18.7088C11.0834 18.4171 11.2917 18.1671 11.5417 18.0838C14.7084 17.3754 17.4584 17.6671 19.6251 19.0004C19.9167 19.1254 19.9584 19.4588 19.8334 19.7088ZM16.0001 7.66711C14.9057 7.66711 13.8221 7.88266 12.8111 8.30145C11.8 8.72024 10.8813 9.33407 10.1075 10.1079C8.54472 11.6707 7.66675 13.7903 7.66675 16.0004C7.66675 18.2106 8.54472 20.3302 10.1075 21.893C10.8813 22.6668 11.8 23.2807 12.8111 23.6994C13.8221 24.1182 14.9057 24.3338 16.0001 24.3338C18.2102 24.3338 20.3298 23.4558 21.8926 21.893C23.4554 20.3302 24.3334 18.2106 24.3334 16.0004C24.3334 14.9061 24.1179 13.8225 23.6991 12.8114C23.2803 11.8004 22.6665 10.8817 21.8926 10.1079C21.1188 9.33407 20.2002 8.72024 19.1891 8.30145C18.1781 7.88266 17.0944 7.66711 16.0001 7.66711Z" fill="#8A8DA6"/>
<rect x="0.5" y="0.500488" width="31" height="31" rx="15.5" stroke="#6C708B"/>
</svg>
