<svg width="20" height="20" viewBox="0 0 20 20" fill="none" xmlns="http://www.w3.org/2000/svg">
<mask id="mask0_4306_122677" style="mask-type:alpha" maskUnits="userSpaceOnUse" x="0" y="0" width="20" height="20">
<path d="M0 0H20V20H0V0Z" fill="#D9D9D9"/>
</mask>
<g mask="url(#mask0_4306_122677)">
<path fill-rule="evenodd" clip-rule="evenodd" d="M10 20C8.61667 20 7.31667 19.7373 6.1 19.212C4.88333 18.6873 3.825 17.975 2.925 17.075C2.025 16.175 1.31267 15.1167 0.788 13.9C0.262667 12.6833 0 11.3833 0 10C0 8.61667 0.262667 7.31667 0.788 6.1C1.31267 4.88333 2.025 3.825 2.925 2.925C3.825 2.025 4.88333 1.31233 6.1 0.787C7.31667 0.262333 8.61667 0 10 0C11.3833 0 12.6833 0.262333 13.9 0.787C15.1167 1.31233 16.175 2.025 17.075 2.925C17.975 3.825 18.6873 4.88333 19.212 6.1C19.7373 7.31667 20 8.61667 20 10C20 11.3833 19.7373 12.6833 19.212 13.9C18.6873 15.1167 17.975 16.175 17.075 17.075C16.175 17.975 15.1167 18.6873 13.9 19.212C12.6833 19.7373 11.3833 20 10 20ZM14.0104 8.02342C15.0172 8.02342 15.8333 7.16005 15.8333 6.09504C15.8333 5.03003 15.0172 4.16667 14.0104 4.16667C13.0036 4.16667 12.1875 5.03003 12.1875 6.09504C12.1875 7.16005 13.0036 8.02342 14.0104 8.02342ZM14.6181 6.09504C14.6181 6.45005 14.346 6.73783 14.0104 6.73783C13.6748 6.73783 13.4028 6.45005 13.4028 6.09504C13.4028 5.74004 13.6748 5.45225 14.0104 5.45225C14.346 5.45225 14.6181 5.74004 14.6181 6.09504ZM4.89583 8.66618C4.49313 8.66618 4.16667 9.01152 4.16667 9.43753V14.3549C4.16667 14.7809 4.49313 15.1262 4.89583 15.1262H5.77116C5.755 15.0378 5.74653 14.9465 5.74653 14.853C5.74653 14.0632 6.35184 13.4228 7.09852 13.4228C7.84521 13.4228 8.45052 14.0632 8.45052 14.853C8.45052 14.9465 8.44205 15.0378 8.42588 15.1262H11.1184C11.1022 15.0378 11.0938 14.9465 11.0938 14.853C11.0938 14.0632 11.6991 13.4228 12.4457 13.4228C13.1924 13.4228 13.7977 14.0632 13.7977 14.853C13.7977 14.9465 13.7893 15.0378 13.7731 15.1262H15.1042C15.5069 15.1262 15.8333 14.7809 15.8333 14.3549V11.8801C15.8333 10.1051 14.4731 8.66618 12.7951 8.66618H4.89583ZM5.83767 9.79106C5.50208 9.79106 5.23003 10.0789 5.23003 10.4339V10.9481C5.23003 11.3031 5.50208 11.5909 5.83767 11.5909H6.32378C6.65937 11.5909 6.93142 11.3031 6.93142 10.9481V10.4339C6.93142 10.0789 6.65937 9.79106 6.32378 9.79106H5.83767ZM8.26823 9.79106C7.93264 9.79106 7.66059 10.0789 7.66059 10.4339V10.9481C7.66059 11.3031 7.93264 11.5909 8.26823 11.5909H8.75434C9.08993 11.5909 9.36198 11.3031 9.36198 10.9481V10.4339C9.36198 10.0789 9.08993 9.79106 8.75434 9.79106H8.26823ZM10.6988 9.79106C10.3632 9.79106 10.0911 10.0789 10.0911 10.4339V10.9481C10.0911 11.3031 10.3632 11.5909 10.6988 11.5909H11.1849C11.5205 11.5909 11.7925 11.3031 11.7925 10.9481V10.4339C11.7925 10.0789 11.5205 9.79106 11.1849 9.79106H10.6988ZM13.5475 9.79106C13.5347 9.79106 13.5243 9.80203 13.5243 9.81555V12.2015C13.5243 12.5565 13.7964 12.8443 14.1319 12.8443H15.1295C15.1826 12.8443 15.2257 12.7988 15.2257 12.7425V11.5664C15.2257 10.5859 14.4743 9.79106 13.5475 9.79106ZM12.4607 15.8334C12.9641 15.8334 13.3721 15.4017 13.3721 14.8692C13.3721 14.3367 12.9641 13.905 12.4607 13.905C11.9573 13.905 11.5492 14.3367 11.5492 14.8692C11.5492 15.4017 11.9573 15.8334 12.4607 15.8334ZM7.11344 15.8334C7.61683 15.8334 8.0249 15.4017 8.0249 14.8692C8.0249 14.3367 7.61683 13.905 7.11344 13.905C6.61006 13.905 6.20199 14.3367 6.20199 14.8692C6.20199 15.4017 6.61006 15.8334 7.11344 15.8334Z" fill="#6E479A"/>
</g>
</svg>
