<svg width="24" height="24" viewBox="0 0 24 24" fill="none" xmlns="http://www.w3.org/2000/svg">
<mask id="mask0_3858_122598" style="mask-type:alpha" maskUnits="userSpaceOnUse" x="0" y="0" width="24" height="24">
<rect width="24" height="24" fill="#D9D9D9"/>
</mask>
<g mask="url(#mask0_3858_122598)">
<path d="M15.2998 13.275C15.1165 13.0917 15.0248 12.8584 15.0248 12.575C15.0248 12.2917 15.1165 12.0584 15.2998 11.875L17.1748 10L10.9998 10C10.7165 10 10.4791 9.90405 10.2878 9.71205C10.0958 9.52072 9.9998 9.28338 9.9998 9.00005C9.9998 8.71672 10.0958 8.47905 10.2878 8.28705C10.4791 8.09572 10.7165 8.00005 10.9998 8.00005H17.1748L15.2998 6.12505C15.1165 5.94172 15.0248 5.70405 15.0248 5.41205C15.0248 5.12072 15.1165 4.88338 15.2998 4.70005C15.4831 4.51672 15.7165 4.42505 15.9998 4.42505C16.2831 4.42505 16.5165 4.51672 16.6998 4.70005L20.2998 8.30005C20.3998 8.40005 20.4708 8.50838 20.5128 8.62505C20.5541 8.74172 20.5748 8.86672 20.5748 9.00005C20.5748 9.13338 20.5541 9.25838 20.5128 9.37505C20.4708 9.49172 20.3998 9.60005 20.2998 9.70005L16.6998 13.3C16.5165 13.4834 16.2831 13.5707 15.9998 13.562C15.7165 13.554 15.4831 13.4584 15.2998 13.275ZM7.2998 19.3L3.6998 15.7C3.5998 15.6 3.52914 15.4917 3.4878 15.375C3.4458 15.2584 3.4248 15.1334 3.4248 15C3.4248 14.8667 3.4458 14.7417 3.4878 14.625C3.52914 14.5084 3.5998 14.4 3.6998 14.3L7.2998 10.7C7.48314 10.5167 7.71647 10.425 7.9998 10.425C8.28314 10.425 8.51647 10.5167 8.6998 10.7C8.88314 10.8834 8.9748 11.1207 8.9748 11.412C8.9748 11.704 8.88314 11.9417 8.6998 12.125L6.8248 14L12.9998 14C13.2831 14 13.5208 14.0957 13.7128 14.287C13.9041 14.479 13.9998 14.7167 13.9998 15C13.9998 15.2834 13.9041 15.5207 13.7128 15.712C13.5208 15.904 13.2831 16 12.9998 16H6.8248L8.6998 17.875C8.88314 18.0584 8.9748 18.2917 8.9748 18.575C8.9748 18.8584 8.88314 19.0917 8.6998 19.275C8.51647 19.4584 8.28314 19.554 7.9998 19.562C7.71647 19.5707 7.48314 19.4834 7.2998 19.3Z" fill="#FE5000"/>
</g>
</svg>
