<svg width="20" height="20" viewBox="0 0 20 20" fill="none" xmlns="http://www.w3.org/2000/svg">
<g clip-path="url(#clip0_4328_189995)">
<mask id="mask0_4328_189995" style="mask-type:alpha" maskUnits="userSpaceOnUse" x="0" y="0" width="20" height="20">
<rect width="20" height="20" fill="#D9D9D9"/>
</mask>
<g mask="url(#mask0_4328_189995)">
<path d="M5.83317 19.1667C5.37484 19.1667 4.98261 19.0037 4.6565 18.6775C4.32984 18.3509 4.1665 17.9584 4.1665 17.5V2.50004C4.1665 2.04171 4.32984 1.64921 4.6565 1.32254C4.98261 0.99643 5.37484 0.833374 5.83317 0.833374H14.1665C14.6248 0.833374 15.0173 0.99643 15.344 1.32254C15.6701 1.64921 15.8332 2.04171 15.8332 2.50004V17.5C15.8332 17.9584 15.6701 18.3509 15.344 18.6775C15.0173 19.0037 14.6248 19.1667 14.1665 19.1667H5.83317ZM9.99984 17.0834C10.2359 17.0834 10.434 17.0034 10.594 16.8434C10.7534 16.6839 10.8332 16.4862 10.8332 16.25C10.8332 16.0139 10.7534 15.8162 10.594 15.6567C10.434 15.4967 10.2359 15.4167 9.99984 15.4167C9.76373 15.4167 9.56595 15.4967 9.4065 15.6567C9.2465 15.8162 9.1665 16.0139 9.1665 16.25C9.1665 16.4862 9.2465 16.6839 9.4065 16.8434C9.56595 17.0034 9.76373 17.0834 9.99984 17.0834ZM5.83317 13.3334H14.1665V5.00004H5.83317V13.3334Z" fill="white"/>
</g>
</g>
<defs>
<clipPath id="clip0_4328_189995">
<rect width="20" height="20" fill="white"/>
</clipPath>
</defs>
</svg>
