<svg width="185" height="34" viewBox="0 0 185 34" fill="none" xmlns="http://www.w3.org/2000/svg">
<path fill-rule="evenodd" clip-rule="evenodd" d="M0 13.4891C0 6.0239 6.02389 0 13.4891 0C20.9173 0 26.9782 6.0239 26.9782 13.4891C26.9782 19.1434 23.5043 23.9847 18.5521 25.9803L13.7478 21.176C17.8869 21.0282 21.176 17.6652 21.176 13.4891C21.176 9.2391 17.7391 5.80216 13.4891 5.80216C9.2391 5.80216 5.80215 9.2391 5.80215 13.4891C5.80215 15.5956 6.65215 17.5173 8.05649 18.9217L19.0325 29.8977L14.9304 33.9999L3.95433 23.0238C1.51521 20.5847 0 17.2217 0 13.4891ZM9.75676 17.222C11.7894 19.2916 15.1524 19.2916 17.185 17.222C19.2546 15.1525 19.2546 11.8264 17.185 9.79381C15.1524 7.72425 11.8263 7.72425 9.75676 9.79381C7.6872 11.8264 7.6872 15.1525 9.75676 17.222Z" fill="#FE5000"/>
<path d="M105.559 2.14347V2.99347C105.559 3.62173 105.338 4.13912 104.931 4.54564C104.525 4.98911 104.007 5.17389 103.416 5.17389C102.825 5.17389 102.307 4.95216 101.864 4.54564C101.42 4.10216 101.236 3.58477 101.236 2.99347V2.14347C101.236 1.55217 101.457 1.03478 101.864 0.62826C102.307 0.184784 102.825 0 103.416 0C104.007 0 104.525 0.22174 104.931 0.62826C105.375 0.997824 105.559 1.51521 105.559 2.14347Z" fill="#47495D"/>
<path fill-rule="evenodd" clip-rule="evenodd" d="M37.264 33.3348C36.8205 33.7783 36.3031 34 35.7118 34C35.1205 34 34.6031 33.7783 34.1596 33.3348C33.7162 32.8913 33.5314 32.3739 33.5314 31.8196V8.46313C33.5314 7.87183 33.7531 7.35444 34.1596 6.94792C34.5662 6.5414 35.0835 6.31966 35.6379 6.31966C36.2292 6.31966 36.7096 6.46749 37.1161 6.80009C37.5227 7.1327 37.7814 7.50227 37.8553 7.9827C39.5553 6.87401 41.3661 6.31966 43.3248 6.31966C46.0226 6.31966 48.3139 7.31748 50.1987 9.31313C52.1204 11.3088 53.0444 13.674 53.0444 16.4457C53.0444 19.2174 52.0835 21.5457 50.1987 23.5044C48.277 25.4631 45.9857 26.4239 43.3248 26.4239C41.2553 26.4239 39.4814 25.8696 37.9292 24.7609V31.8565C37.9292 32.4109 37.7074 32.9283 37.264 33.3348ZM47.0944 12.3805C46.0596 11.2718 44.7661 10.7175 43.2879 10.7175C41.7727 10.7175 40.5161 11.2718 39.4814 12.3805C38.4466 13.4892 37.9292 14.8935 37.9292 16.5566C37.9292 18.2196 38.4466 19.5131 39.4814 20.474C40.5161 21.5827 41.7726 22.174 43.2509 22.174C44.7292 22.174 46.0226 21.6196 47.0574 20.474C48.1292 19.3283 48.6465 17.9979 48.6465 16.4827C48.6835 14.9305 48.1291 13.5631 47.0944 12.3805Z" fill="#47495D"/>
<path fill-rule="evenodd" clip-rule="evenodd" d="M75.1436 15.8544C75.1436 16.4457 74.9588 16.9261 74.5523 17.2957C74.1458 17.6653 73.6653 17.8501 73.0001 17.8501H60.2132C60.4719 18.9957 60.9154 19.8827 61.5806 20.5109C62.4306 21.5087 63.6871 22.1 65.3501 22.2848C67.0132 22.4696 68.4175 22.174 69.6371 21.287C70.0436 20.8435 70.561 20.6587 71.2631 20.6587C71.9284 20.6587 72.4088 20.8435 72.6675 21.1761C73.4066 21.9892 73.4066 22.8761 72.6675 23.8C70.7458 25.5739 68.3805 26.4609 65.5719 26.4239C62.7632 26.4239 60.4349 25.4261 58.5132 23.4674C56.6284 21.5087 55.6675 19.1435 55.6306 16.3718C55.6675 13.6001 56.6284 11.2349 58.5132 9.27617C60.398 7.31749 62.6893 6.31966 65.3871 6.31966C68.0849 6.31966 70.3392 7.20661 72.1501 8.94356C73.9979 10.7175 74.9957 12.9349 75.1436 15.6327V15.8544ZM65.461 10.1631C63.9088 10.237 62.6523 10.7175 61.7284 11.6044C60.8045 12.4914 60.2132 13.4153 60.0284 14.4131H71.411C71.1892 13.4892 70.524 12.5653 69.4523 11.6783C68.3805 10.7914 67.0501 10.311 65.461 10.1631Z" fill="#47495D"/>
<path fill-rule="evenodd" clip-rule="evenodd" d="M77.2129 16.4827C77.2129 19.2544 78.1368 21.6196 80.0215 23.5413C81.8694 25.6109 84.1607 26.6087 86.8585 26.6826C88.8172 26.6826 90.5911 26.1283 92.1432 25.0566C91.8476 26.2761 91.2193 27.3109 90.2585 28.1239C89.2606 28.937 88.2628 29.3435 87.1911 29.3435C86.1563 29.3435 85.2693 29.1587 84.5672 28.7892C84.0128 28.5674 83.4585 28.5305 82.9041 28.7152C82.3498 28.9 81.9433 29.2326 81.6846 29.787C81.4259 30.3044 81.3889 30.8587 81.5737 31.45C81.7585 32.0044 82.0911 32.4109 82.6455 32.6696C83.9389 33.3348 85.3433 33.6674 86.8585 33.6674C89.5193 33.6674 91.8106 32.7065 93.6954 30.8218C95.5802 28.9 96.5411 26.6457 96.5411 23.9848V8.46313C96.5411 7.87183 96.3193 7.35444 95.9128 6.94792C95.5063 6.5414 95.0258 6.31966 94.4715 6.31966C93.9171 6.31966 93.4367 6.46749 93.0302 6.80009C92.6237 7.1327 92.365 7.53922 92.2541 8.01965C90.7019 6.87401 88.8911 6.31966 86.8585 6.31966C84.1607 6.31966 81.9063 7.31748 80.0215 9.31313C78.1368 11.3088 77.2129 13.7109 77.2129 16.4827ZM83.052 20.5848C82.0542 19.4392 81.5368 18.1087 81.5368 16.5196C81.5368 14.9305 82.0541 13.5631 83.0889 12.3805C84.1237 11.2349 85.3802 10.6436 86.8585 10.6436C88.3367 10.6436 89.5933 11.1979 90.628 12.3436C91.6628 13.4892 92.1802 14.8935 92.1802 16.5196C92.1802 18.1457 91.6998 19.5131 90.665 20.6218C89.6302 21.7305 88.3737 22.2848 86.8585 22.2848C85.3433 22.2848 84.0868 21.6935 83.052 20.5848Z" fill="#47495D"/>
<path d="M103.416 6.35679C102.787 6.35679 102.27 6.57852 101.863 6.98504C101.42 7.42852 101.235 7.94591 101.272 8.61112V24.3176C101.272 24.9089 101.457 25.3893 101.9 25.8328C102.344 26.2393 102.861 26.4611 103.452 26.4611C104.044 26.4611 104.561 26.2393 104.968 25.8328C105.374 25.4263 105.596 24.9089 105.596 24.2806V8.57417C105.596 7.94591 105.374 7.39156 104.968 6.98504C104.561 6.57852 104.044 6.35679 103.416 6.35679Z" fill="#47495D"/>
<path d="M184.178 2.14347V2.99347C184.178 3.62173 183.956 4.13912 183.55 4.54564C183.143 4.98911 182.626 5.17389 182.034 5.17389C181.443 5.17389 180.926 4.95216 180.482 4.54564C180.039 4.10216 179.854 3.58477 179.854 2.99347V2.14347C179.854 1.55217 180.076 1.03478 180.482 0.62826C180.926 0.184784 181.443 0 182.034 0C182.626 0 183.143 0.22174 183.55 0.62826C183.993 0.997824 184.178 1.51521 184.178 2.14347Z" fill="#FE5000"/>
<path fill-rule="evenodd" clip-rule="evenodd" d="M115.882 33.3348C115.438 33.7783 114.921 34 114.33 34C113.738 34 113.221 33.7783 112.777 33.3348C112.334 32.8913 112.149 32.3739 112.149 31.8196V8.46313C112.149 7.87183 112.371 7.35444 112.777 6.94792C113.184 6.5414 113.701 6.31966 114.256 6.31966C114.847 6.31966 115.327 6.46749 115.734 6.80009C116.14 7.1327 116.399 7.50227 116.473 7.9827C118.173 6.87401 119.984 6.31966 121.943 6.31966C124.64 6.31966 126.932 7.31748 128.816 9.31313C130.738 11.3088 131.662 13.674 131.662 16.4457C131.662 19.2174 130.701 21.5457 128.816 23.5044C126.895 25.4631 124.603 26.4239 121.943 26.4239C119.873 26.4239 118.099 25.8696 116.547 24.7609V31.8565C116.547 32.4109 116.325 32.9283 115.882 33.3348ZM125.712 12.3805C124.677 11.2718 123.384 10.7175 121.906 10.7175C120.39 10.7175 119.134 11.2718 118.099 12.3805C117.064 13.4892 116.547 14.8935 116.547 16.5566C116.547 18.2196 117.064 19.5131 118.099 20.474C119.134 21.5827 120.39 22.174 121.869 22.174C123.347 22.174 124.64 21.6196 125.675 20.474C126.747 19.3283 127.264 17.9979 127.264 16.4827C127.301 14.9305 126.784 13.5631 125.712 12.3805Z" fill="#FE5000"/>
<path fill-rule="evenodd" clip-rule="evenodd" d="M153.762 15.8544C153.762 16.4457 153.577 16.9261 153.171 17.2957C152.764 17.6653 152.247 17.8501 151.619 17.8501H138.832C139.09 18.9957 139.534 19.8827 140.199 20.5109C141.049 21.5087 142.306 22.1 143.969 22.2848C145.632 22.4696 147.036 22.174 148.255 21.287C148.662 20.8435 149.179 20.6587 149.882 20.6587C150.547 20.6587 151.027 20.8435 151.286 21.1761C152.025 21.9892 152.025 22.8761 151.286 23.8C149.364 25.5739 146.999 26.4609 144.19 26.4239C141.382 26.4239 139.053 25.4261 137.132 23.4674C135.247 21.5087 134.286 19.1435 134.249 16.3718C134.286 13.6001 135.247 11.2349 137.132 9.27617C139.016 7.31749 141.308 6.31966 144.006 6.31966C146.703 6.31966 148.958 7.20661 150.769 8.94356C152.616 10.7175 153.614 12.9349 153.762 15.6327V15.8544ZM144.079 10.1631C142.527 10.237 141.271 10.7175 140.347 11.6044C139.423 12.4914 138.832 13.4153 138.647 14.4131H150.029C149.808 13.4892 149.142 12.5653 148.071 11.6783C146.999 10.7914 145.669 10.311 144.079 10.1631Z" fill="#FE5000"/>
<path fill-rule="evenodd" clip-rule="evenodd" d="M155.832 16.4827C155.832 19.2544 156.756 21.6196 158.641 23.5413C160.488 25.6109 162.78 26.6087 165.515 26.6826C167.473 26.6826 169.247 26.1283 170.799 25.0566C170.504 26.2761 169.875 27.3109 168.915 28.1239C167.917 28.937 166.919 29.3435 165.847 29.3435C164.812 29.3435 163.925 29.1587 163.223 28.7892C162.669 28.5674 162.115 28.5305 161.56 28.7152C161.006 28.9 160.599 29.2326 160.341 29.787C160.082 30.3044 160.045 30.8587 160.23 31.45C160.415 32.0044 160.747 32.4109 161.302 32.6696C162.558 33.3348 163.999 33.6674 165.515 33.6674C168.138 33.6674 170.43 32.7065 172.315 30.8218C174.199 28.9 175.16 26.6457 175.16 23.9848V8.46313C175.16 7.87183 174.938 7.35444 174.532 6.94792C174.125 6.5414 173.645 6.31966 173.091 6.31966C172.536 6.31966 172.056 6.46749 171.649 6.80009C171.243 7.1327 170.984 7.53922 170.873 8.01965C169.321 6.87401 167.51 6.31966 165.478 6.31966C162.78 6.31966 160.525 7.31748 158.641 9.31313C156.756 11.3088 155.832 13.7109 155.832 16.4827ZM161.671 20.5848C160.673 19.4392 160.156 18.1087 160.156 16.5196C160.156 14.9305 160.673 13.5631 161.708 12.3805C162.743 11.2349 163.999 10.6436 165.478 10.6436C166.956 10.6436 168.212 11.1979 169.247 12.3436C170.282 13.4892 170.799 14.8935 170.799 16.5196C170.799 18.1457 170.319 19.5131 169.284 20.6218C168.249 21.7305 166.993 22.2848 165.478 22.2848C163.962 22.2848 162.706 21.6935 161.671 20.5848Z" fill="#FE5000"/>
<path d="M182.035 6.35679C181.406 6.35679 180.889 6.57852 180.483 6.98504C180.039 7.42852 179.854 7.94591 179.891 8.61112V24.3176C179.891 24.9089 180.076 25.3893 180.519 25.8328C180.963 26.2393 181.48 26.4611 182.072 26.4611C182.663 26.4611 183.18 26.2393 183.587 25.8328C183.993 25.4263 184.215 24.9089 184.215 24.2806V8.57417C184.215 7.94591 183.993 7.39156 183.587 6.98504C183.18 6.57852 182.663 6.35679 182.035 6.35679Z" fill="#FE5000"/>
</svg>
