<svg width="32" height="32" viewBox="0 0 32 32" fill="none" xmlns="http://www.w3.org/2000/svg">
<path d="M19.8332 10.8505C19.2636 10.2002 18.9496 9.36502 18.9499 8.50049H16.3749V18.8338C16.355 19.393 16.1189 19.9227 15.7164 20.3113C15.3138 20.6999 14.7761 20.9171 14.2166 20.9172C13.0332 20.9172 12.0499 19.9505 12.0499 18.7505C12.0499 17.3172 13.4332 16.2422 14.8582 16.6838V14.0505C11.9832 13.6672 9.46655 15.9005 9.46655 18.7505C9.46655 21.5255 11.7666 23.5005 14.2082 23.5005C16.8249 23.5005 18.9499 21.3755 18.9499 18.7505V13.5088C19.9941 14.2587 21.2477 14.661 22.5332 14.6588V12.0838C22.5332 12.0838 20.9666 12.1588 19.8332 10.8505Z" fill="#8A8DA6"/>
<rect x="0.5" y="0.500488" width="31" height="31" rx="15.5" stroke="#6C708B"/>
</svg>
