<svg width="21" height="20" viewBox="0 0 21 20" fill="none" xmlns="http://www.w3.org/2000/svg">
<g clip-path="url(#clip0_5053_17556)">
<mask id="mask0_5053_17556" style="mask-type:alpha" maskUnits="userSpaceOnUse" x="0" y="0" width="21" height="20">
<rect x="0.75" width="20" height="20" fill="#D9D9D9"/>
</mask>
<g mask="url(#mask0_5053_17556)">
<path fill-rule="evenodd" clip-rule="evenodd" d="M7.2238 16.77L7.54922 16.2492H13.7435L14.0693 16.77H7.2238ZM13.9314 14.5852C13.5868 14.6127 13.1918 14.6352 12.7447 14.6519L13.0922 15.2081H8.20048L8.5484 14.6519C8.10048 14.6352 7.70589 14.6127 7.36171 14.5852L5.51668 17.5365C5.36417 17.7807 5.43876 18.1019 5.6821 18.2544C5.76835 18.3078 5.86377 18.3332 5.95793 18.3332C6.13169 18.3332 6.30128 18.2469 6.40003 18.0886L6.57295 17.8124H14.7202L14.8923 18.0886C14.991 18.2469 15.1614 18.3332 15.3348 18.3332C15.429 18.3332 15.5244 18.3078 15.6102 18.2544C15.854 18.1019 15.9281 17.7807 15.7752 17.5365L13.9314 14.5852Z" fill="#8A8DA6"/>
<path fill-rule="evenodd" clip-rule="evenodd" d="M14.8127 7.9169C14.2919 8.43774 12.9468 8.43774 10.6459 8.43774C8.34507 8.43774 7.00004 8.43774 6.4792 7.9169C5.95835 7.39605 5.95835 6.86729 5.95835 5.5731C5.95835 4.27891 5.95835 3.75015 6.4792 3.22931C7.00004 2.70846 8.34507 2.70846 10.6459 2.70846C12.9468 2.70846 14.2919 2.70846 14.8127 3.22931C15.3335 3.75015 15.3335 4.27891 15.3335 5.5731C15.3335 6.86729 15.3335 7.39605 14.8127 7.9169ZM13.5105 12.0835C12.7909 12.0835 12.2084 11.501 12.2084 10.7814C12.2084 10.0622 12.7909 9.4793 13.5105 9.4793C14.2296 9.4793 14.8126 10.0622 14.8126 10.7814C14.8126 11.501 14.2296 12.0835 13.5105 12.0835ZM7.7813 12.0835C7.0617 12.0835 6.47919 11.501 6.47919 10.7814C6.47919 10.0622 7.0617 9.4793 7.7813 9.4793C8.50048 9.4793 9.08341 10.0622 9.08341 10.7814C9.08341 11.501 8.50048 12.0835 7.7813 12.0835ZM15.8544 2.18747C15.3336 1.66663 13.5219 1.66663 10.646 1.66663C7.76966 1.66663 5.95837 1.66663 5.43753 2.18747C4.91669 2.70831 4.91669 4.75252 4.91669 7.91675C4.91669 10.4514 4.9171 12.2656 5.18544 13.1548C5.25211 13.376 5.33378 13.5427 5.43753 13.646C5.4917 13.7002 5.56128 13.7464 5.64253 13.7894C6.34588 14.166 8.06592 14.1669 10.646 14.1669C13.226 14.1669 14.9456 14.166 15.649 13.7894C15.7302 13.7464 15.8007 13.7002 15.8544 13.646C15.9577 13.5427 16.0394 13.376 16.1061 13.1548C16.3744 12.2656 16.3752 10.4514 16.3752 7.91675C16.3752 4.75252 16.3752 2.70831 15.8544 2.18747Z" fill="#8A8DA6"/>
<path fill-rule="evenodd" clip-rule="evenodd" d="M13.5105 10C13.9417 10 14.2917 10.35 14.2917 10.7813C14.2917 11.2129 13.9417 11.5625 13.5105 11.5625C13.0788 11.5625 12.7292 11.2129 12.7292 10.7813C12.7292 10.35 13.0788 10 13.5105 10Z" fill="#8A8DA6"/>
<path fill-rule="evenodd" clip-rule="evenodd" d="M7.78127 10C8.21252 10 8.56253 10.35 8.56253 10.7813C8.56253 11.2129 8.21252 11.5625 7.78127 11.5625C7.34959 11.5625 7 11.2129 7 10.7813C7 10.35 7.34959 10 7.78127 10Z" fill="#8A8DA6"/>
</g>
</g>
<defs>
<clipPath id="clip0_5053_17556">
<rect width="20" height="20" fill="white" transform="translate(0.75)"/>
</clipPath>
</defs>
</svg>
