<svg width="32" height="32" viewBox="0 0 32 32" fill="none" xmlns="http://www.w3.org/2000/svg">
<path d="M17.8334 8.39636C16.8112 8.39636 15.8309 8.80242 15.1081 9.52522C14.3853 10.248 13.9792 11.2283 13.9792 12.2505V14.3964H11.9167C11.8134 14.3964 11.7292 14.4797 11.7292 14.5839V17.4172C11.7292 17.5205 11.8126 17.6047 11.9167 17.6047H13.9792V23.4172C13.9792 23.5205 14.0626 23.6047 14.1667 23.6047H17.0001C17.1034 23.6047 17.1876 23.5214 17.1876 23.4172V17.6047H19.2684C19.3542 17.6047 19.4292 17.5464 19.4501 17.463L20.1584 14.6297C20.1654 14.602 20.166 14.5732 20.1601 14.5453C20.1542 14.5174 20.1421 14.4912 20.1245 14.4687C20.107 14.4462 20.0846 14.428 20.059 14.4154C20.0334 14.4029 20.0053 14.3964 19.9767 14.3964H17.1876V12.2505C17.1876 12.1657 17.2043 12.0817 17.2367 12.0034C17.2692 11.925 17.3168 11.8538 17.3767 11.7939C17.4367 11.7339 17.5079 11.6863 17.5863 11.6539C17.6646 11.6214 17.7486 11.6047 17.8334 11.6047H20.0001C20.1034 11.6047 20.1876 11.5214 20.1876 11.4172V8.58386C20.1876 8.48053 20.1042 8.39636 20.0001 8.39636H17.8334Z" fill="#8A8DA6"/>
<rect x="0.5" y="0.500488" width="31" height="31" rx="15.5" stroke="#6C708B"/>
</svg>
