<svg width="25" height="24" viewBox="0 0 25 24" fill="none" xmlns="http://www.w3.org/2000/svg">
<rect x="0.5" width="24" height="24" rx="12" fill="#FE5000"/>
<g clip-path="url(#clip0_4207_183076)">
<mask id="mask0_4207_183076" style="mask-type:alpha" maskUnits="userSpaceOnUse" x="4" y="4" width="17" height="16">
<rect x="4.5" y="4" width="16" height="16" fill="#D9D9D9"/>
</mask>
<g mask="url(#mask0_4207_183076)">
<path fill-rule="evenodd" clip-rule="evenodd" d="M18.4869 8.05462H18.2148V6.83004C18.2148 6.38129 17.8644 5.90421 17.4356 5.77046C17.4356 5.77046 16.0377 5.33337 12.5007 5.33337C8.96315 5.33337 7.56523 5.77046 7.56523 5.77046C7.1369 5.90421 6.78607 6.38129 6.78607 6.83004V8.05462H6.5144C6.13982 8.05462 5.83398 8.36087 5.83398 8.73462V10.3675C5.83398 10.7413 6.13982 11.048 6.5144 11.048H6.78607V17.17H7.19482V17.4421C7.19482 18.1159 7.74565 18.6667 8.41898 18.6667C9.09232 18.6667 9.64357 18.1159 9.64357 17.4421V17.17H15.3582V17.4421C15.3582 18.1159 15.909 18.6667 16.5823 18.6667C17.2557 18.6667 17.8065 18.1159 17.8065 17.4421V17.17H18.2148V11.048H18.4869C18.8615 11.048 19.1673 10.7413 19.1673 10.3675V8.73462C19.1673 8.36087 18.8615 8.05462 18.4869 8.05462ZM16.446 16.218C16.0702 16.218 15.7656 15.9134 15.7656 15.5376C15.7656 15.1621 16.0702 14.8571 16.446 14.8571C16.8219 14.8571 17.1265 15.1621 17.1265 15.5376C17.1265 15.9134 16.8219 16.218 16.446 16.218ZM8.55542 16.218C8.17958 16.218 7.875 15.9134 7.875 15.5376C7.875 15.1621 8.17958 14.8571 8.55542 14.8571C8.93125 14.8571 9.23583 15.1621 9.23583 15.5376C9.23583 15.9134 8.93125 16.218 8.55542 16.218ZM8.54167 13.2244C8.17348 13.2244 7.875 12.9259 7.875 12.5577V8.72107C7.875 8.35288 8.17348 8.0544 8.54167 8.0544H16.46C16.8282 8.0544 17.1267 8.35288 17.1267 8.72107V12.5577C17.1267 12.9259 16.8282 13.2244 16.46 13.2244H8.54167ZM10.4596 6.69378C10.4596 6.99432 10.7033 7.23795 11.0038 7.23795H13.9971C14.2977 7.23795 14.5413 6.99432 14.5413 6.69378C14.5413 6.39325 14.2977 6.14962 13.9971 6.14962H11.0038C10.7033 6.14962 10.4596 6.39325 10.4596 6.69378Z" fill="white"/>
</g>
</g>
<defs>
<clipPath id="clip0_4207_183076">
<rect width="16" height="16" fill="white" transform="translate(4.5 4)"/>
</clipPath>
</defs>
</svg>
