<svg width="24" height="25" viewBox="0 0 24 25" fill="none" xmlns="http://www.w3.org/2000/svg">
<g clip-path="url(#clip0_3704_17530)">
<mask id="mask0_3704_17530" style="mask-type:alpha" maskUnits="userSpaceOnUse" x="0" y="0" width="24" height="25">
<rect y="0.719727" width="24" height="24" fill="#D9D9D9"/>
</mask>
<g mask="url(#mask0_3704_17530)">
<path d="M13.3 18.0198L8.70005 13.4198C8.60005 13.3198 8.52938 13.2114 8.48805 13.0948C8.44605 12.9781 8.42505 12.8531 8.42505 12.7198C8.42505 12.5864 8.44605 12.4614 8.48805 12.3448C8.52938 12.2281 8.60005 12.1198 8.70005 12.0198L13.3 7.41978C13.4834 7.23644 13.7167 7.14478 14 7.14478C14.2834 7.14478 14.5167 7.23644 14.7 7.41978C14.8834 7.60311 14.975 7.83644 14.975 8.11978C14.975 8.40311 14.8834 8.63644 14.7 8.81978L10.8 12.7198L14.7 16.6198C14.8834 16.8031 14.975 17.0364 14.975 17.3198C14.975 17.6031 14.8834 17.8364 14.7 18.0198C14.5167 18.2031 14.2834 18.2948 14 18.2948C13.7167 18.2948 13.4834 18.2031 13.3 18.0198Z" fill="#30303B"/>
</g>
</g>
<defs>
<clipPath id="clip0_3704_17530">
<rect width="24" height="24" fill="white" transform="translate(0 0.719727)"/>
</clipPath>
</defs>
</svg>
