<svg width="16" height="16" viewBox="0 0 16 16" fill="none" xmlns="http://www.w3.org/2000/svg">
<g clip-path="url(#clip0_4306_234382)">
<mask id="mask0_4306_234382" style="mask-type:alpha" maskUnits="userSpaceOnUse" x="0" y="0" width="16" height="16">
<rect width="16" height="16" fill="#D9D9D9"/>
</mask>
<g mask="url(#mask0_4306_234382)">
<path d="M3.33333 14C2.96667 14 2.65267 13.8696 2.39133 13.6087C2.13044 13.3473 2 13.0333 2 12.6667V6C2 5.63333 2.13044 5.31933 2.39133 5.058C2.65267 4.79711 2.96667 4.66667 3.33333 4.66667H4.66667V3.33333C4.66667 2.96667 4.79733 2.65267 5.05867 2.39133C5.31956 2.13044 5.63333 2 6 2H10C10.3667 2 10.6807 2.13044 10.942 2.39133C11.2029 2.65267 11.3333 2.96667 11.3333 3.33333V7.33333H12.6667C13.0333 7.33333 13.3473 7.46378 13.6087 7.72467C13.8696 7.986 14 8.3 14 8.66667V12.6667C14 13.0333 13.8696 13.3473 13.6087 13.6087C13.3473 13.8696 13.0333 14 12.6667 14H8.66667V11.3333H7.33333V14H3.33333ZM3.33333 12.6667H4.66667V11.3333H3.33333V12.6667ZM3.33333 10H4.66667V8.66667H3.33333V10ZM3.33333 7.33333H4.66667V6H3.33333V7.33333ZM6 10H7.33333V8.66667H6V10ZM6 7.33333H7.33333V6H6V7.33333ZM6 4.66667H7.33333V3.33333H6V4.66667ZM8.66667 10H10V8.66667H8.66667V10ZM8.66667 7.33333H10V6H8.66667V7.33333ZM8.66667 4.66667H10V3.33333H8.66667V4.66667ZM11.3333 12.6667H12.6667V11.3333H11.3333V12.6667ZM11.3333 10H12.6667V8.66667H11.3333V10Z" fill="#8A8DA6"/>
</g>
</g>
<defs>
<clipPath id="clip0_4306_234382">
<rect width="16" height="16" fill="white"/>
</clipPath>
</defs>
</svg>
