<svg width="21" height="20" viewBox="0 0 21 20" fill="none" xmlns="http://www.w3.org/2000/svg">
<g clip-path="url(#clip0_4306_123776)">
<mask id="mask0_4306_123776" style="mask-type:alpha" maskUnits="userSpaceOnUse" x="0" y="0" width="21" height="20">
<rect x="0.333496" width="20" height="20" fill="#D9D9D9"/>
</mask>
<g mask="url(#mask0_4306_123776)">
<path fill-rule="evenodd" clip-rule="evenodd" d="M14.2335 19.212C13.0168 19.7373 11.7168 20 10.3335 20C8.95016 20 7.65016 19.7373 6.4335 19.212C5.21683 18.6873 4.15849 17.975 3.25849 17.075C2.35849 16.175 1.64616 15.1167 1.12149 13.9C0.596162 12.6833 0.333496 11.3833 0.333496 10C0.333496 8.61667 0.596162 7.31667 1.12149 6.1C1.64616 4.88333 2.35849 3.825 3.25849 2.925C4.15849 2.025 5.21683 1.31233 6.4335 0.787C7.65016 0.262333 8.95016 0 10.3335 0C11.7168 0 13.0168 0.262333 14.2335 0.787C15.4502 1.31233 16.5085 2.025 17.4085 2.925C18.3085 3.825 19.0208 4.88333 19.5455 6.1C20.0708 7.31667 20.3335 8.61667 20.3335 10C20.3335 11.3833 20.0708 12.6833 19.5455 13.9C19.0208 15.1167 18.3085 16.175 17.4085 17.075C16.5085 17.975 15.4502 18.6873 14.2335 19.212ZM10.4408 10.6619C10.7042 10.9258 11.021 11.0577 11.3912 11.0577H12.7373C13.1075 11.0577 13.4246 10.9258 13.6884 10.6619C13.9518 10.3985 14.0835 10.0817 14.0835 9.71154V6.34615C14.0835 5.97596 13.9518 5.65917 13.6884 5.39577C13.4246 5.13192 13.1075 5 12.7373 5H11.3912C11.021 5 10.7042 5.13192 10.4408 5.39577C10.177 5.65917 10.045 5.97596 10.045 6.34615V9.71154C10.045 10.0817 10.177 10.3985 10.4408 10.6619ZM7.55465 14.1626C7.79023 14.3363 8.05946 14.4231 8.36234 14.4231H13.4104C13.6011 14.4231 13.7609 14.3585 13.8896 14.2292C14.0189 14.1004 14.0835 13.9407 14.0835 13.75C14.0835 13.5593 14.0189 13.3996 13.8896 13.2708C13.7609 13.1415 13.6011 13.0769 13.4104 13.0769H8.36234L6.67965 7.69231V5.67308C6.67965 5.48237 6.61526 5.3224 6.48648 5.19317C6.35725 5.06439 6.19728 5 6.00657 5C5.81587 5 5.6559 5.06439 5.52667 5.19317C5.39789 5.3224 5.3335 5.48237 5.3335 5.67308V7.49038C5.3335 7.55769 5.33641 7.625 5.34225 7.69231C5.34763 7.75962 5.36154 7.82131 5.38398 7.8774L7.06667 13.4639C7.15641 13.7556 7.31907 13.9885 7.55465 14.1626ZM7.54657 16.2485C7.67536 16.3777 7.8351 16.4423 8.0258 16.4423H13.4104C13.6011 16.4423 13.7609 16.3777 13.8896 16.2485C14.0189 16.1197 14.0835 15.9599 14.0835 15.7692C14.0835 15.5785 14.0189 15.4188 13.8896 15.29C13.7609 15.1608 13.6011 15.0962 13.4104 15.0962H8.0258C7.8351 15.0962 7.67536 15.1608 7.54657 15.29C7.41734 15.4188 7.35273 15.5785 7.35273 15.7692C7.35273 15.9599 7.41734 16.1197 7.54657 16.2485Z" fill="#35BBCA"/>
</g>
</g>
<defs>
<clipPath id="clip0_4306_123776">
<rect x="0.333496" width="20" height="20" rx="10" fill="white"/>
</clipPath>
</defs>
</svg>
