<svg width="24" height="24" viewBox="0 0 24 24" fill="none" xmlns="http://www.w3.org/2000/svg">
<rect width="24" height="24" rx="12" fill="#FE5000"/>
<g clip-path="url(#clip0_4207_183057)">
<mask id="mask0_4207_183057" style="mask-type:alpha" maskUnits="userSpaceOnUse" x="4" y="4" width="16" height="16">
<rect x="4" y="4" width="16" height="16" fill="#D9D9D9"/>
</mask>
<g mask="url(#mask0_4207_183057)">
<path fill-rule="evenodd" clip-rule="evenodd" d="M9.17904 17.4161L9.43938 16.9994H14.3948L14.6555 17.4161H9.17904ZM14.5451 15.6682C14.2695 15.6902 13.9535 15.7082 13.5958 15.7215L13.8738 16.1666H9.96038L10.2387 15.7215C9.88038 15.7082 9.56471 15.6902 9.28937 15.6682L7.81334 18.0293C7.69134 18.2246 7.75101 18.4816 7.94568 18.6036C8.01468 18.6463 8.09101 18.6666 8.16635 18.6666C8.30535 18.6666 8.44102 18.5976 8.52002 18.4709L8.65836 18.2499H15.1762L15.3138 18.4709C15.3928 18.5976 15.5292 18.6666 15.6678 18.6666C15.7432 18.6666 15.8195 18.6463 15.8882 18.6036C16.0832 18.4816 16.1425 18.2246 16.0202 18.0293L14.5451 15.6682Z" fill="white"/>
<path fill-rule="evenodd" clip-rule="evenodd" d="M15.2508 10.3336C14.8341 10.7503 13.7581 10.7503 11.9174 10.7503C10.0767 10.7503 9.00067 10.7503 8.58399 10.3336C8.16732 9.91692 8.16732 9.49391 8.16732 8.45855C8.16732 7.4232 8.16732 7.00019 8.58399 6.58352C9.00067 6.16684 10.0767 6.16684 11.9174 6.16684C13.7581 6.16684 14.8341 6.16684 15.2508 6.58352C15.6675 7.00019 15.6675 7.4232 15.6675 8.45855C15.6675 9.49391 15.6675 9.91692 15.2508 10.3336ZM14.209 13.6669C13.6333 13.6669 13.1673 13.2009 13.1673 12.6252C13.1673 12.0499 13.6333 11.5835 14.209 11.5835C14.7843 11.5835 15.2507 12.0499 15.2507 12.6252C15.2507 13.2009 14.7843 13.6669 14.209 13.6669ZM9.62567 13.6669C9.04999 13.6669 8.58398 13.2009 8.58398 12.6252C8.58398 12.0499 9.04999 11.5835 9.62567 11.5835C10.201 11.5835 10.6674 12.0499 10.6674 12.6252C10.6674 13.2009 10.201 13.6669 9.62567 13.6669ZM16.0842 5.75005C15.6675 5.33337 14.2181 5.33337 11.9174 5.33337C9.61636 5.33337 8.16733 5.33337 7.75066 5.75005C7.33398 6.16672 7.33398 7.80209 7.33398 10.3335C7.33398 12.3612 7.33432 13.8125 7.54899 14.5239C7.60232 14.7009 7.66766 14.8342 7.75066 14.9169C7.79399 14.9602 7.84966 14.9972 7.91466 15.0316C8.47734 15.3329 9.85337 15.3336 11.9174 15.3336C13.9814 15.3336 15.3571 15.3329 15.9198 15.0316C15.9848 14.9972 16.0412 14.9602 16.0842 14.9169C16.1668 14.8342 16.2322 14.7009 16.2855 14.5239C16.5002 13.8125 16.5008 12.3612 16.5008 10.3335C16.5008 7.80209 16.5008 6.16672 16.0842 5.75005Z" fill="white"/>
<path fill-rule="evenodd" clip-rule="evenodd" d="M14.209 12C14.554 12 14.834 12.28 14.834 12.625C14.834 12.9704 14.554 13.25 14.209 13.25C13.8637 13.25 13.584 12.9704 13.584 12.625C13.584 12.28 13.8637 12 14.209 12Z" fill="white"/>
<path fill-rule="evenodd" clip-rule="evenodd" d="M9.62501 12C9.97002 12 10.25 12.28 10.25 12.625C10.25 12.9704 9.97002 13.25 9.62501 13.25C9.27967 13.25 9 12.9704 9 12.625C9 12.28 9.27967 12 9.62501 12Z" fill="white"/>
</g>
</g>
<defs>
<clipPath id="clip0_4207_183057">
<rect width="16" height="16" fill="white" transform="translate(4 4)"/>
</clipPath>
</defs>
</svg>
