<svg width="24" height="24" viewBox="0 0 24 24" fill="none" xmlns="http://www.w3.org/2000/svg">
<rect width="24" height="24" rx="4" fill="#FE5000"/>
<g clip-path="url(#clip0_4083_121583)">
<mask id="mask0_4083_121583" style="mask-type:alpha" maskUnits="userSpaceOnUse" x="2" y="2" width="20" height="20">
<rect x="2" y="2" width="20" height="20" fill="#D9D9D9"/>
</mask>
<g mask="url(#mask0_4083_121583)">
<path d="M11.1667 21.125V19.4583C9.43056 19.2639 7.94111 18.5453 6.69833 17.3025C5.455 16.0592 4.73611 14.5694 4.54167 12.8333H2.875V11.1667H4.54167C4.73611 9.43056 5.455 7.94083 6.69833 6.6975C7.94111 5.45472 9.43056 4.73611 11.1667 4.54167V2.875H12.8333V4.54167C14.5694 4.73611 16.0592 5.45472 17.3025 6.6975C18.5453 7.94083 19.2639 9.43056 19.4583 11.1667H21.125V12.8333H19.4583C19.2639 14.5694 18.5453 16.0592 17.3025 17.3025C16.0592 18.5453 14.5694 19.2639 12.8333 19.4583V21.125H11.1667ZM12 17.8333C13.6111 17.8333 14.9861 17.2639 16.125 16.125C17.2639 14.9861 17.8333 13.6111 17.8333 12C17.8333 10.3889 17.2639 9.01389 16.125 7.875C14.9861 6.73611 13.6111 6.16667 12 6.16667C10.3889 6.16667 9.01389 6.73611 7.875 7.875C6.73611 9.01389 6.16667 10.3889 6.16667 12C6.16667 13.6111 6.73611 14.9861 7.875 16.125C9.01389 17.2639 10.3889 17.8333 12 17.8333ZM12 15.3333C11.0833 15.3333 10.2986 15.0069 9.64583 14.3542C8.99306 13.7014 8.66667 12.9167 8.66667 12C8.66667 11.0833 8.99306 10.2986 9.64583 9.64583C10.2986 8.99306 11.0833 8.66667 12 8.66667C12.9167 8.66667 13.7014 8.99306 14.3542 9.64583C15.0069 10.2986 15.3333 11.0833 15.3333 12C15.3333 12.9167 15.0069 13.7014 14.3542 14.3542C13.7014 15.0069 12.9167 15.3333 12 15.3333Z" fill="white"/>
</g>
</g>
<defs>
<clipPath id="clip0_4083_121583">
<rect width="20" height="20" fill="white" transform="translate(2 2)"/>
</clipPath>
</defs>
</svg>
