<svg width="19" height="19" viewBox="0 0 19 19" fill="none" xmlns="http://www.w3.org/2000/svg">
<path fill-rule="evenodd" clip-rule="evenodd" d="M8.75 2.70833C7.14765 2.70833 5.61093 3.34486 4.4779 4.4779C3.34486 5.61093 2.70833 7.14765 2.70833 8.75C2.70833 10.3523 3.34486 11.8891 4.4779 13.0221C5.61093 14.1551 7.14765 14.7917 8.75 14.7917C10.3439 14.7917 11.8728 14.1619 13.0041 13.0401C13.0112 13.0325 13.0184 13.0251 13.0258 13.0178C13.0323 13.0112 13.039 13.0048 13.0457 12.9984C14.164 11.8677 14.7917 10.3412 14.7917 8.75C14.7917 7.14765 14.1551 5.61093 13.0221 4.4779C11.8891 3.34486 10.3523 2.70833 8.75 2.70833ZM3.00476 3.00476C4.52849 1.48102 6.59512 0.625 8.75 0.625C10.9049 0.625 12.9715 1.48102 14.4952 3.00476C16.019 4.52849 16.875 6.59512 16.875 8.75C16.875 10.5534 16.2755 12.2949 15.1868 13.7082L18.2372 16.7641C18.6437 17.1712 18.6431 17.8308 18.2359 18.2372C17.8288 18.6437 17.1692 18.6431 16.7628 18.2359L13.7144 15.1821C12.3 16.2737 10.556 16.875 8.75 16.875C6.59512 16.875 4.52849 16.019 3.00476 14.4952C1.48102 12.9715 0.625 10.9049 0.625 8.75C0.625 6.59512 1.48102 4.52849 3.00476 3.00476Z" fill="#8A8DA6"/>
</svg>
