<svg width="32" height="32" viewBox="0 0 32 32" fill="none" xmlns="http://www.w3.org/2000/svg">
<path d="M9.95833 7.56299C9.48868 7.56299 9.03826 7.74956 8.70617 8.08165C8.37407 8.41375 8.1875 8.86417 8.1875 9.33382C8.1875 9.80348 8.37407 10.2539 8.70617 10.586C9.03826 10.9181 9.48868 11.1047 9.95833 11.1047C10.428 11.1047 10.8784 10.9181 11.2105 10.586C11.5426 10.2539 11.7292 9.80348 11.7292 9.33382C11.7292 8.86417 11.5426 8.41375 11.2105 8.08165C10.8784 7.74956 10.428 7.56299 9.95833 7.56299ZM8.29167 12.563C8.26404 12.563 8.23754 12.574 8.21801 12.5935C8.19847 12.613 8.1875 12.6395 8.1875 12.6672V23.5005C8.1875 23.558 8.23417 23.6047 8.29167 23.6047H11.625C11.6526 23.6047 11.6791 23.5937 11.6987 23.5741C11.7182 23.5546 11.7292 23.5281 11.7292 23.5005V12.6672C11.7292 12.6395 11.7182 12.613 11.6987 12.5935C11.6791 12.574 11.6526 12.563 11.625 12.563H8.29167ZM13.7083 12.563C13.6807 12.563 13.6542 12.574 13.6347 12.5935C13.6151 12.613 13.6042 12.6395 13.6042 12.6672V23.5005C13.6042 23.558 13.6508 23.6047 13.7083 23.6047H17.0417C17.0693 23.6047 17.0958 23.5937 17.1153 23.5741C17.1349 23.5546 17.1458 23.5281 17.1458 23.5005V17.6672C17.1458 17.2528 17.3105 16.8553 17.6035 16.5623C17.8965 16.2693 18.2939 16.1047 18.7083 16.1047C19.1227 16.1047 19.5202 16.2693 19.8132 16.5623C20.1062 16.8553 20.2708 17.2528 20.2708 17.6672V23.5005C20.2708 23.558 20.3175 23.6047 20.375 23.6047H23.7083C23.736 23.6047 23.7625 23.5937 23.782 23.5741C23.8015 23.5546 23.8125 23.5281 23.8125 23.5005V16.3172C23.8125 14.2947 22.0542 12.713 20.0417 12.8955C19.419 12.9522 18.8091 13.1063 18.2342 13.3522L17.1458 13.8188V12.6672C17.1458 12.6395 17.1349 12.613 17.1153 12.5935C17.0958 12.574 17.0693 12.563 17.0417 12.563H13.7083Z" fill="#8A8DA6"/>
<rect x="0.5" y="0.500488" width="31" height="31" rx="15.5" stroke="#6C708B"/>
</svg>
