<svg width="21" height="20" viewBox="0 0 21 20" fill="none" xmlns="http://www.w3.org/2000/svg">
<mask id="mask0_3858_122651" style="mask-type:alpha" maskUnits="userSpaceOnUse" x="0" y="0" width="25" height="24">
<path d="M0.666992 0H24.667V24H0.666992V0Z" fill="#D9D9D9"/>
</mask>
<g mask="url(#mask0_3858_122651)">
<path fill-rule="evenodd" clip-rule="evenodd" d="M10.667 20C16.1898 20 20.667 15.5228 20.667 10C20.667 4.47715 16.1898 0 10.667 0C5.14414 0 0.666992 4.47715 0.666992 10C0.666992 15.5228 5.14414 20 10.667 20ZM10.6767 8.05523C10.6767 9.06561 9.85723 9.88509 8.84686 9.88509C7.83628 9.88509 7.017 9.06569 7.017 8.05523C7.017 7.04458 7.8362 6.22537 8.84686 6.22537C9.85732 6.22537 10.6767 7.04466 10.6767 8.05523ZM11.6352 13.7743H6.03923C5.83319 13.7743 5.66616 13.6067 5.66616 13.4C5.66616 12.1652 6.76268 10.78 8.16137 10.78H9.51306C10.912 10.78 12.0083 12.1651 12.0083 13.4C12.0083 13.6067 11.8412 13.7743 11.6352 13.7743ZM14.1294 8.76221C14.1294 9.51999 13.5147 10.1346 12.757 10.1346C11.999 10.1346 11.3846 9.52005 11.3846 8.76221C11.3846 8.00422 11.999 7.38982 12.757 7.38982C13.5148 7.38982 14.1294 8.00428 14.1294 8.76221ZM15.3245 13.7742H11.9457C12.1427 13.764 12.2993 13.6006 12.2993 13.4004C12.2993 12.6216 11.8632 11.7829 11.1901 11.2698C11.4773 11.1182 11.7973 11.0294 12.1367 11.0294H13.3771C14.6608 11.0294 15.6668 12.2991 15.6668 13.4311C15.6668 13.6206 15.5136 13.7742 15.3245 13.7742Z" fill="#35BBCA"/>
</g>
</svg>
