<svg width="16" height="16" viewBox="0 0 16 16" fill="none" xmlns="http://www.w3.org/2000/svg">
<g clip-path="url(#clip0_4328_190003)">
<mask id="mask0_4328_190003" style="mask-type:alpha" maskUnits="userSpaceOnUse" x="0" y="0" width="16" height="16">
<rect width="16" height="16" fill="#D9D9D9"/>
</mask>
<g mask="url(#mask0_4328_190003)">
<path d="M7.96683 12C8.20016 12 8.3975 11.9194 8.55883 11.758C8.71972 11.5972 8.80016 11.4 8.80016 11.1667C8.80016 10.9334 8.71972 10.7363 8.55883 10.5754C8.3975 10.414 8.20016 10.3334 7.96683 10.3334C7.7335 10.3334 7.53616 10.414 7.37483 10.5754C7.21394 10.7363 7.1335 10.9334 7.1335 11.1667C7.1335 11.4 7.21394 11.5972 7.37483 11.758C7.53616 11.9194 7.7335 12 7.96683 12ZM8.06683 5.13337C8.37794 5.13337 8.62794 5.21937 8.81683 5.39137C9.00572 5.56382 9.10016 5.78893 9.10016 6.06671C9.10016 6.2556 9.03639 6.44715 8.90883 6.64137C8.78083 6.83604 8.60016 7.03893 8.36683 7.25004C8.0335 7.53893 7.78905 7.81671 7.6335 8.08337C7.47794 8.35004 7.40016 8.61671 7.40016 8.88337C7.40016 9.03893 7.45861 9.16937 7.5755 9.27471C7.69194 9.38049 7.82794 9.43337 7.9835 9.43337C8.13905 9.43337 8.27794 9.37782 8.40016 9.26671C8.52239 9.1556 8.60016 9.01671 8.6335 8.85004C8.66683 8.66115 8.74194 8.48626 8.85883 8.32537C8.97527 8.16404 9.16683 7.9556 9.4335 7.70004C9.77794 7.37782 10.0197 7.08337 10.1588 6.81671C10.2975 6.55004 10.3668 6.2556 10.3668 5.93337C10.3668 5.36671 10.1531 4.90271 9.7255 4.54137C9.2975 4.18049 8.74461 4.00004 8.06683 4.00004C7.60016 4.00004 7.18639 4.08893 6.8255 4.26671C6.46416 4.44449 6.1835 4.71671 5.9835 5.08337C5.90572 5.22782 5.87794 5.36937 5.90016 5.50804C5.92239 5.64715 6.00016 5.76115 6.1335 5.85004C6.27794 5.93893 6.43639 5.96671 6.60883 5.93337C6.78083 5.90004 6.92239 5.8056 7.0335 5.65004C7.15572 5.48337 7.30305 5.3556 7.4755 5.26671C7.6475 5.17782 7.84461 5.13337 8.06683 5.13337ZM8.00016 14.6667C7.08905 14.6667 6.22794 14.4916 5.41683 14.1414C4.60572 13.7916 3.8975 13.3167 3.29216 12.7167C2.68639 12.1167 2.20861 11.4112 1.85883 10.6C1.50861 9.78893 1.3335 8.92226 1.3335 8.00004C1.3335 7.07782 1.50861 6.21115 1.85883 5.40004C2.20861 4.58893 2.68639 3.88337 3.29216 3.28337C3.8975 2.68337 4.60572 2.20826 5.41683 1.85804C6.22794 1.50826 7.08905 1.33337 8.00016 1.33337C8.9335 1.33337 9.80572 1.50826 10.6168 1.85804C11.4279 2.20826 12.1335 2.68337 12.7335 3.28337C13.3335 3.88337 13.8057 4.58893 14.1502 5.40004C14.4946 6.21115 14.6668 7.07782 14.6668 8.00004C14.6668 8.92226 14.4946 9.78893 14.1502 10.6C13.8057 11.4112 13.3335 12.1167 12.7335 12.7167C12.1335 13.3167 11.4279 13.7916 10.6168 14.1414C9.80572 14.4916 8.9335 14.6667 8.00016 14.6667ZM8.00016 13.3334C9.48905 13.3334 10.7502 12.814 11.7835 11.7754C12.8168 10.7363 13.3335 9.47782 13.3335 8.00004C13.3335 6.52226 12.8168 5.26382 11.7835 4.22471C10.7502 3.18604 9.48905 2.66671 8.00016 2.66671C6.54461 2.66671 5.29172 3.18604 4.2415 4.22471C3.19172 5.26382 2.66683 6.52226 2.66683 8.00004C2.66683 9.47782 3.19172 10.7363 4.2415 11.7754C5.29172 12.814 6.54461 13.3334 8.00016 13.3334Z" fill="white"/>
</g>
</g>
<defs>
<clipPath id="clip0_4328_190003">
<rect width="16" height="16" fill="white"/>
</clipPath>
</defs>
</svg>
