<svg width="16" height="16" viewBox="0 0 16 16" fill="none" xmlns="http://www.w3.org/2000/svg">
<g clip-path="url(#clip0_4651_179951)">
<path d="M10.2545 15V12.6901H10V11.6748H14.9987L14.9897 6.54273L10 5.01524V4L15.9712 5.76038L16 15H10.2545Z" fill="#8A8DA6"/>
<path d="M8.46253 4.80727C7.8878 2.56721 5.98167 2.79994 5.98167 2.79994L5.70516 2H3.29653L3.04185 2.82912C0.778969 2.75641 0.5 4.86048 0.5 4.86048V6.00989H0.892933L0.888152 10.2618C1.14283 11.8909 2.55498 12 2.55498 12H6.39682C8.09944 11.68 8.09208 10.2473 8.09208 10.2473L8.09944 6.00989H8.5L8.46253 4.80727ZM3.30376 3.99365H5.73371V4.81825H3.30376V3.99365ZM2.6944 10.4334C2.57173 10.4334 2.45182 10.3971 2.34983 10.329C2.24783 10.2609 2.16834 10.164 2.1214 10.0508C2.07445 9.93749 2.06217 9.81285 2.0861 9.6926C2.11003 9.57235 2.1691 9.46189 2.25584 9.3752C2.34258 9.2885 2.45309 9.22946 2.5734 9.20554C2.69371 9.18162 2.81842 9.1939 2.93175 9.24082C3.04507 9.28774 3.14194 9.36719 3.21009 9.46914C3.27824 9.57108 3.31461 9.69093 3.31461 9.81354C3.31444 9.97784 3.24902 10.1353 3.13273 10.2515C3.01644 10.3676 2.85878 10.4334 2.6944 10.4334ZM6.31788 10.4334C6.19521 10.4334 6.0753 10.3971 5.9733 10.329C5.87131 10.2609 5.79182 10.164 5.74487 10.0508C5.69793 9.93749 5.68565 9.81285 5.70958 9.6926C5.73351 9.57235 5.79258 9.46189 5.87932 9.3752C5.96606 9.2885 6.07657 9.22946 6.19688 9.20554C6.31719 9.18162 6.44189 9.1939 6.55522 9.24082C6.66855 9.28774 6.76542 9.36719 6.83357 9.46914C6.90172 9.57108 6.93809 9.69093 6.93809 9.81354C6.93792 9.97784 6.8725 10.1353 6.75621 10.2515C6.63991 10.3676 6.48226 10.4334 6.31788 10.4334ZM7.23295 8.40583H1.79031V5.98561H7.23295V8.40583Z" fill="#8A8DA6"/>
<path d="M0.684195 15L0 14.4438L1.58467 12C1.58467 12 1.88643 12.264 2.37941 12.3651L1.75069 13.3146L7.254 13.3258L6.62555 12.371C6.62555 12.371 7.07324 12.2753 7.41534 12.0001L9 14.4495L8.3209 15L7.83287 14.2416L1.13296 14.2472L0.684195 15Z" fill="#8A8DA6"/>
</g>
<defs>
<clipPath id="clip0_4651_179951">
<rect width="16" height="16" fill="white"/>
</clipPath>
</defs>
</svg>
