<svg width="21" height="20" viewBox="0 0 21 20" fill="none" xmlns="http://www.w3.org/2000/svg">
<g clip-path="url(#clip0_5053_17570)">
<mask id="mask0_5053_17570" style="mask-type:alpha" maskUnits="userSpaceOnUse" x="0" y="0" width="21" height="20">
<rect x="0.25" width="20" height="20" fill="#D9D9D9"/>
</mask>
<g mask="url(#mask0_5053_17570)">
<path fill-rule="evenodd" clip-rule="evenodd" d="M17.7328 5.06819H17.3927V3.53746C17.3927 2.97652 16.9547 2.38017 16.4187 2.21298C16.4187 2.21298 14.6713 1.66663 10.25 1.66663C5.82811 1.66663 4.08072 2.21298 4.08072 2.21298C3.5453 2.38017 3.10676 2.97652 3.10676 3.53746V5.06819H2.76718C2.29895 5.06819 1.91666 5.451 1.91666 5.91819V7.95933C1.91666 8.42652 2.29895 8.80986 2.76718 8.80986H3.10676V16.4625H3.6177V16.8026C3.6177 17.6448 4.30624 18.3333 5.14791 18.3333C5.98957 18.3333 6.67864 17.6448 6.67864 16.8026V16.4625H13.8219V16.8026C13.8219 17.6448 14.5104 18.3333 15.3521 18.3333C16.1937 18.3333 16.8823 17.6448 16.8823 16.8026V16.4625H17.3927V8.80986H17.7328C18.201 8.80986 18.5833 8.42652 18.5833 7.95933V5.91819C18.5833 5.451 18.201 5.06819 17.7328 5.06819ZM15.1817 15.2724C14.7119 15.2724 14.3312 14.8916 14.3312 14.4219C14.3312 13.9526 14.7119 13.5713 15.1817 13.5713C15.6515 13.5713 16.0323 13.9526 16.0323 14.4219C16.0323 14.8916 15.6515 15.2724 15.1817 15.2724ZM5.31845 15.2724C4.84866 15.2724 4.46793 14.8916 4.46793 14.4219C4.46793 13.9526 4.84866 13.5713 5.31845 13.5713C5.78824 13.5713 6.16897 13.9526 6.16897 14.4219C6.16897 14.8916 5.78824 15.2724 5.31845 15.2724ZM5.30126 11.5304C4.84102 11.5304 4.46793 11.1573 4.46793 10.6971V5.90125C4.46793 5.44101 4.84102 5.06791 5.30126 5.06791H15.1992C15.6594 5.06791 16.0325 5.44101 16.0325 5.90125V10.6971C16.0325 11.1573 15.6594 11.5304 15.1992 11.5304H5.30126ZM7.69872 3.36714C7.69872 3.74281 8.00326 4.04735 8.37893 4.04735H12.1206C12.4963 4.04735 12.8008 3.74281 12.8008 3.36714C12.8008 2.99147 12.4963 2.68693 12.1206 2.68693H8.37893C8.00326 2.68693 7.69872 2.99147 7.69872 3.36714Z" fill="#8A8DA6"/>
</g>
</g>
<defs>
<clipPath id="clip0_5053_17570">
<rect width="20" height="20" fill="white" transform="translate(0.25)"/>
</clipPath>
</defs>
</svg>
