<svg width="20" height="20" viewBox="0 0 20 20" fill="none" xmlns="http://www.w3.org/2000/svg">
<g clip-path="url(#clip0_4338_120942)">
<mask id="mask0_4338_120942" style="mask-type:alpha" maskUnits="userSpaceOnUse" x="0" y="0" width="20" height="20">
<rect width="20" height="20" fill="#D9D9D9"/>
</mask>
<g mask="url(#mask0_4338_120942)">
<path d="M2.5 4.27779C2.5 3.75539 2.91895 3.33334 3.4375 3.33334H5.78125C8.11035 3.33334 10 5.23699 10 7.58334C10 9.31876 8.96875 10.8092 7.48926 11.4703L8.99512 15.2599C9.18848 15.7439 8.9541 16.2929 8.47363 16.4877C7.99316 16.6825 7.44824 16.4464 7.25488 15.9623L5.61426 11.8333H4.375V15.6111C4.375 16.1335 3.95605 16.5556 3.4375 16.5556C2.91895 16.5556 2.5 16.1335 2.5 15.6111V4.27779ZM4.375 9.94446H5.78125C7.07617 9.94446 8.125 8.88786 8.125 7.58334C8.125 6.27883 7.07617 5.22223 5.78125 5.22223H4.375V9.94446ZM11.875 7.11112H14.2188C16.0322 7.11112 17.5 8.58977 17.5 10.4167C17.5 12.2436 16.0322 13.7222 14.2188 13.7222H12.8125V16.5556C12.8125 17.078 12.3936 17.5 11.875 17.5C11.3564 17.5 10.9375 17.078 10.9375 16.5556V8.05557C10.9375 7.53317 11.3564 7.11112 11.875 7.11112ZM14.2188 11.8333C14.9951 11.8333 15.625 11.1988 15.625 10.4167C15.625 9.63456 14.9951 9.00001 14.2188 9.00001H12.8125V11.8333H14.2188Z" fill="#30303B"/>
</g>
</g>
<defs>
<clipPath id="clip0_4338_120942">
<rect width="20" height="20" fill="white"/>
</clipPath>
</defs>
</svg>
