<svg width="32" height="32" viewBox="0 0 32 32" fill="none" xmlns="http://www.w3.org/2000/svg">
<path fill-rule="evenodd" clip-rule="evenodd" d="M11.8241 10.0754C14.6038 9.85799 17.3961 9.85799 20.1758 10.0754L22.0424 10.2221C22.548 10.2615 23.0259 10.469 23.3998 10.8116C23.7737 11.1541 24.0223 11.6119 24.1058 12.1121C24.5366 14.6871 24.5366 17.3146 24.1058 19.8888C24.0223 20.3888 23.7739 20.8466 23.4001 21.1891C23.0264 21.5316 22.5487 21.7392 22.0433 21.7788L20.1766 21.9246C17.3967 22.1421 14.604 22.1421 11.8241 21.9246L9.95745 21.7788C9.45187 21.7394 8.97404 21.5319 8.6001 21.1893C8.22616 20.8468 7.97763 20.389 7.89412 19.8888C7.46401 17.3144 7.46401 14.6865 7.89412 12.1121C7.97759 11.6121 8.226 11.1543 8.59977 10.8118C8.97355 10.4693 9.45119 10.2617 9.95662 10.2221L11.8233 10.0763L11.8241 10.0754ZM14.3333 18.0588V13.9421C14.3333 13.8979 14.3451 13.8546 14.3674 13.8164C14.3897 13.7783 14.4217 13.7467 14.4601 13.7249C14.4986 13.7032 14.5421 13.692 14.5863 13.6925C14.6305 13.693 14.6737 13.7053 14.7116 13.7279L18.1424 15.7863C18.1794 15.8085 18.2099 15.8399 18.2311 15.8774C18.2523 15.915 18.2635 15.9573 18.2635 16.0004C18.2635 16.0436 18.2523 16.0859 18.2311 16.1234C18.2099 16.161 18.1794 16.1924 18.1424 16.2146L14.7116 18.2729C14.6737 18.2956 14.6305 18.3079 14.5863 18.3084C14.5421 18.3089 14.4986 18.2977 14.4601 18.276C14.4217 18.2542 14.3897 18.2226 14.3674 18.1845C14.3451 18.1463 14.3333 18.103 14.3333 18.0588Z" fill="#8A8DA6"/>
<rect x="0.5" y="0.500488" width="31" height="31" rx="15.5" stroke="#6C708B"/>
</svg>
