<svg width="20" height="20" viewBox="0 0 20 20" fill="none" xmlns="http://www.w3.org/2000/svg">
<g clip-path="url(#clip0_4207_266943)">
<mask id="mask0_4207_266943" style="mask-type:alpha" maskUnits="userSpaceOnUse" x="0" y="0" width="20" height="20">
<rect width="20" height="20" fill="#D9D9D9"/>
</mask>
<g mask="url(#mask0_4207_266943)">
<path d="M9.99935 11.7744L3.78896 17.9848C3.55659 18.2172 3.26086 18.3334 2.90176 18.3334C2.54265 18.3334 2.24692 18.2172 2.01456 17.9848C1.7822 17.7524 1.66602 17.4567 1.66602 17.0976C1.66602 16.7385 1.7822 16.4428 2.01456 16.2104L8.22495 10L2.01456 3.78963C1.7822 3.55727 1.66602 3.26153 1.66602 2.90243C1.66602 2.54332 1.7822 2.24759 2.01456 2.01523C2.24692 1.78287 2.54265 1.66669 2.90176 1.66669C3.26086 1.66669 3.55659 1.78287 3.78896 2.01523L9.99935 8.22562L16.2097 2.01523C16.4421 1.78287 16.7378 1.66669 17.0969 1.66669C17.456 1.66669 17.7518 1.78287 17.9841 2.01523C18.2165 2.24759 18.3327 2.54332 18.3327 2.90243C18.3327 3.26153 18.2165 3.55727 17.9841 3.78963L11.7737 10L17.9841 16.2104C18.2165 16.4428 18.3327 16.7385 18.3327 17.0976C18.3327 17.4567 18.2165 17.7524 17.9841 17.9848C17.7518 18.2172 17.456 18.3334 17.0969 18.3334C16.7378 18.3334 16.4421 18.2172 16.2097 17.9848L9.99935 11.7744Z" fill="#8A8DA6"/>
</g>
</g>
<defs>
<clipPath id="clip0_4207_266943">
<rect width="20" height="20" fill="white"/>
</clipPath>
</defs>
</svg>
