<svg width="20" height="20" viewBox="0 0 20 20" fill="none" xmlns="http://www.w3.org/2000/svg">
<mask id="mask0_3852_191930" style="mask-type:alpha" maskUnits="userSpaceOnUse" x="0" y="0" width="24" height="24">
<path d="M0 0H24V24H0V0Z" fill="#D9D9D9"/>
</mask>
<g mask="url(#mask0_3852_191930)">
<path d="M6.3186 6.3186C7.07395 5.56324 8.09843 5.13889 9.16667 5.13889C10.2349 5.13889 11.2594 5.56324 12.0147 6.3186C12.7701 7.07395 13.1944 8.09843 13.1944 9.16667C13.1944 10.2275 12.776 11.2451 12.0304 11.9989L12.0172 12.0118C12.0123 12.0167 12.0074 12.0217 12.0027 12.0267C11.2485 12.7746 10.2292 13.1944 9.16667 13.1944C8.09843 13.1944 7.07395 12.7701 6.3186 12.0147C5.56324 11.2594 5.13889 10.2349 5.13889 9.16667C5.13889 8.09843 5.56324 7.07395 6.3186 6.3186Z" fill="#1868DD"/>
<path fill-rule="evenodd" clip-rule="evenodd" d="M10 20C8.61667 20 7.31667 19.7373 6.1 19.212C4.88333 18.6873 3.825 17.975 2.925 17.075C2.025 16.175 1.31267 15.1167 0.788 13.9C0.262667 12.6833 0 11.3833 0 10C0 8.61667 0.262667 7.31667 0.788 6.1C1.31267 4.88333 2.025 3.825 2.925 2.925C3.825 2.025 4.88333 1.31233 6.1 0.787C7.31667 0.262333 8.61667 0 10 0C11.3833 0 12.6833 0.262333 13.9 0.787C15.1167 1.31233 16.175 2.025 17.075 2.925C17.975 3.825 18.6873 4.88333 19.212 6.1C19.7373 7.31667 20 8.61667 20 10C20 11.3833 19.7373 12.6833 19.212 13.9C18.6873 15.1167 17.975 16.175 17.075 17.075C16.175 17.975 15.1167 18.6873 13.9 19.212C12.6833 19.7373 11.3833 20 10 20ZM9.16667 3.75C7.73008 3.75 6.35233 4.32068 5.3365 5.3365C4.32068 6.35233 3.75 7.73008 3.75 9.16667C3.75 10.6033 4.32068 11.981 5.3365 12.9968C6.35233 14.0127 7.73008 14.5833 9.16667 14.5833C10.3707 14.5833 11.5333 14.1825 12.4762 13.4547L14.5085 15.4906C14.7795 15.762 15.2192 15.7624 15.4906 15.4915C15.762 15.2205 15.7624 14.7808 15.4915 14.5094L13.4579 12.4721C14.1836 11.53 14.5833 10.3689 14.5833 9.16667C14.5833 7.73008 14.0127 6.35233 12.9968 5.3365C11.981 4.32068 10.6033 3.75 9.16667 3.75Z" fill="#1868DD"/>
</g>
</svg>
