<svg width="47" height="25" viewBox="0 0 47 25" fill="none" xmlns="http://www.w3.org/2000/svg">
<path fill-rule="evenodd" clip-rule="evenodd" d="M14.6102 8.72046H38.5902C42.1202 8.72046 44.9902 11.5805 44.9902 15.1205C44.9902 18.6505 42.1302 21.5205 38.5902 21.5205H14.6102C11.0802 21.5205 8.21021 18.6605 8.21021 15.1205C8.21021 11.5905 11.0802 8.72046 14.6102 8.72046Z" fill="#7CB928" stroke="#7CB928" stroke-width="3.1976"/>
<path fill-rule="evenodd" clip-rule="evenodd" d="M15.0901 13.6805H38.1101C39.8801 13.6805 41.3101 15.1105 41.3101 16.8805C41.3101 18.6505 39.8801 20.0805 38.1101 20.0805H15.0901V13.6805Z" fill="white"/>
<path fill-rule="evenodd" clip-rule="evenodd" d="M4.70101 1.8045C5.92655 0.728099 7.4835 0.241455 9.25006 0.241455C11.0405 0.241455 12.6074 0.772519 13.8319 1.9195C15.033 3.04448 15.783 4.64817 16.1913 6.5754L16.2191 6.70649V11.4805H13.661V6.97796C13.3167 5.43687 12.7587 4.4192 12.0832 3.78649C11.4127 3.15847 10.5096 2.79954 9.25006 2.79954C7.96663 2.79954 7.05358 3.14289 6.38912 3.72649C5.73013 4.30529 5.18917 5.23178 4.85911 6.64358V10.7705H2.30103V6.36154L2.33087 6.22582C2.73411 4.39191 3.49026 2.86791 4.70101 1.8045Z" fill="#E4EFED"/>
<path d="M9.33009 23.5905C13.7428 23.5905 17.3201 20.0132 17.3201 15.6005C17.3201 11.1877 13.7428 7.61047 9.33009 7.61047C4.91733 7.61047 1.34009 11.1877 1.34009 15.6005C1.34009 20.0132 4.91733 23.5905 9.33009 23.5905Z" fill="#7CB928"/>
<path fill-rule="evenodd" clip-rule="evenodd" d="M9.33011 8.72965C5.53545 8.72965 2.45927 11.8058 2.45927 15.6005C2.45927 19.3952 5.53545 22.4713 9.33011 22.4713C13.1248 22.4713 16.2009 19.3952 16.2009 15.6005C16.2009 11.8058 13.1248 8.72965 9.33011 8.72965ZM0.220947 15.6005C0.220947 10.5696 4.29926 6.49133 9.33011 6.49133C14.361 6.49133 18.4393 10.5696 18.4393 15.6005C18.4393 20.6313 14.361 24.7097 9.33011 24.7097C4.29926 24.7097 0.220947 20.6313 0.220947 15.6005Z" fill="#F2F8F6"/>
<path fill-rule="evenodd" clip-rule="evenodd" d="M5.18018 14.5905L5.75018 18.3605H7.12018V14.5905H5.18018Z" fill="white"/>
<path fill-rule="evenodd" clip-rule="evenodd" d="M7.3501 14.9805V18.2205C7.7701 18.1705 8.0701 18.1705 8.2601 18.2205C8.5501 18.2905 9.9101 18.7905 10.7901 18.7905C11.6701 18.7905 12.3401 18.5005 12.3701 18.2205C12.3901 18.0305 12.3601 17.8605 12.2901 17.6905C12.6501 17.6705 12.8201 17.5405 12.7901 17.3205C12.7601 17.1005 12.6901 16.9505 12.5701 16.8905C12.9501 16.5505 13.1101 16.2805 13.0801 16.0905C13.0401 15.9005 12.9401 15.7405 12.7901 15.6005C13.1901 14.8505 13.1201 14.4405 12.5701 14.3705C11.7601 14.2605 10.4901 14.5105 10.2201 14.2405C9.9501 13.9805 11.1501 11.9305 10.3101 11.5005C9.4701 11.0705 8.8801 13.7205 8.4401 14.2405C8.1401 14.5805 7.7801 14.8305 7.3501 14.9805Z" fill="white"/>
<path d="M20.6501 17.7104H21.3401C21.3701 18.0304 21.5101 18.3104 21.8601 18.3104C22.2001 18.3104 22.3301 18.1004 22.3301 17.8004C22.3301 17.4804 22.1701 17.2904 21.6901 17.0604C21.0201 16.7404 20.7601 16.4604 20.7601 15.8804C20.7601 15.2604 21.1601 14.8304 21.8701 14.8304C22.7501 14.8304 22.9601 15.4204 22.9801 15.9304H22.3001C22.2801 15.7104 22.2301 15.3804 21.8701 15.3804C21.5901 15.3804 21.4701 15.5604 21.4701 15.8204C21.4701 16.1004 21.6001 16.2304 22.0501 16.4504C22.7501 16.7704 23.0601 17.0804 23.0601 17.7304C23.0601 18.3504 22.6801 18.8504 21.8601 18.8504C20.9401 18.8704 20.6701 18.2904 20.6501 17.7104ZM25.5501 16.4604V17.0604H24.3001V18.2004H25.7001L25.6101 18.8004H23.6101V14.9004H25.6101V15.5104H24.3001V16.4604H25.5501ZM27.8301 17.6604H28.5201C28.5001 17.8604 28.4301 18.8604 27.3501 18.8604C26.2401 18.8604 26.1101 17.8904 26.1101 16.8404C26.1101 15.5804 26.4801 14.8404 27.3901 14.8404C28.4201 14.8404 28.5001 15.7304 28.5201 16.0404H27.8301C27.8201 15.9104 27.8101 15.4304 27.3801 15.4304C26.9401 15.4304 26.8301 15.9704 26.8301 16.8604C26.8301 17.6004 26.9001 18.2904 27.3601 18.2904C27.7801 18.2904 27.8201 17.8104 27.8301 17.6604ZM29.0501 14.9004H29.7501V17.5804C29.7501 17.9004 29.8301 18.2804 30.2601 18.2804C30.6701 18.2804 30.7601 17.9604 30.7601 17.5904V14.9004H31.4601V17.6004C31.4601 18.3004 31.1901 18.8704 30.2501 18.8704C29.3201 18.8704 29.0501 18.3304 29.0501 17.6004V14.9004ZM33.1601 17.1304H32.8601V18.8004H32.1701V14.9004H33.3601C34.0701 14.9004 34.4701 15.2704 34.4701 15.9604C34.4701 16.5204 34.1601 16.7704 33.9601 16.8504C34.2601 16.9904 34.4001 17.2504 34.4001 17.8204V17.9804C34.4001 18.4204 34.4201 18.5904 34.4501 18.8004H33.7801C33.7201 18.6204 33.7201 18.3104 33.7201 17.9804V17.8404C33.7201 17.3104 33.6001 17.1304 33.1601 17.1304ZM32.8601 15.4604V16.5704H33.1901C33.6101 16.5704 33.7801 16.3904 33.7801 16.0004C33.7801 15.6604 33.6201 15.4604 33.2601 15.4604H32.8601ZM37.0301 16.4604V17.0604H35.7801V18.2004H37.1801L37.0901 18.8004H35.0901V14.9004H37.0901V15.5104H35.7801V16.4604H37.0301Z" fill="#636362"/>
<path d="M23.66 10.4805C23.22 10.4605 23 10.7105 22.94 11.1105C22.93 11.1905 22.91 11.2805 22.91 11.3605C22.89 11.5105 22.87 11.6605 22.87 11.8105C22.88 12.0205 22.97 12.1405 23.17 12.2005C23.28 12.2305 23.4 12.2405 23.51 12.2305C23.88 12.2105 24.09 12.0305 24.16 11.6605C24.18 11.5705 24.19 11.4905 24.2 11.4005C24.22 11.2305 24.25 11.0605 24.24 10.8805C24.23 10.6705 24.11 10.5305 23.91 10.4905C23.83 10.4805 23.75 10.4905 23.66 10.4805ZM23.91 10.0005C24.04 10.0205 24.18 10.0305 24.31 10.0705C24.45 10.1105 24.58 10.1805 24.7 10.2705C24.9 10.4305 24.99 10.6505 24.99 10.9005C24.99 11.2005 24.95 11.5005 24.89 11.7905C24.79 12.2105 24.53 12.4905 24.13 12.6205C23.68 12.7605 23.22 12.7705 22.76 12.6305C22.66 12.6005 22.58 12.5505 22.49 12.5005C22.22 12.3305 22.11 12.0705 22.12 11.7605C22.13 11.5105 22.16 11.2605 22.21 11.0105C22.32 10.4805 22.65 10.1605 23.19 10.0505C23.29 10.0305 23.38 10.0205 23.48 10.0105H23.91V10.0005Z" fill="white"/>
<path d="M30.82 10.4805C30.35 10.4605 30.14 10.7005 30.08 11.0805C30.04 11.3005 30.01 11.5205 30 11.7405C29.98 12.0105 30.12 12.1805 30.37 12.2105C30.5 12.2305 30.62 12.2305 30.75 12.2205C31.01 12.1905 31.19 12.0505 31.26 11.8005C31.35 11.5105 31.38 11.2105 31.38 10.9005C31.38 10.6505 31.26 10.5305 31.02 10.4805C30.95 10.4805 30.89 10.4905 30.82 10.4805ZM31.07 10.0005C31.18 10.0205 31.29 10.0305 31.39 10.0605C31.55 10.1005 31.7 10.1605 31.83 10.2605C32.01 10.3905 32.12 10.5705 32.13 10.7905C32.15 11.1805 32.11 11.5705 31.98 11.9505C31.87 12.2805 31.63 12.4905 31.31 12.6005C30.85 12.7605 30.38 12.7705 29.92 12.6305C29.45 12.5005 29.23 12.1805 29.26 11.6905C29.27 11.4505 29.3 11.2105 29.35 10.9805C29.46 10.4405 29.81 10.1505 30.33 10.0505C30.43 10.0305 30.53 10.0205 30.63 10.0105H31.07V10.0005Z" fill="white"/>
<path d="M37.2499 12.2405C37.2699 12.2405 37.2799 12.2405 37.2999 12.2405C37.6899 12.2305 37.8999 12.0605 37.9799 11.6705C37.9999 11.5905 38.0099 11.5105 38.0199 11.4205C38.0399 11.2305 38.0799 11.0505 38.0599 10.8605C38.0399 10.6705 37.9199 10.5405 37.7399 10.5005C37.5999 10.4705 37.4599 10.4805 37.3299 10.4905C37.0399 10.5205 36.8699 10.7005 36.7899 10.9805C36.7599 11.0805 36.7499 11.1705 36.7399 11.2705C36.7199 11.4505 36.6799 11.6205 36.6899 11.8005C36.6899 12.0405 36.7999 12.1705 37.0299 12.2205C37.0799 12.2305 37.1699 12.2405 37.2499 12.2405ZM37.7299 10.0005C37.8399 10.0205 37.9599 10.0305 38.0699 10.0605C38.2699 10.1105 38.4599 10.2005 38.6099 10.3605C38.7899 10.5505 38.8299 10.8005 38.8099 11.0505C38.7899 11.2705 38.7699 11.4905 38.7299 11.7105C38.6399 12.2105 38.3399 12.5205 37.8499 12.6405C37.4599 12.7405 37.0599 12.7505 36.6599 12.6505C36.4399 12.5905 36.2399 12.4905 36.0899 12.3105C35.9899 12.1905 35.9399 12.0505 35.9299 11.9005C35.9099 11.5605 35.9599 11.2105 36.0399 10.8805C36.1499 10.4505 36.4499 10.1905 36.8699 10.0705C37.0099 10.0305 37.1599 10.0205 37.2999 9.99048H37.7299V10.0005Z" fill="white"/>
<path fill-rule="evenodd" clip-rule="evenodd" d="M19.25 11.6505C19.27 11.4805 19.29 11.3105 19.32 11.1305C19.42 10.5105 19.76 10.1805 20.37 10.0805C20.55 10.0505 20.73 10.0505 20.91 10.0505C21.21 10.0505 21.52 10.0505 21.82 10.0505C21.91 10.0505 21.92 10.0605 21.89 10.1405C21.81 10.3805 21.66 10.5505 21.36 10.5405C21.12 10.5305 20.87 10.5205 20.63 10.5505C20.34 10.5805 20.15 10.7405 20.09 11.0305C20.04 11.2705 20 11.5105 20 11.7505C20 11.9905 20.13 12.1305 20.37 12.1605C20.67 12.1905 20.96 12.1705 21.26 12.1805C21.37 12.1805 21.48 12.1805 21.59 12.1805C21.64 12.1805 21.66 12.2005 21.65 12.2505C21.59 12.5005 21.4 12.6705 21.14 12.6705C20.86 12.6705 20.57 12.6805 20.29 12.6705C20 12.6605 19.73 12.5805 19.5 12.3805C19.35 12.2505 19.29 12.0805 19.25 11.8905V11.6505Z" fill="white"/>
<path fill-rule="evenodd" clip-rule="evenodd" d="M27.99 11.2104C27.89 11.3304 27.8 11.4504 27.7 11.5704C27.56 11.7504 27.42 11.9204 27.28 12.1004C27.12 12.3104 26.96 12.3104 26.84 12.0604C26.71 11.8004 26.57 11.5304 26.43 11.2704C26.42 11.2504 26.4 11.2204 26.38 11.1704C26.36 11.3204 26.35 11.4404 26.33 11.5604C26.3 11.8004 26.27 12.0404 26.24 12.2804C26.21 12.5104 26.03 12.6504 25.81 12.6504C25.71 12.6504 25.6 12.6504 25.5 12.6504C25.45 12.6504 25.43 12.6304 25.44 12.5804C25.51 12.0204 25.58 11.4704 25.65 10.9104C25.68 10.6504 25.71 10.4004 25.74 10.1404C25.75 10.0804 25.77 10.0604 25.83 10.0604C25.97 10.0704 26.1 10.0504 26.24 10.0704C26.36 10.0904 26.45 10.1504 26.51 10.2604C26.71 10.5904 26.92 10.9104 27.12 11.2404C27.17 11.3204 27.17 11.3204 27.23 11.2504C27.53 10.9004 27.84 10.5604 28.14 10.2104C28.24 10.1004 28.37 10.0704 28.51 10.0604C28.61 10.0604 28.72 10.0604 28.82 10.0604C28.89 10.0604 28.91 10.0804 28.9 10.1504C28.87 10.3704 28.84 10.5904 28.82 10.8104C28.77 11.2504 28.71 11.6904 28.66 12.1304C28.65 12.1804 28.65 12.2304 28.64 12.2804C28.6 12.5004 28.43 12.6404 28.21 12.6504C28.12 12.6504 28.02 12.6504 27.93 12.6504C27.86 12.6504 27.84 12.6204 27.85 12.5604C27.88 12.2904 27.92 12.0204 27.95 11.7504C27.97 11.5704 27.99 11.3904 28.02 11.2104C28 11.2204 27.99 11.2104 27.99 11.2104Z" fill="white"/>
<path fill-rule="evenodd" clip-rule="evenodd" d="M33.74 10.0804C33.99 10.0904 34.29 10.0604 34.58 10.1104C34.8 10.1504 35.01 10.2004 35.19 10.3404C35.37 10.4804 35.46 10.6704 35.48 10.9004C35.49 11.1304 35.45 11.3504 35.42 11.5804C35.4 11.7304 35.38 11.8804 35.32 12.0104C35.18 12.3504 34.91 12.5304 34.56 12.6004C34.39 12.6404 34.21 12.6604 34.03 12.6604C33.72 12.6604 33.42 12.6604 33.11 12.6604C33.03 12.6604 32.95 12.6504 32.87 12.6304C32.72 12.5804 32.66 12.4904 32.68 12.3404C32.7 12.1804 32.72 12.0104 32.74 11.8504C32.78 11.5304 32.82 11.2204 32.86 10.9004C32.87 10.8304 32.89 10.8004 32.96 10.8104C33.08 10.8204 33.2 10.8004 33.32 10.8204C33.49 10.8504 33.61 11.0004 33.59 11.1804C33.56 11.4904 33.52 11.7904 33.48 12.1004C33.47 12.1704 33.49 12.1904 33.55 12.1904C33.72 12.1804 33.89 12.2004 34.06 12.1804C34.43 12.1304 34.61 11.9604 34.65 11.5804C34.67 11.4404 34.69 11.2904 34.71 11.1504C34.76 10.8104 34.58 10.5904 34.24 10.5804C33.99 10.5704 33.74 10.5804 33.49 10.5804C33.44 10.5804 33.39 10.5804 33.34 10.5804C33.08 10.5704 32.97 10.4404 32.97 10.1604C32.97 10.1004 33.01 10.1004 33.05 10.1004C33.28 10.0804 33.49 10.0804 33.74 10.0804Z" fill="white"/>
</svg>
