<svg width="21" height="20" viewBox="0 0 21 20" fill="none" xmlns="http://www.w3.org/2000/svg">
<g clip-path="url(#clip0_5053_17546)">
<mask id="mask0_5053_17546" style="mask-type:alpha" maskUnits="userSpaceOnUse" x="0" y="0" width="21" height="20">
<rect x="0.75" width="20" height="20" fill="#D9D9D9"/>
</mask>
<g mask="url(#mask0_5053_17546)">
<path fill-rule="evenodd" clip-rule="evenodd" d="M16.2403 1.66663H5.25969C5.0711 1.66663 4.91669 1.81954 4.91669 2.01412V17.9861C4.91669 18.1769 5.0711 18.3332 5.25969 18.3332H9.03438V15.6699C9.03438 14.7153 9.80274 13.934 10.7502 13.934C11.6973 13.934 12.4657 14.7153 12.4657 15.6699V18.3332H16.2403C16.4289 18.3332 16.5834 18.1769 16.5834 17.9861V2.01412C16.5834 1.81954 16.4289 1.66663 16.2403 1.66663ZM13.9825 5.24653H13.2961V3.90987H13.9825V5.24653ZM13.9825 8.14936H13.2961V6.8127H13.9825V8.14936ZM13.9825 11.0519H13.2961V9.71859H13.9825V11.0519ZM11.0929 5.24653H10.4065V3.90987H11.0929V5.24653ZM11.0929 8.14936H10.4065V6.8127H11.0929V8.14936ZM11.0929 11.0519H10.4065V9.71859H11.0929V11.0519ZM8.20323 5.24653H7.51681V3.90987H8.20323V5.24653ZM8.20323 8.14936H7.51681V6.8127H8.20323V8.14936ZM8.20323 11.0519H7.51681V9.71859H8.20323V11.0519Z" fill="#8A8DA6"/>
</g>
</g>
<defs>
<clipPath id="clip0_5053_17546">
<rect width="20" height="20" fill="white" transform="translate(0.75)"/>
</clipPath>
</defs>
</svg>
