<svg width="20" height="20" viewBox="0 0 20 20" fill="none" xmlns="http://www.w3.org/2000/svg">
<mask id="mask0_4770_121069" style="mask-type:alpha" maskUnits="userSpaceOnUse" x="0" y="0" width="24" height="24">
<path d="M0 0H24V24H0V0Z" fill="#D9D9D9"/>
</mask>
<g mask="url(#mask0_4770_121069)">
<path fill-rule="evenodd" clip-rule="evenodd" d="M10 20C8.61667 20 7.31667 19.7373 6.1 19.212C4.88333 18.6873 3.825 17.975 2.925 17.075C2.025 16.175 1.31267 15.1167 0.788 13.9C0.262667 12.6833 0 11.3833 0 10C0 8.61667 0.262667 7.31667 0.788 6.1C1.31267 4.88333 2.025 3.825 2.925 2.925C3.825 2.025 4.88333 1.31233 6.1 0.787C7.31667 0.262333 8.61667 0 10 0C11.3833 0 12.6833 0.262333 13.9 0.787C15.1167 1.31233 16.175 2.025 17.075 2.925C17.975 3.825 18.6873 4.88333 19.212 6.1C19.7373 7.31667 20 8.61667 20 10C20 11.3833 19.7373 12.6833 19.212 13.9C18.6873 15.1167 17.975 16.175 17.075 17.075C16.175 17.975 15.1167 18.6873 13.9 19.212C12.6833 19.7373 11.3833 20 10 20ZM5.72948 5.83333C5.3266 5.83333 5 6.14642 5 6.53263V11.6105C5 11.9967 5.3266 12.3098 5.72948 12.3098H13.3414C13.7443 12.3098 14.0709 11.9967 14.0709 11.6105V9.65378C14.0709 8.74313 13.5781 7.89768 12.769 7.42041L10.5184 6.09267C10.2309 5.92311 9.90006 5.83333 9.56257 5.83333H5.72948ZM9.53544 7.05039C9.53544 6.97854 9.5962 6.92029 9.67116 6.92029H10.0761C10.4483 6.92029 10.813 7.0207 11.1284 7.21004L12.9339 8.29368C13.2004 8.4536 13.3622 8.73375 13.3622 9.03511C13.3622 9.05524 13.3452 9.07156 13.3242 9.07156H10.1433C9.80761 9.07156 9.53544 8.81065 9.53544 8.48881V7.05039ZM6.74176 6.92029C6.40603 6.92029 6.13386 7.1812 6.13386 7.50304V8.48881C6.13386 8.81065 6.40603 9.07156 6.74176 9.07156H7.79368C8.12942 9.07156 8.40158 8.81065 8.40158 8.48881V7.50304C8.40158 7.1812 8.12942 6.92029 7.79368 6.92029H6.74176ZM6.13386 10.5208C6.13386 10.3207 6.30308 10.1585 6.51182 10.1585H8.02363C8.23237 10.1585 8.40158 10.3207 8.40158 10.5208C8.40158 10.7209 8.23237 10.8832 8.02363 10.8832H6.51182C6.30308 10.8832 6.13386 10.7209 6.13386 10.5208ZM5.68504 12.8533C5.3067 12.8533 5 13.1473 5 13.51C5 13.8727 5.3067 14.1667 5.68504 14.1667H13.3858C13.7642 14.1667 14.0709 13.8727 14.0709 13.51C14.0709 13.1473 13.7642 12.8533 13.3858 12.8533H5.68504ZM15.3202 12.8533C14.9419 12.8533 14.6352 13.1473 14.6352 13.51C14.6352 13.8727 14.9419 14.1667 15.3202 14.1667H15.9816C16.36 14.1667 16.6667 13.8727 16.6667 13.51C16.6667 13.1473 16.36 12.8533 15.9816 12.8533H15.3202Z" fill="#6E479A"/>
</g>
</svg>
