<svg width="40" height="41" viewBox="0 0 40 41" fill="none" xmlns="http://www.w3.org/2000/svg">
<rect y="0.280396" width="40" height="40" rx="20" fill="#FFD30F"/>
<path d="M20 12.6118C19.4979 12.6118 19.0909 12.2019 19.0909 11.6962C19.0909 11.1905 19.4979 10.7805 20 10.7805H22.7273C23.2294 10.7805 23.6364 11.1905 23.6364 11.6962C23.6364 12.2019 23.2294 12.6118 22.7273 12.6118H22.2727V13.3111C26.58 13.5487 30 17.1418 30 21.5396C30 26.0909 26.3369 29.7805 21.8182 29.7805C19.6195 29.7805 17.5567 28.9017 16.0328 27.3668C15.6777 27.0092 15.6777 26.4294 16.0328 26.0719C16.3878 25.7143 16.9634 25.7143 17.3184 26.0719C18.5047 27.2667 20.1067 27.9492 21.8182 27.9492C25.3327 27.9492 28.1818 25.0795 28.1818 21.5396C28.1818 17.9996 25.3327 15.1299 21.8182 15.1299C20.1067 15.1299 18.5047 15.8124 17.3184 17.0073C16.9634 17.3648 16.3878 17.3648 16.0328 17.0073C15.6777 16.6497 15.6777 16.0699 16.0328 15.7123C17.2366 14.4998 18.7768 13.6967 20.4545 13.4128V12.6118H20Z" fill="#30303B"/>
<path d="M10 18.7926C10 19.2983 10.407 19.7082 10.9091 19.7082H17.2727C17.7748 19.7082 18.1818 19.2983 18.1818 18.7926C18.1818 18.2869 17.7748 17.8769 17.2727 17.8769H10.9091C10.407 17.8769 10 18.2869 10 18.7926Z" fill="#30303B"/>
<path d="M11.8182 22.4552C11.3161 22.4552 10.9091 22.0453 10.9091 21.5396C10.9091 21.0338 11.3161 20.6239 11.8182 20.6239H17.2727C17.7748 20.6239 18.1818 21.0338 18.1818 21.5396C18.1818 22.0453 17.7748 22.4552 17.2727 22.4552H11.8182Z" fill="#30303B"/>
<path d="M11.8182 24.2865C11.8182 24.7922 12.2252 25.2022 12.7273 25.2022H17.2727C17.7748 25.2022 18.1818 24.7922 18.1818 24.2865C18.1818 23.7808 17.7748 23.3709 17.2727 23.3709H12.7273C12.2252 23.3709 11.8182 23.7808 11.8182 24.2865Z" fill="#30303B"/>
<path d="M25 22.4552C25 21.9495 24.593 21.5396 24.0909 21.5396H22.2727V17.8769C22.2727 17.3712 21.8657 16.9612 21.3636 16.9612C20.8616 16.9612 20.4545 17.3712 20.4545 17.8769V22.4552C20.4545 22.9609 20.8616 23.3709 21.3636 23.3709H24.0909C24.593 23.3709 25 22.9609 25 22.4552Z" fill="#30303B"/>
</svg>
