<svg width="20" height="20" viewBox="0 0 20 20" fill="none" xmlns="http://www.w3.org/2000/svg">
<mask id="mask0_4306_122652" style="mask-type:alpha" maskUnits="userSpaceOnUse" x="0" y="0" width="20" height="20">
<path d="M0 0H20V20H0V0Z" fill="#D9D9D9"/>
</mask>
<g mask="url(#mask0_4306_122652)">
<path fill-rule="evenodd" clip-rule="evenodd" d="M10 20C8.61667 20 7.31667 19.7373 6.1 19.212C4.88333 18.6873 3.825 17.975 2.925 17.075C2.025 16.175 1.31267 15.1167 0.788 13.9C0.262667 12.6833 0 11.3833 0 10C0 8.61667 0.262667 7.31667 0.788 6.1C1.31267 4.88333 2.025 3.825 2.925 2.925C3.825 2.025 4.88333 1.31233 6.1 0.787C7.31667 0.262333 8.61667 0 10 0C11.3833 0 12.6833 0.262333 13.9 0.787C15.1167 1.31233 16.175 2.025 17.075 2.925C17.975 3.825 18.6873 4.88333 19.212 6.1C19.7373 7.31667 20 8.61667 20 10C20 11.3833 19.7373 12.6833 19.212 13.9C18.6873 15.1167 17.975 16.175 17.075 17.075C16.175 17.975 15.1167 18.6873 13.9 19.212C12.6833 19.7373 11.3833 20 10 20ZM5.98958 8.02342C6.99635 8.02342 7.8125 7.16005 7.8125 6.09504C7.8125 5.03003 6.99635 4.16667 5.98958 4.16667C4.98281 4.16667 4.16667 5.03003 4.16667 6.09504C4.16667 7.16005 4.98281 8.02342 5.98958 8.02342ZM6.59722 6.09504C6.59722 6.45004 6.32517 6.73783 5.98958 6.73783C5.65399 6.73783 5.38194 6.45004 5.38194 6.09504C5.38194 5.74004 5.65399 5.45225 5.98958 5.45225C6.32517 5.45225 6.59722 5.74004 6.59722 6.09504ZM4.89583 8.66621C4.49313 8.66621 4.16667 9.01155 4.16667 9.43756V14.3549C4.16667 14.7809 4.49313 15.1263 4.89583 15.1263H5.77116C5.755 15.0378 5.74653 14.9465 5.74653 14.8531C5.74653 14.0632 6.35184 13.4229 7.09852 13.4229C7.84521 13.4229 8.45052 14.0632 8.45052 14.8531C8.45052 14.9465 8.44205 15.0378 8.42588 15.1263H11.1184C11.1022 15.0378 11.0938 14.9465 11.0938 14.8531C11.0938 14.0632 11.6991 13.4229 12.4457 13.4229C13.1924 13.4229 13.7977 14.0632 13.7977 14.8531C13.7977 14.9465 13.7893 15.0378 13.7731 15.1263H15.1042C15.5069 15.1263 15.8333 14.7809 15.8333 14.3549V11.8802C15.8333 10.1051 14.4731 8.66621 12.7951 8.66621H4.89583ZM13.5243 9.81558C13.5243 9.80206 13.5347 9.79109 13.5475 9.79109C14.4743 9.79109 15.2257 10.5859 15.2257 11.5664V12.7426C15.2257 12.7988 15.1826 12.8444 15.1295 12.8444H14.1319C13.7964 12.8444 13.5243 12.5566 13.5243 12.2016V9.81558ZM5.83767 9.79109C5.50208 9.79109 5.23003 10.0789 5.23003 10.4339V10.9481C5.23003 11.3031 5.50208 11.5909 5.83767 11.5909H6.32378C6.65937 11.5909 6.93142 11.3031 6.93142 10.9481V10.4339C6.93142 10.0789 6.65937 9.79109 6.32378 9.79109H5.83767ZM7.66059 10.4339C7.66059 10.0789 7.93264 9.79109 8.26823 9.79109H8.75434C9.08993 9.79109 9.36198 10.0789 9.36198 10.4339V10.9481C9.36198 11.3031 9.08993 11.5909 8.75434 11.5909H8.26823C7.93264 11.5909 7.66059 11.3031 7.66059 10.9481V10.4339ZM10.6988 9.79109C10.3632 9.79109 10.0911 10.0789 10.0911 10.4339V10.9481C10.0911 11.3031 10.3632 11.5909 10.6988 11.5909H11.1849C11.5205 11.5909 11.7925 11.3031 11.7925 10.9481V10.4339C11.7925 10.0789 11.5205 9.79109 11.1849 9.79109H10.6988ZM12.4609 15.8333C12.9643 15.8333 13.3724 15.4017 13.3724 14.8691C13.3724 14.3366 12.9643 13.905 12.4609 13.905C11.9576 13.905 11.5495 14.3366 11.5495 14.8691C11.5495 15.4017 11.9576 15.8333 12.4609 15.8333ZM7.11371 15.8333C7.6171 15.8333 8.02517 15.4017 8.02517 14.8691C8.02517 14.3366 7.6171 13.905 7.11371 13.905C6.61033 13.905 6.20226 14.3366 6.20226 14.8691C6.20226 15.4017 6.61033 15.8333 7.11371 15.8333Z" fill="#1868DD"/>
</g>
</svg>
