<svg width="20" height="20" viewBox="0 0 20 20" fill="none" xmlns="http://www.w3.org/2000/svg">
<g clip-path="url(#clip0_5020_132364)">
<mask id="mask0_5020_132364" style="mask-type:alpha" maskUnits="userSpaceOnUse" x="0" y="0" width="20" height="20">
<rect width="20" height="20" fill="#D9D9D9"/>
</mask>
<g mask="url(#mask0_5020_132364)">
<path d="M5.83268 19.1667C5.37435 19.1667 4.98213 19.0037 4.65602 18.6775C4.32935 18.3509 4.16602 17.9584 4.16602 17.5V2.50004C4.16602 2.04171 4.32935 1.64921 4.65602 1.32254C4.98213 0.99643 5.37435 0.833374 5.83268 0.833374H14.166C14.6243 0.833374 15.0168 0.99643 15.3435 1.32254C15.6696 1.64921 15.8327 2.04171 15.8327 2.50004V17.5C15.8327 17.9584 15.6696 18.3509 15.3435 18.6775C15.0168 19.0037 14.6243 19.1667 14.166 19.1667H5.83268ZM9.99935 17.0834C10.2355 17.0834 10.4335 17.0034 10.5935 16.8434C10.753 16.6839 10.8327 16.4862 10.8327 16.25C10.8327 16.0139 10.753 15.8162 10.5935 15.6567C10.4335 15.4967 10.2355 15.4167 9.99935 15.4167C9.76324 15.4167 9.56546 15.4967 9.40602 15.6567C9.24602 15.8162 9.16602 16.0139 9.16602 16.25C9.16602 16.4862 9.24602 16.6839 9.40602 16.8434C9.56546 17.0034 9.76324 17.0834 9.99935 17.0834ZM5.83268 13.3334H14.166V5.00004H5.83268V13.3334Z" fill="#8A8DA6"/>
</g>
</g>
<defs>
<clipPath id="clip0_5020_132364">
<rect width="20" height="20" fill="white"/>
</clipPath>
</defs>
</svg>
