<svg width="21" height="20" viewBox="0 0 21 20" fill="none" xmlns="http://www.w3.org/2000/svg">
<g clip-path="url(#clip0_3858_122633)">
<mask id="mask0_3858_122633" style="mask-type:alpha" maskUnits="userSpaceOnUse" x="0" y="0" width="21" height="20">
<path d="M0.333008 0H20.333V20H0.333008V0Z" fill="#D9D9D9"/>
</mask>
<g mask="url(#mask0_3858_122633)">
<path fill-rule="evenodd" clip-rule="evenodd" d="M10.333 20C11.7163 20 13.0163 19.7373 14.233 19.212C15.4497 18.6873 16.508 17.975 17.408 17.075C18.308 16.175 19.0203 15.1167 19.545 13.9C20.0703 12.6833 20.333 11.3833 20.333 10C20.333 8.61667 20.0703 7.31667 19.545 6.1C19.0203 4.88333 18.308 3.825 17.408 2.925C16.508 2.025 15.4497 1.31233 14.233 0.787C13.0163 0.262333 11.7163 0 10.333 0C8.94967 0 7.64968 0.262333 6.43301 0.787C5.21634 1.31233 4.15801 2.025 3.25801 2.925C2.35801 3.825 1.64567 4.88333 1.12101 6.1C0.595675 7.31667 0.333008 8.61667 0.333008 10C0.333008 11.3833 0.595675 12.6833 1.12101 13.9C1.64567 15.1167 2.35801 16.175 3.25801 17.075C4.15801 17.975 5.21634 18.6873 6.43301 19.212C7.64968 19.7373 8.94967 20 10.333 20ZM5.33301 6.68791C5.33301 6.13791 5.78301 5.68791 6.33301 5.68791H6.83301V4.84791C6.83301 4.75954 6.90464 4.68791 6.99301 4.68791H7.67301C7.76137 4.68791 7.83301 4.75954 7.83301 4.84791V5.68791H12.833V4.84791C12.833 4.75954 12.9046 4.68791 12.993 4.68791H13.673C13.7614 4.68791 13.833 4.75954 13.833 4.84791V5.68791H14.333C14.883 5.68791 15.333 6.13791 15.333 6.68791V14.6879C15.333 15.2379 14.883 15.6879 14.333 15.6879H6.33301C5.78301 15.6879 5.33301 15.2379 5.33301 14.6879V6.68791ZM14.173 14.6879H6.49301C6.40464 14.6879 6.33301 14.6163 6.33301 14.5279V8.34791C6.33301 8.25954 6.40464 8.18791 6.49301 8.18791H14.173C14.2614 8.18791 14.333 8.25954 14.333 8.34791V14.5279C14.333 14.6163 14.2614 14.6879 14.173 14.6879ZM12.7271 12.5845C12.9038 12.5845 13.0471 12.4412 13.0471 12.2645V10.6823C13.0471 10.5055 12.9038 10.3623 12.7271 10.3623H10.5074V9.63272C10.5074 9.36554 10.1993 9.21602 9.98941 9.38132L7.65203 11.222C7.48933 11.3501 7.48934 11.5967 7.65203 11.7248L9.98941 13.5655C10.1993 13.7308 10.5074 13.5813 10.5074 13.3141V12.5845H12.7271Z" fill="#C4180A"/>
</g>
</g>
<defs>
<clipPath id="clip0_3858_122633">
<rect x="0.333008" width="20" height="20" rx="10" fill="white"/>
</clipPath>
</defs>
</svg>
