<svg width="20" height="20" viewBox="0 0 20 20" fill="none" xmlns="http://www.w3.org/2000/svg">
<g clip-path="url(#clip0_3858_122605)">
<mask id="mask0_3858_122605" style="mask-type:alpha" maskUnits="userSpaceOnUse" x="0" y="0" width="24" height="24">
<path d="M0 0H24V24H0V0Z" fill="#D9D9D9"/>
</mask>
<g mask="url(#mask0_3858_122605)">
<path fill-rule="evenodd" clip-rule="evenodd" d="M10 20C15.5228 20 20 15.5228 20 10C20 4.47715 15.5228 0 10 0C4.47715 0 0 4.47715 0 10C0 15.5228 4.47715 20 10 20ZM8.6683 9.29064C8.6683 9.29064 6.028 9.40179 4.62565 7.5397L4.65932 7.06208L5.51714 7.14103L5.32513 4.78841L6.48691 4.87336L8.14294 7.36552L14.4136 7.92533C14.4136 7.92533 15.4872 8.09984 15.6989 8.76013C15.9105 9.42042 14.8681 9.80506 14.3738 9.76316L12.3639 9.6056L9.16643 11.2047L7.76035 11.0882L8.6683 9.29064ZM6.09878 14.0947C6.09878 13.7083 6.41201 13.3951 6.7984 13.3951H13.7946C14.181 13.3951 14.4943 13.7083 14.4943 14.0947C14.4943 14.4811 14.181 14.7943 13.7946 14.7943H6.7984C6.41201 14.7943 6.09878 14.4811 6.09878 14.0947Z" fill="#6E479A"/>
</g>
</g>
<defs>
<clipPath id="clip0_3858_122605">
<rect width="20" height="20" rx="10" fill="white"/>
</clipPath>
</defs>
</svg>
