<svg width="40" height="41" viewBox="0 0 40 41" fill="none" xmlns="http://www.w3.org/2000/svg">
<rect y="0.280396" width="40" height="40" rx="20" fill="#6E479A"/>
<g clip-path="url(#clip0_4306_173526)">
<mask id="mask0_4306_173526" style="mask-type:alpha" maskUnits="userSpaceOnUse" x="8" y="8" width="24" height="25">
<rect x="8" y="8.2804" width="24" height="24" fill="#D9D9D9"/>
</mask>
<g mask="url(#mask0_4306_173526)">
<path fill-rule="evenodd" clip-rule="evenodd" d="M22.594 11.1774C21.8703 10.5606 20.9505 10.2218 19.9995 10.2218C19.0486 10.2218 18.1288 10.5606 17.405 11.1774L17.029 11.4974C16.7088 11.7705 16.3106 11.9357 15.891 11.9694L15.398 12.0094C14.45 12.0848 13.5599 12.4956 12.8873 13.168C12.2147 13.8403 11.8037 14.7304 11.728 15.6784L11.689 16.1714C11.6556 16.5908 11.4908 16.989 11.218 17.3094L10.897 17.6854C10.28 18.4092 9.94104 19.3292 9.94104 20.2804C9.94104 21.2315 10.28 22.1515 10.897 22.8754L11.217 23.2514C11.4902 23.5716 11.6554 23.9698 11.689 24.3894L11.729 24.8824C11.8045 25.8304 12.2152 26.7205 12.8876 27.3931C13.56 28.0657 14.45 28.4767 15.398 28.5524L15.891 28.5914C16.3105 28.6248 16.7087 28.7896 17.029 29.0624L17.405 29.3824C18.1289 29.9994 19.0489 30.3384 20 30.3384C20.9512 30.3384 21.8712 29.9994 22.595 29.3824L22.971 29.0624C23.2914 28.7896 23.6896 28.6248 24.109 28.5914L24.602 28.5514C25.5501 28.4759 26.4402 28.0652 27.1128 27.3928C27.7853 26.7204 28.1963 25.8304 28.272 24.8824L28.31 24.3894C28.3437 23.9698 28.5089 23.5716 28.782 23.2514L29.102 22.8744C29.7188 22.1506 30.0576 21.2308 30.0576 20.2799C30.0576 19.3289 29.7188 18.4091 29.102 17.6854L28.782 17.3094C28.5089 16.9892 28.3437 16.5909 28.31 16.1714L28.271 15.6784C28.1956 14.7303 27.7848 13.8402 27.1125 13.1676C26.4401 12.4951 25.55 12.0841 24.602 12.0084L24.109 11.9694C23.6896 11.936 23.2914 11.7712 22.971 11.4984L22.594 11.1784V11.1774ZM18.703 12.7004C19.0649 12.3921 19.5247 12.2228 20 12.2228C20.4754 12.2228 20.9352 12.3921 21.297 12.7004L21.674 13.0214C22.3146 13.5673 23.111 13.8973 23.95 13.9644L24.443 14.0044C24.9168 14.0423 25.3616 14.2477 25.6976 14.5838C26.0337 14.9198 26.2391 15.3646 26.277 15.8384L26.317 16.3314C26.3841 17.1704 26.7141 17.9668 27.26 18.6074L27.58 18.9844C27.8883 19.3462 28.0576 19.806 28.0576 20.2814C28.0576 20.7567 27.8883 21.2165 27.58 21.5784L27.26 21.9554C26.7141 22.5959 26.3841 23.3924 26.317 24.2314L26.277 24.7244C26.2391 25.1981 26.0337 25.6429 25.6976 25.979C25.3616 26.315 24.9168 26.5204 24.443 26.5584L23.95 26.5984C23.111 26.6654 22.3146 26.9954 21.674 27.5414L21.297 27.8614C20.9352 28.1696 20.4754 28.3389 20 28.3389C19.5247 28.3389 19.0649 28.1696 18.703 27.8614L18.326 27.5414C17.6855 26.9954 16.889 26.6654 16.05 26.5984L15.557 26.5584C15.0831 26.5207 14.6381 26.3154 14.3018 25.9793C13.9655 25.6432 13.76 25.1983 13.722 24.7244L13.682 24.2314C13.6153 23.3925 13.2856 22.5961 12.74 21.9554L12.42 21.5784C12.1118 21.2165 11.9425 20.7567 11.9425 20.2814C11.9425 19.806 12.1118 19.3462 12.42 18.9844L12.74 18.6074C13.286 17.9668 13.616 17.1704 13.683 16.3314L13.723 15.8384C13.7607 15.3644 13.966 14.9194 14.3021 14.5832C14.6382 14.2469 15.0831 14.0413 15.557 14.0034L16.05 13.9644C16.889 13.8973 17.6855 13.5673 18.326 13.0214L18.703 12.7014V12.7004ZM23.707 17.9884C23.8025 17.8961 23.8787 17.7858 23.9311 17.6638C23.9835 17.5418 24.0111 17.4105 24.0123 17.2778C24.0134 17.145 23.9881 17.0133 23.9379 16.8904C23.8876 16.7675 23.8133 16.6559 23.7194 16.562C23.6255 16.4681 23.5139 16.3938 23.391 16.3435C23.2681 16.2933 23.1364 16.268 23.0036 16.2691C22.8709 16.2703 22.7396 16.2979 22.6176 16.3503C22.4956 16.4027 22.3853 16.4789 22.293 16.5744L16.293 22.5744C16.1975 22.6666 16.1213 22.777 16.0689 22.899C16.0165 23.021 15.9889 23.1522 15.9878 23.285C15.9866 23.4177 16.0119 23.5494 16.0622 23.6723C16.1125 23.7952 16.1867 23.9069 16.2806 24.0008C16.3745 24.0947 16.4862 24.1689 16.6091 24.2192C16.732 24.2695 16.8637 24.2948 16.9964 24.2936C17.1292 24.2925 17.2604 24.2649 17.3824 24.2125C17.5044 24.1601 17.6148 24.0839 17.707 23.9884L23.707 17.9884ZM19 17.7804C19 18.1782 18.842 18.5597 18.5607 18.841C18.2794 19.1223 17.8979 19.2804 17.5 19.2804C17.1022 19.2804 16.7207 19.1223 16.4394 18.841C16.1581 18.5597 16 18.1782 16 17.7804C16 17.3825 16.1581 17.001 16.4394 16.7197C16.7207 16.4384 17.1022 16.2804 17.5 16.2804C17.8979 16.2804 18.2794 16.4384 18.5607 16.7197C18.842 17.001 19 17.3825 19 17.7804ZM22.5 24.2804C22.8979 24.2804 23.2794 24.1223 23.5607 23.841C23.842 23.5597 24 23.1782 24 22.7804C24 22.3825 23.842 22.001 23.5607 21.7197C23.2794 21.4384 22.8979 21.2804 22.5 21.2804C22.1022 21.2804 21.7207 21.4384 21.4394 21.7197C21.1581 22.001 21 22.3825 21 22.7804C21 23.1782 21.1581 23.5597 21.4394 23.841C21.7207 24.1223 22.1022 24.2804 22.5 24.2804Z" fill="white"/>
</g>
</g>
<defs>
<clipPath id="clip0_4306_173526">
<rect width="24" height="24" fill="white" transform="translate(8 8.2804)"/>
</clipPath>
</defs>
</svg>
