<svg width="25" height="24" viewBox="0 0 25 24" fill="none" xmlns="http://www.w3.org/2000/svg">
<rect x="0.5" width="24" height="24" rx="12" fill="#FE5000"/>
<g clip-path="url(#clip0_4207_183047)">
<mask id="mask0_4207_183047" style="mask-type:alpha" maskUnits="userSpaceOnUse" x="4" y="4" width="17" height="16">
<rect x="4.5" y="4" width="16" height="16" fill="#D9D9D9"/>
</mask>
<g mask="url(#mask0_4207_183047)">
<path fill-rule="evenodd" clip-rule="evenodd" d="M6.23553 14.7693C6.25197 14.78 6.26842 14.7858 6.29062 14.7969L7.9166 15.4698L7.73447 15.9054C7.6798 16.0432 7.70734 16.2032 7.81218 16.3076L8.20315 16.6992C8.30799 16.8041 8.46791 16.837 8.60605 16.7765L9.04101 16.5943L9.71361 18.2161C9.87353 18.5908 10.3036 18.7677 10.6728 18.6077C10.6892 18.6019 10.7114 18.5908 10.7278 18.5801L11.1632 18.3539C11.428 18.2161 11.5826 17.9348 11.5604 17.6423L11.3564 15.0947L11.3786 15.0782C12.034 14.5653 12.492 14.2071 13.2028 13.5506L15.5898 17.1187C15.9256 17.6259 16.6093 17.7583 17.1167 17.4219C17.1771 17.3832 17.2322 17.3334 17.2819 17.2841L17.4418 17.1241C17.7284 16.837 17.8332 16.4125 17.7173 16.0209L16.2508 11.3118L16.0802 10.7327L16.1024 10.7105L16.3672 10.462C17.1993 9.66821 17.8057 9.09442 18.2522 8.5046C18.831 7.73256 19.1669 6.93832 19.1669 6.33163C19.1727 6.11651 19.1176 5.90715 19.0016 5.72535C18.9688 5.68093 18.9359 5.63692 18.8915 5.59826C18.8528 5.55959 18.8146 5.52628 18.7702 5.49913C18.5885 5.38314 18.3788 5.32802 18.1584 5.33378C17.552 5.33378 16.7635 5.66983 15.9918 6.24896C15.3965 6.68988 14.8234 7.29698 14.0295 8.14059L13.7599 8.41658L8.47901 6.78407C8.08763 6.66274 7.66869 6.76721 7.37639 7.05965L7.21687 7.21966C6.78684 7.64948 6.78684 8.3446 7.21687 8.77483C7.26621 8.8246 7.32171 8.87396 7.38214 8.91262L10.954 11.3003C10.2925 12.0176 9.92862 12.4808 9.41061 13.1368L6.84728 12.9493C6.55004 12.927 6.27417 13.0817 6.13645 13.3466L5.91033 13.7822C5.73396 14.1351 5.87169 14.5818 6.23553 14.7693Z" fill="white"/>
</g>
</g>
<defs>
<clipPath id="clip0_4207_183047">
<rect width="16" height="16" fill="white" transform="translate(4.5 4)"/>
</clipPath>
</defs>
</svg>
