<svg width="196" height="36" viewBox="0 0 196 36" fill="none" xmlns="http://www.w3.org/2000/svg">
<path fill-rule="evenodd" clip-rule="evenodd" d="M0 14.2826C0 6.37824 6.37824 0 14.2826 0C22.1477 0 28.5651 6.37824 28.5651 14.2826C28.5651 20.2695 24.8869 25.3956 19.6434 27.5086L14.5565 22.4217C18.9391 22.2651 22.4217 18.7043 22.4217 14.2826C22.4217 9.78258 18.7825 6.14346 14.2826 6.14346C9.78257 6.14346 6.14345 9.78258 6.14345 14.2826C6.14345 16.513 7.04345 18.5478 8.53041 20.0347L20.1521 31.6564L15.8086 35.9999L4.18694 24.3782C1.60434 21.7956 0 18.2347 0 14.2826ZM10.3307 18.2351C12.4829 20.4264 16.0437 20.4264 18.1959 18.2351C20.3872 16.0438 20.3872 12.5221 18.1959 10.3699C16.0437 8.17862 12.522 8.17862 10.3307 10.3699C8.13939 12.5221 8.13939 16.0438 10.3307 18.2351Z" fill="#FE5000"/>
<path d="M111.769 2.26956V3.16956C111.769 3.83477 111.534 4.38259 111.104 4.81303C110.673 5.28259 110.125 5.47824 109.499 5.47824C108.873 5.47824 108.325 5.24346 107.856 4.81303C107.386 4.34346 107.191 3.79564 107.191 3.16956V2.26956C107.191 1.64347 107.425 1.09565 107.856 0.665217C108.325 0.195653 108.873 0 109.499 0C110.125 0 110.673 0.234784 111.104 0.665217C111.573 1.05652 111.769 1.60434 111.769 2.26956Z" fill="#47495D"/>
<path fill-rule="evenodd" clip-rule="evenodd" d="M39.4561 35.2957C38.9865 35.7652 38.4387 36 37.8126 36C37.1865 36 36.6387 35.7652 36.1691 35.2957C35.6996 34.8261 35.5039 34.2783 35.5039 33.6913V8.96097C35.5039 8.33488 35.7387 7.78706 36.1691 7.35662C36.5996 6.92619 37.1474 6.69141 37.7343 6.69141C38.3604 6.69141 38.8691 6.84793 39.2995 7.2001C39.73 7.55227 40.0039 7.94358 40.0822 8.45227C41.8821 7.27836 43.7995 6.69141 45.8734 6.69141C48.7299 6.69141 51.156 7.74792 53.1517 9.86096C55.1865 11.974 56.1647 14.4783 56.1647 17.4131C56.1647 20.3479 55.1473 22.8131 53.1517 24.887C51.1169 26.9609 48.6908 27.9783 45.8734 27.9783C43.6821 27.9783 41.8039 27.3913 40.1604 26.2174V33.7304C40.1604 34.3174 39.9256 34.8652 39.4561 35.2957ZM49.8647 13.1088C48.7691 11.9349 47.3995 11.3479 45.8343 11.3479C44.23 11.3479 42.8995 11.9349 41.8039 13.1088C40.7082 14.2827 40.1604 15.7696 40.1604 17.5305C40.1604 19.2914 40.7082 20.6609 41.8039 21.6783C42.8995 22.8522 44.23 23.4783 45.7952 23.4783C47.3604 23.4783 48.73 22.8914 49.8256 21.6783C50.9604 20.4653 51.5082 19.0566 51.5082 17.4522C51.5473 15.8088 50.9604 14.3609 49.8647 13.1088Z" fill="#47495D"/>
<path fill-rule="evenodd" clip-rule="evenodd" d="M79.5639 16.787C79.5639 17.4131 79.3682 17.9218 78.9378 18.3131C78.5074 18.7044 77.9987 18.9001 77.2943 18.9001H63.7552C64.0291 20.1131 64.4987 21.0522 65.2031 21.7174C66.1031 22.774 67.4335 23.4 69.1943 23.5957C70.9552 23.7913 72.4422 23.4783 73.7335 22.5392C74.1639 22.0696 74.7117 21.874 75.4552 21.874C76.1595 21.874 76.6682 22.0696 76.9422 22.4218C77.7248 23.2827 77.7248 24.2218 76.9422 25.2C74.9074 27.0783 72.403 28.0174 69.4291 27.9783C66.4552 27.9783 63.99 26.9218 61.9552 24.8479C59.9596 22.774 58.9422 20.2696 58.9031 17.3348C58.9422 14.4001 59.9596 11.8957 61.9552 9.82183C63.9509 7.74793 66.377 6.69141 69.2335 6.69141C72.09 6.69141 74.4769 7.63053 76.3943 9.46966C78.3508 11.3479 79.4074 13.6957 79.5639 16.5522V16.787ZM69.3117 10.761C67.6683 10.8392 66.3378 11.3479 65.3596 12.287C64.3813 13.2262 63.7552 14.2044 63.5596 15.2609H75.6117C75.3769 14.2827 74.6726 13.3044 73.5378 12.3653C72.403 11.4262 70.9943 10.9175 69.3117 10.761Z" fill="#47495D"/>
<path fill-rule="evenodd" clip-rule="evenodd" d="M81.7549 17.4522C81.7549 20.387 82.7332 22.8913 84.7288 24.9261C86.6853 27.1174 89.1114 28.1739 91.9679 28.2522C94.0418 28.2522 95.9201 27.6652 97.5635 26.5305C97.2505 27.8218 96.5853 28.9174 95.5679 29.7783C94.5114 30.6392 93.4548 31.0696 92.3201 31.0696C91.2244 31.0696 90.2853 30.8739 89.5418 30.4826C88.9549 30.2479 88.3679 30.2087 87.781 30.4044C87.194 30.6 86.7636 30.9522 86.4897 31.5391C86.2157 32.087 86.1766 32.6739 86.3723 33.3C86.5679 33.887 86.9201 34.3174 87.507 34.5913C88.8766 35.2957 90.3636 35.6478 91.9679 35.6478C94.7853 35.6478 97.2114 34.6304 99.207 32.6348C101.203 30.6 102.22 28.2131 102.22 25.3957V8.96097C102.22 8.33488 101.985 7.78706 101.555 7.35662C101.124 6.92619 100.616 6.69141 100.029 6.69141C99.4418 6.69141 98.9331 6.84793 98.5027 7.2001C98.0722 7.55227 97.7983 7.9827 97.6809 8.4914C96.0375 7.27836 94.1201 6.69141 91.9679 6.69141C89.1114 6.69141 86.7244 7.74792 84.7288 9.86096C82.7332 11.974 81.7549 14.5175 81.7549 17.4522ZM87.9375 21.7957C86.881 20.5827 86.3331 19.174 86.3331 17.4914C86.3331 15.8088 86.881 14.3609 87.9766 13.1088C89.0723 11.8957 90.4027 11.2697 91.9679 11.2697C93.5331 11.2697 94.8635 11.8566 95.9592 13.0696C97.0548 14.2827 97.6027 15.7696 97.6027 17.4914C97.6027 19.2131 97.094 20.6609 95.9983 21.8348C94.9027 23.0087 93.5722 23.5957 91.9679 23.5957C90.3636 23.5957 89.0331 22.9696 87.9375 21.7957Z" fill="#47495D"/>
<path d="M109.499 6.73072C108.834 6.73072 108.286 6.9655 107.855 7.39593C107.386 7.86549 107.19 8.41332 107.229 9.11766V25.748C107.229 26.3741 107.425 26.8828 107.895 27.3524C108.364 27.7828 108.912 28.0176 109.538 28.0176C110.164 28.0176 110.712 27.7828 111.142 27.3524C111.573 26.922 111.808 26.3741 111.808 25.7089V9.07853C111.808 8.41331 111.573 7.82636 111.142 7.39593C110.712 6.9655 110.164 6.73072 109.499 6.73072Z" fill="#47495D"/>
<path d="M195.012 2.26956V3.16956C195.012 3.83477 194.777 4.38259 194.347 4.81303C193.916 5.28259 193.368 5.47824 192.742 5.47824C192.116 5.47824 191.568 5.24346 191.099 4.81303C190.629 4.34346 190.434 3.79564 190.434 3.16956V2.26956C190.434 1.64347 190.668 1.09565 191.099 0.665217C191.568 0.195653 192.116 0 192.742 0C193.368 0 193.916 0.234784 194.347 0.665217C194.816 1.05652 195.012 1.60434 195.012 2.26956Z" fill="#FE5000"/>
<path fill-rule="evenodd" clip-rule="evenodd" d="M122.698 35.2957C122.229 35.7652 121.681 36 121.055 36C120.429 36 119.881 35.7652 119.411 35.2957C118.942 34.8261 118.746 34.2783 118.746 33.6913V8.96097C118.746 8.33488 118.981 7.78706 119.411 7.35662C119.842 6.92619 120.39 6.69141 120.977 6.69141C121.603 6.69141 122.111 6.84793 122.542 7.2001C122.972 7.55227 123.246 7.94358 123.324 8.45227C125.124 7.27836 127.042 6.69141 129.116 6.69141C131.972 6.69141 134.398 7.74792 136.394 9.86096C138.429 11.974 139.407 14.4783 139.407 17.4131C139.407 20.3479 138.39 22.8131 136.394 24.887C134.359 26.9609 131.933 27.9783 129.116 27.9783C126.924 27.9783 125.046 27.3913 123.403 26.2174V33.7304C123.403 34.3174 123.168 34.8652 122.698 35.2957ZM133.107 13.1088C132.011 11.9349 130.642 11.3479 129.077 11.3479C127.472 11.3479 126.142 11.9349 125.046 13.1088C123.95 14.2827 123.403 15.7696 123.403 17.5305C123.403 19.2914 123.95 20.6609 125.046 21.6783C126.142 22.8522 127.472 23.4783 129.037 23.4783C130.603 23.4783 131.972 22.8914 133.068 21.6783C134.203 20.4653 134.75 19.0566 134.75 17.4522C134.79 15.8088 134.242 14.3609 133.107 13.1088Z" fill="#FE5000"/>
<path fill-rule="evenodd" clip-rule="evenodd" d="M162.807 16.787C162.807 17.4131 162.611 17.9218 162.181 18.3131C161.75 18.7044 161.202 18.9001 160.537 18.9001H146.998C147.272 20.1131 147.742 21.0522 148.446 21.7174C149.346 22.774 150.676 23.4 152.437 23.5957C154.198 23.7913 155.685 23.4783 156.976 22.5392C157.407 22.0696 157.955 21.874 158.698 21.874C159.402 21.874 159.911 22.0696 160.185 22.4218C160.968 23.2827 160.968 24.2218 160.185 25.2C158.15 27.0783 155.646 28.0174 152.672 27.9783C149.698 27.9783 147.233 26.9218 145.198 24.8479C143.203 22.774 142.185 20.2696 142.146 17.3348C142.185 14.4001 143.203 11.8957 145.198 9.82183C147.194 7.74793 149.62 6.69141 152.476 6.69141C155.333 6.69141 157.72 7.63053 159.637 9.46966C161.594 11.3479 162.65 13.6957 162.807 16.5522V16.787ZM152.555 10.761C150.911 10.8392 149.581 11.3479 148.603 12.287C147.624 13.2262 146.998 14.2044 146.803 15.2609H158.855C158.62 14.2827 157.916 13.3044 156.781 12.3653C155.646 11.4262 154.237 10.9175 152.555 10.761Z" fill="#FE5000"/>
<path fill-rule="evenodd" clip-rule="evenodd" d="M164.999 17.4522C164.999 20.387 165.977 22.8913 167.972 24.9261C169.929 27.1174 172.355 28.1739 175.251 28.2522C177.325 28.2522 179.203 27.6652 180.846 26.5305C180.533 27.8218 179.868 28.9174 178.851 29.7783C177.794 30.6392 176.738 31.0696 175.603 31.0696C174.507 31.0696 173.568 30.8739 172.825 30.4826C172.238 30.2479 171.651 30.2087 171.064 30.4044C170.477 30.6 170.046 30.9522 169.772 31.5391C169.499 32.087 169.459 32.6739 169.655 33.3C169.851 33.887 170.203 34.3174 170.79 34.5913C172.12 35.2957 173.646 35.6478 175.251 35.6478C178.029 35.6478 180.455 34.6304 182.451 32.6348C184.446 30.6 185.464 28.2131 185.464 25.3957V8.96097C185.464 8.33488 185.229 7.78706 184.798 7.35662C184.368 6.92619 183.859 6.69141 183.272 6.69141C182.685 6.69141 182.177 6.84793 181.746 7.2001C181.316 7.55227 181.042 7.9827 180.925 8.4914C179.281 7.27836 177.364 6.69141 175.212 6.69141C172.355 6.69141 169.968 7.74792 167.972 9.86096C165.977 11.974 164.999 14.5175 164.999 17.4522ZM171.181 21.7957C170.125 20.5827 169.577 19.174 169.577 17.4914C169.577 15.8088 170.125 14.3609 171.22 13.1088C172.316 11.8957 173.646 11.2697 175.212 11.2697C176.777 11.2697 178.107 11.8566 179.203 13.0696C180.298 14.2827 180.846 15.7696 180.846 17.4914C180.846 19.2131 180.338 20.6609 179.242 21.8348C178.146 23.0087 176.816 23.5957 175.212 23.5957C173.607 23.5957 172.277 22.9696 171.181 21.7957Z" fill="#FE5000"/>
<path d="M192.743 6.73072C192.077 6.73072 191.53 6.9655 191.099 7.39593C190.63 7.86549 190.434 8.41332 190.473 9.11766V25.748C190.473 26.3741 190.669 26.8828 191.138 27.3524C191.608 27.7828 192.156 28.0176 192.782 28.0176C193.408 28.0176 193.956 27.7828 194.386 27.3524C194.816 26.922 195.051 26.3741 195.051 25.7089V9.07853C195.051 8.41331 194.816 7.82636 194.386 7.39593C193.956 6.9655 193.408 6.73072 192.743 6.73072Z" fill="#FE5000"/>
</svg>
