<svg width="25" height="24" viewBox="0 0 25 24" fill="none" xmlns="http://www.w3.org/2000/svg">
<rect x="0.333344" width="24" height="24" rx="12" fill="white"/>
<g clip-path="url(#clip0_3821_115260)">
<mask id="mask0_3821_115260" style="mask-type:alpha" maskUnits="userSpaceOnUse" x="4" y="4" width="17" height="16">
<rect x="4.33334" y="4" width="16" height="16" fill="#D9D9D9"/>
</mask>
<g mask="url(#mask0_3821_115260)">
<path fill-rule="evenodd" clip-rule="evenodd" d="M9.51238 17.4161L9.77272 16.9994H14.7281L14.9888 17.4161H9.51238ZM14.8785 15.6682C14.6028 15.6902 14.2868 15.7082 13.9291 15.7215L14.2071 16.1666H10.2937L10.5721 15.7215C10.2137 15.7082 9.89805 15.6902 9.62271 15.6682L8.14668 18.0293C8.02468 18.2246 8.08435 18.4816 8.27902 18.6036C8.34802 18.6463 8.42436 18.6666 8.49969 18.6666C8.63869 18.6666 8.77436 18.5976 8.85337 18.4709L8.9917 18.2499H15.5095L15.6472 18.4709C15.7262 18.5976 15.8625 18.6666 16.0012 18.6666C16.0765 18.6666 16.1528 18.6463 16.2215 18.6036C16.4165 18.4816 16.4758 18.2246 16.3535 18.0293L14.8785 15.6682Z" fill="#FE5000"/>
<path fill-rule="evenodd" clip-rule="evenodd" d="M15.5835 10.3336C15.1668 10.7503 14.0908 10.7503 12.2501 10.7503C10.4094 10.7503 9.33337 10.7503 8.9167 10.3336C8.50002 9.91692 8.50002 9.49391 8.50002 8.45855C8.50002 7.4232 8.50002 7.00019 8.9167 6.58352C9.33337 6.16684 10.4094 6.16684 12.2501 6.16684C14.0908 6.16684 15.1668 6.16684 15.5835 6.58352C16.0002 7.00019 16.0002 7.4232 16.0002 8.45855C16.0002 9.49391 16.0002 9.91692 15.5835 10.3336ZM14.5417 13.6669C13.966 13.6669 13.5 13.2009 13.5 12.6252C13.5 12.0499 13.966 11.5835 14.5417 11.5835C15.1171 11.5835 15.5834 12.0499 15.5834 12.6252C15.5834 13.2009 15.1171 13.6669 14.5417 13.6669ZM9.95837 13.6669C9.3827 13.6669 8.91669 13.2009 8.91669 12.6252C8.91669 12.0499 9.3827 11.5835 9.95837 11.5835C10.5337 11.5835 11.0001 12.0499 11.0001 12.6252C11.0001 13.2009 10.5337 13.6669 9.95837 13.6669ZM16.4169 5.75005C16.0002 5.33337 14.5508 5.33337 12.2501 5.33337C9.94907 5.33337 8.50004 5.33337 8.08336 5.75005C7.66669 6.16672 7.66669 7.80209 7.66669 10.3335C7.66669 12.3612 7.66702 13.8125 7.88169 14.5239C7.93503 14.7009 8.00036 14.8342 8.08336 14.9169C8.1267 14.9602 8.18236 14.9972 8.24737 15.0316C8.81004 15.3329 10.1861 15.3336 12.2501 15.3336C14.3142 15.3336 15.6898 15.3329 16.2525 15.0316C16.3175 14.9972 16.3739 14.9602 16.4169 14.9169C16.4995 14.8342 16.5649 14.7009 16.6182 14.5239C16.8329 13.8125 16.8335 12.3612 16.8335 10.3335C16.8335 7.80209 16.8335 6.16672 16.4169 5.75005Z" fill="#FE5000"/>
<path fill-rule="evenodd" clip-rule="evenodd" d="M14.5417 12C14.8867 12 15.1667 12.28 15.1667 12.625C15.1667 12.9704 14.8867 13.25 14.5417 13.25C14.1964 13.25 13.9167 12.9704 13.9167 12.625C13.9167 12.28 14.1964 12 14.5417 12Z" fill="#FE5000"/>
<path fill-rule="evenodd" clip-rule="evenodd" d="M9.95836 12C10.3034 12 10.5834 12.28 10.5834 12.625C10.5834 12.9704 10.3034 13.25 9.95836 13.25C9.61302 13.25 9.33334 12.9704 9.33334 12.625C9.33334 12.28 9.61302 12 9.95836 12Z" fill="#FE5000"/>
</g>
</g>
<defs>
<clipPath id="clip0_3821_115260">
<rect width="16" height="16" fill="white" transform="translate(4.33334 4)"/>
</clipPath>
</defs>
</svg>
