<svg width="24" height="25" viewBox="0 0 24 25" fill="none" xmlns="http://www.w3.org/2000/svg">
<rect y="0.280396" width="24" height="24" rx="12" fill="white"/>
<g clip-path="url(#clip0_3821_241567)">
<mask id="mask0_3821_241567" style="mask-type:alpha" maskUnits="userSpaceOnUse" x="4" y="4" width="16" height="17">
<rect x="4" y="4.2804" width="16" height="16" fill="#D9D9D9"/>
</mask>
<g mask="url(#mask0_3821_241567)">
<path fill-rule="evenodd" clip-rule="evenodd" d="M16.3922 5.61371H7.60766C7.45678 5.61371 7.33325 5.73604 7.33325 5.89171V18.6693C7.33325 18.8219 7.45678 18.9469 7.60766 18.9469H10.6274V16.8163C10.6274 16.0526 11.2421 15.4276 12.0001 15.4276C12.7577 15.4276 13.3724 16.0526 13.3724 16.8163V18.9469H16.3922C16.5431 18.9469 16.6666 18.8219 16.6666 18.6693V5.89171C16.6666 5.73604 16.5431 5.61371 16.3922 5.61371ZM14.5859 8.47763H14.0368V7.4083H14.5859V8.47763ZM14.5859 10.7999H14.0368V9.73057H14.5859V10.7999ZM14.5859 13.1219H14.0368V12.0553H14.5859V13.1219ZM12.2742 8.47763H11.7251V7.4083H12.2742V8.47763ZM12.2742 10.7999H11.7251V9.73057H12.2742V10.7999ZM12.2742 13.1219H11.7251V12.0553H12.2742V13.1219ZM9.96248 8.47763H9.41335V7.4083H9.96248V8.47763ZM9.96248 10.7999H9.41335V9.73057H9.96248V10.7999ZM9.96248 13.1219H9.41335V12.0553H9.96248V13.1219Z" fill="#FE5000"/>
</g>
</g>
<defs>
<clipPath id="clip0_3821_241567">
<rect width="16" height="16" fill="white" transform="translate(4 4.2804)"/>
</clipPath>
</defs>
</svg>
