<svg width="25" height="24" viewBox="0 0 25 24" fill="none" xmlns="http://www.w3.org/2000/svg">
<rect x="0.666687" width="24" height="24" rx="12" fill="white"/>
<g clip-path="url(#clip0_3821_114892)">
<mask id="mask0_3821_114892" style="mask-type:alpha" maskUnits="userSpaceOnUse" x="4" y="4" width="17" height="16">
<rect x="4.66669" y="4" width="16" height="16" fill="#D9D9D9"/>
</mask>
<g mask="url(#mask0_3821_114892)">
<path fill-rule="evenodd" clip-rule="evenodd" d="M6.40158 14.7693C6.41802 14.78 6.43446 14.7858 6.45667 14.7969L8.08265 15.4698L7.90052 15.9054C7.84584 16.0432 7.87339 16.2032 7.97822 16.3076L8.3692 16.6992C8.47403 16.8041 8.63396 16.837 8.7721 16.7765L9.20706 16.5943L9.87965 18.2161C10.0396 18.5908 10.4696 18.7677 10.8388 18.6077C10.8552 18.6019 10.8774 18.5908 10.8939 18.5801L11.3293 18.3539C11.594 18.2161 11.7486 17.9348 11.7264 17.6423L11.5225 15.0947L11.5447 15.0782C12.2 14.5653 12.658 14.2071 13.3688 13.5506L15.7558 17.1187C16.0917 17.6259 16.7754 17.7583 17.2827 17.4219C17.3431 17.3832 17.3982 17.3334 17.448 17.2841L17.6079 17.1241C17.8944 16.837 17.9993 16.4125 17.8833 16.0209L16.4169 11.3118L16.2463 10.7327L16.2685 10.7105L16.5332 10.462C17.3653 9.66821 17.9717 9.09442 18.4182 8.5046C18.9971 7.73256 19.333 6.93832 19.333 6.33163C19.3387 6.11651 19.2836 5.90715 19.1677 5.72535C19.1348 5.68093 19.1019 5.63692 19.0575 5.59826C19.0189 5.55959 18.9806 5.52628 18.9362 5.49913C18.7545 5.38314 18.5448 5.32802 18.3245 5.33378C17.7181 5.33378 16.9295 5.66983 16.1579 6.24896C15.5626 6.68988 14.9895 7.29698 14.1956 8.14059L13.9259 8.41658L8.64506 6.78407C8.25367 6.66274 7.83474 6.76721 7.54243 7.05965L7.38292 7.21966C6.95289 7.64948 6.95289 8.3446 7.38292 8.77483C7.43225 8.8246 7.48776 8.87396 7.54819 8.91262L11.12 11.3003C10.4585 12.0176 10.0947 12.4808 9.57666 13.1368L7.01332 12.9493C6.71608 12.927 6.44022 13.0817 6.3025 13.3466L6.07638 13.7822C5.90001 14.1351 6.03773 14.5818 6.40158 14.7693Z" fill="#FE5000"/>
</g>
</g>
<defs>
<clipPath id="clip0_3821_114892">
<rect width="16" height="16" fill="white" transform="translate(4.66669 4)"/>
</clipPath>
</defs>
</svg>
