<svg width="24" height="24" viewBox="0 0 24 24" fill="none" xmlns="http://www.w3.org/2000/svg">
<rect width="24" height="24" rx="12" fill="white"/>
<g clip-path="url(#clip0_3821_118914)">
<mask id="mask0_3821_118914" style="mask-type:alpha" maskUnits="userSpaceOnUse" x="4" y="4" width="16" height="16">
<rect x="4" y="4" width="16" height="16" fill="#D9D9D9"/>
</mask>
<g mask="url(#mask0_3821_118914)">
<path fill-rule="evenodd" clip-rule="evenodd" d="M17.9863 8.0545H17.7142V6.82992C17.7142 6.38117 17.3638 5.90409 16.935 5.77034C16.935 5.77034 15.5371 5.33325 12 5.33325C8.46254 5.33325 7.06462 5.77034 7.06462 5.77034C6.63629 5.90409 6.28546 6.38117 6.28546 6.82992V8.0545H6.01379C5.63921 8.0545 5.33337 8.36075 5.33337 8.7345V10.3674C5.33337 10.7412 5.63921 11.0478 6.01379 11.0478H6.28546V17.1699H6.69421V17.442C6.69421 18.1158 7.24504 18.6666 7.91837 18.6666C8.59171 18.6666 9.14296 18.1158 9.14296 17.442V17.1699H14.8575V17.442C14.8575 18.1158 15.4084 18.6666 16.0817 18.6666C16.755 18.6666 17.3059 18.1158 17.3059 17.442V17.1699H17.7142V11.0478H17.9863C18.3609 11.0478 18.6667 10.7412 18.6667 10.3674V8.7345C18.6667 8.36075 18.3609 8.0545 17.9863 8.0545ZM15.9454 16.2178C15.5696 16.2178 15.265 15.9133 15.265 15.5374C15.265 15.162 15.5696 14.857 15.9454 14.857C16.3213 14.857 16.6258 15.162 16.6258 15.5374C16.6258 15.9133 16.3213 16.2178 15.9454 16.2178ZM8.05481 16.2178C7.67897 16.2178 7.37439 15.9133 7.37439 15.5374C7.37439 15.162 7.67897 14.857 8.05481 14.857C8.43064 14.857 8.73522 15.162 8.73522 15.5374C8.73522 15.9133 8.43064 16.2178 8.05481 16.2178ZM8.04106 13.2243C7.67287 13.2243 7.37439 12.9258 7.37439 12.5576V8.72095C7.37439 8.35276 7.67287 8.05428 8.04106 8.05428H15.9594C16.3276 8.05428 16.6261 8.35276 16.6261 8.72095V12.5576C16.6261 12.9258 16.3276 13.2243 15.9594 13.2243H8.04106ZM9.95902 6.69366C9.95902 6.9942 10.2027 7.23783 10.5032 7.23783H13.4965C13.7971 7.23783 14.0407 6.9942 14.0407 6.69366C14.0407 6.39313 13.7971 6.1495 13.4965 6.1495H10.5032C10.2027 6.1495 9.95902 6.39313 9.95902 6.69366Z" fill="#FE5000"/>
</g>
</g>
<defs>
<clipPath id="clip0_3821_118914">
<rect width="16" height="16" fill="white" transform="translate(4 4)"/>
</clipPath>
</defs>
</svg>
